<svg id="my-svg" width="100%" xmlns="http://www.w3.org/2000/svg" xmlns:xlink="http://www.w3.org/1999/xlink" class="flowchart" style="max-width: 1417.66px; background-color: #0a1628;" viewBox="0 -52 1417.65625 3095.078125" role="graphics-document document" aria-roledescription="flowchart-v2"><defs><pattern id="bp-grid" x="0" y="-52" width="40" height="40" patternUnits="userSpaceOnUse"><path d="M 10 0 L 10 40 M 20 0 L 20 40 M 30 0 L 30 40 M 0 10 L 40 10 M 0 20 L 40 20 M 0 30 L 40 30" fill="none" stroke="#16304f" stroke-width="0.35" opacity="0.35"/><path d="M 40 0 L 0 0 L 0 40" fill="none" stroke="#1e3a5f" stroke-width="0.75" opacity="0.55"/></pattern></defs><rect x="0" y="-52" width="1417.65625" height="3095.078125" fill="#0a1628"/><rect x="0" y="-52" width="1417.65625" height="3095.078125" fill="url(#bp-grid)"/><style>#my-svg{font-family:-apple-system,BlinkMacSystemFont,Segoe UI,Helvetica,Arial,sans-serif;font-size:16px;fill:#ccc;}@keyframes edge-animation-frame{from{stroke-dashoffset:0;}}@keyframes dash{to{stroke-dashoffset:0;}}#my-svg .edge-animation-slow{stroke-dasharray:9,5!important;stroke-dashoffset:900;animation:dash 50s linear infinite;stroke-linecap:round;}#my-svg .edge-animation-fast{stroke-dasharray:9,5!important;stroke-dashoffset:900;animation:dash 20s linear infinite;stroke-linecap:round;}#my-svg .error-icon{fill:#a44141;}#my-svg .error-text{fill:#ddd;stroke:#ddd;}#my-svg .edge-thickness-normal{stroke-width:1px;}#my-svg .edge-thickness-thick{stroke-width:3.5px;}#my-svg .edge-pattern-solid{stroke-dasharray:0;}#my-svg .edge-thickness-invisible{stroke-width:0;fill:none;}#my-svg .edge-pattern-dashed{stroke-dasharray:3;}#my-svg .edge-pattern-dotted{stroke-dasharray:2;}#my-svg .marker{fill:#8b949e;stroke:#8b949e;}#my-svg .marker.cross{stroke:#8b949e;}#my-svg svg{font-family:-apple-system,BlinkMacSystemFont,Segoe UI,Helvetica,Arial,sans-serif;font-size:16px;}#my-svg p{margin:0;}#my-svg .label{font-family:-apple-system,BlinkMacSystemFont,Segoe UI,Helvetica,Arial,sans-serif;color:#ccc;}#my-svg .cluster-label text{fill:#F9FFFE;}#my-svg .cluster-label span{color:#F9FFFE;}#my-svg .cluster-label span p{background-color:transparent;}#my-svg .label text,#my-svg span{fill:#ccc;color:#ccc;}#my-svg .node rect,#my-svg .node circle,#my-svg .node ellipse,#my-svg .node polygon,#my-svg .node path{fill:#1f2020;stroke:#ccc;stroke-width:1px;}#my-svg .rough-node .label text,#my-svg .node .label text,#my-svg .image-shape .label,#my-svg .icon-shape .label{text-anchor:middle;}#my-svg .node .katex path{fill:#000;stroke:#000;stroke-width:1px;}#my-svg .rough-node .label,#my-svg .node .label,#my-svg .image-shape .label,#my-svg .icon-shape .label{text-align:center;}#my-svg .node.clickable{cursor:pointer;}#my-svg .root .anchor path{fill:#8b949e!important;stroke-width:0;stroke:#8b949e;}#my-svg .arrowheadPath{fill:lightgrey;}#my-svg .edgePath .path{stroke:#8b949e;stroke-width:1px;}#my-svg .flowchart-link{stroke:#8b949e;fill:none;}#my-svg .edgeLabel{background-color:hsl(0, 0%, 34.4117647059%);text-align:center;}#my-svg .edgeLabel p{background-color:hsl(0, 0%, 34.4117647059%);}#my-svg .edgeLabel rect{opacity:0.5;background-color:hsl(0, 0%, 34.4117647059%);fill:hsl(0, 0%, 34.4117647059%);}#my-svg .labelBkg{background-color:rgba(87.75, 87.75, 87.75, 0.5);}#my-svg .cluster rect{fill:hsl(180, 1.5873015873%, 28.3529411765%);stroke:rgba(255, 255, 255, 0.25);stroke-width:1px;}#my-svg .cluster text{fill:#F9FFFE;}#my-svg .cluster span{color:#F9FFFE;}#my-svg div.mermaidTooltip{position:absolute;text-align:center;max-width:200px;padding:2px;font-family:-apple-system,BlinkMacSystemFont,Segoe UI,Helvetica,Arial,sans-serif;font-size:12px;background:#0d1117;border:1px solid rgba(255, 255, 255, 0.25);border-radius:2px;pointer-events:none;z-index:100;}#my-svg .flowchartTitleText{text-anchor:middle;font-size:18px;fill:#ccc;}#my-svg rect.text{fill:none;stroke-width:0;}#my-svg .icon-shape,#my-svg .image-shape{background-color:hsl(0, 0%, 34.4117647059%);text-align:center;}#my-svg .icon-shape p,#my-svg .image-shape p{background-color:hsl(0, 0%, 34.4117647059%);padding:2px;}#my-svg .icon-shape .label rect,#my-svg .image-shape .label rect{opacity:0.5;background-color:hsl(0, 0%, 34.4117647059%);fill:hsl(0, 0%, 34.4117647059%);}#my-svg .label-icon{display:inline-block;height:1em;overflow:visible;vertical-align:-0.125em;}#my-svg .node .label-icon path{fill:currentColor;stroke:revert;stroke-width:revert;}#my-svg .node .neo-node{stroke:#ccc;}#my-svg [data-look="neo"].node rect,#my-svg [data-look="neo"].cluster rect,#my-svg [data-look="neo"].node polygon{stroke:url(#my-svg-gradient);filter:drop-shadow( 1px 2px 2px rgba(185,185,185,1));}#my-svg [data-look="neo"].node path{stroke:url(#my-svg-gradient);stroke-width:1px;}#my-svg [data-look="neo"].node .outer-path{filter:drop-shadow( 1px 2px 2px rgba(185,185,185,1));}#my-svg [data-look="neo"].node .neo-line path{stroke:#ccc;filter:none;}#my-svg [data-look="neo"].node circle{stroke:url(#my-svg-gradient);filter:drop-shadow( 1px 2px 2px rgba(185,185,185,1));}#my-svg [data-look="neo"].node circle .state-start{fill:#000000;}#my-svg [data-look="neo"].icon-shape .icon{fill:url(#my-svg-gradient);filter:drop-shadow( 1px 2px 2px rgba(185,185,185,1));}#my-svg [data-look="neo"].icon-shape .icon-neo path{stroke:url(#my-svg-gradient);filter:drop-shadow( 1px 2px 2px rgba(185,185,185,1));}#my-svg :root{--mermaid-font-family:"trebuchet ms",verdana,arial,sans-serif;}#my-svg .step&gt;*{fill:#0a1628!important;stroke:#1e3a5f!important;stroke-width:1px!important;color:#c9d1d9!important;rx:6!important;ry:6!important;}#my-svg .step span{fill:#0a1628!important;stroke:#1e3a5f!important;stroke-width:1px!important;color:#c9d1d9!important;rx:6!important;ry:6!important;}#my-svg .step tspan{fill:#c9d1d9!important;}#my-svg .userNode&gt;*{fill:#0a1628!important;stroke:#1e3a5f!important;stroke-width:1.5px!important;color:#e6edf3!important;rx:10!important;ry:10!important;}#my-svg .userNode span{fill:#0a1628!important;stroke:#1e3a5f!important;stroke-width:1.5px!important;color:#e6edf3!important;rx:10!important;ry:10!important;}#my-svg .userNode tspan{fill:#e6edf3!important;}#my-svg .titleBlock&gt;*{fill:#06111f!important;stroke:#1e3a5f!important;stroke-width:1px!important;color:#e6edf3!important;rx:4!important;ry:4!important;}#my-svg .titleBlock span{fill:#06111f!important;stroke:#1e3a5f!important;stroke-width:1px!important;color:#e6edf3!important;rx:4!important;ry:4!important;}#my-svg .titleBlock tspan{fill:#e6edf3!important;}#my-svg .legend&gt;*{fill:#06111f!important;stroke:#1e3a5f!important;stroke-width:1px!important;color:#8b949e!important;rx:4!important;ry:4!important;}#my-svg .legend span{fill:#06111f!important;stroke:#1e3a5f!important;stroke-width:1px!important;color:#8b949e!important;rx:4!important;ry:4!important;}#my-svg .legend tspan{fill:#8b949e!important;}#my-svg .legendItem&gt;*{fill:#0a1628!important;stroke:#1e3a5f!important;stroke-width:0.5px!important;color:#c9d1d9!important;rx:4!important;ry:4!important;}#my-svg .legendItem span{fill:#0a1628!important;stroke:#1e3a5f!important;stroke-width:0.5px!important;color:#c9d1d9!important;rx:4!important;ry:4!important;}#my-svg .legendItem tspan{fill:#c9d1d9!important;}</style><g><marker id="my-svg_flowchart-v2-pointEnd" class="marker flowchart-v2" viewBox="0 0 10 10" refX="5" refY="5" markerUnits="userSpaceOnUse" markerWidth="8" markerHeight="8" orient="auto"><path d="M 0 0 L 10 5 L 0 10 z" class="arrowMarkerPath" style="stroke-width: 1; stroke-dasharray: 1, 0;"/></marker><marker id="my-svg_flowchart-v2-pointStart" class="marker flowchart-v2" viewBox="0 0 10 10" refX="4.5" refY="5" markerUnits="userSpaceOnUse" markerWidth="8" markerHeight="8" orient="auto"><path d="M 0 5 L 10 10 L 10 0 z" class="arrowMarkerPath" style="stroke-width: 1; stroke-dasharray: 1, 0;"/></marker><marker id="my-svg_flowchart-v2-pointEnd-margin" class="marker flowchart-v2" viewBox="0 0 11.5 14" refX="11.5" refY="7" markerUnits="userSpaceOnUse" markerWidth="10.5" markerHeight="14" orient="auto"><path d="M 0 0 L 11.5 7 L 0 14 z" class="arrowMarkerPath" style="stroke-width: 0; stroke-dasharray: 1, 0;"/></marker><marker id="my-svg_flowchart-v2-pointStart-margin" class="marker flowchart-v2" viewBox="0 0 11.5 14" refX="1" refY="7" markerUnits="userSpaceOnUse" markerWidth="11.5" markerHeight="14" orient="auto"><polygon points="0,7 11.5,14 11.5,0" class="arrowMarkerPath" style="stroke-width: 0; stroke-dasharray: 1, 0;"/></marker><marker id="my-svg_flowchart-v2-circleEnd" class="marker flowchart-v2" viewBox="0 0 10 10" refX="11" refY="5" markerUnits="userSpaceOnUse" markerWidth="11" markerHeight="11" orient="auto"><circle cx="5" cy="5" r="5" class="arrowMarkerPath" style="stroke-width: 1; stroke-dasharray: 1, 0;"/></marker><marker id="my-svg_flowchart-v2-circleStart" class="marker flowchart-v2" viewBox="0 0 10 10" refX="-1" refY="5" markerUnits="userSpaceOnUse" markerWidth="11" markerHeight="11" orient="auto"><circle cx="5" cy="5" r="5" class="arrowMarkerPath" style="stroke-width: 1; stroke-dasharray: 1, 0;"/></marker><marker id="my-svg_flowchart-v2-circleEnd-margin" class="marker flowchart-v2" viewBox="0 0 10 10" refY="5" refX="12.25" markerUnits="userSpaceOnUse" markerWidth="14" markerHeight="14" orient="auto"><circle cx="5" cy="5" r="5" class="arrowMarkerPath" style="stroke-width: 0; stroke-dasharray: 1, 0;"/></marker><marker id="my-svg_flowchart-v2-circleStart-margin" class="marker flowchart-v2" viewBox="0 0 10 10" refX="-2" refY="5" markerUnits="userSpaceOnUse" markerWidth="14" markerHeight="14" orient="auto"><circle cx="5" cy="5" r="5" class="arrowMarkerPath" style="stroke-width: 0; stroke-dasharray: 1, 0;"/></marker><marker id="my-svg_flowchart-v2-crossEnd" class="marker cross flowchart-v2" viewBox="0 0 11 11" refX="12" refY="5.2" markerUnits="userSpaceOnUse" markerWidth="11" markerHeight="11" orient="auto"><path d="M 1,1 l 9,9 M 10,1 l -9,9" class="arrowMarkerPath" style="stroke-width: 2; stroke-dasharray: 1, 0;"/></marker><marker id="my-svg_flowchart-v2-crossStart" class="marker cross flowchart-v2" viewBox="0 0 11 11" refX="-1" refY="5.2" markerUnits="userSpaceOnUse" markerWidth="11" markerHeight="11" orient="auto"><path d="M 1,1 l 9,9 M 10,1 l -9,9" class="arrowMarkerPath" style="stroke-width: 2; stroke-dasharray: 1, 0;"/></marker><marker id="my-svg_flowchart-v2-crossEnd-margin" class="marker cross flowchart-v2" viewBox="0 0 15 15" refX="17.7" refY="7.5" markerUnits="userSpaceOnUse" markerWidth="12" markerHeight="12" orient="auto"><path d="M 1,1 L 14,14 M 1,14 L 14,1" class="arrowMarkerPath" style="stroke-width: 2.5;"/></marker><marker id="my-svg_flowchart-v2-crossStart-margin" class="marker cross flowchart-v2" viewBox="0 0 15 15" refX="-3.5" refY="7.5" markerUnits="userSpaceOnUse" markerWidth="12" markerHeight="12" orient="auto"><path d="M 1,1 L 14,14 M 1,14 L 14,1" class="arrowMarkerPath" style="stroke-width: 2.5; stroke-dasharray: 1, 0;"/></marker><g class="root"><g class="clusters"/><g class="edgePaths"><path d="M708.828,126.797L708.828,131.297C708.828,135.797,708.828,144.797,708.911,153.88C708.995,162.964,709.161,172.13,709.245,176.714L709.328,181.297" id="my-svg-L_TitleBlock_User_0" class="edge-thickness-invisible edge-pattern-solid" style="stroke-dasharray: 0 0 54.50351333618164 0; stroke-dashoffset: 0;stroke:#8b949e;stroke-width:1.5px;;;stroke:#8b949e;stroke-width:1.5px" data-edge="true" data-et="edge" data-id="L_TitleBlock_User_0" data-points="W3sieCI6NzA4LjgyODEyNSwieSI6MTI2Ljc5Njg3NX0seyJ4Ijo3MDguODI4MTI1LCJ5IjoxNTMuNzk2ODc1fSx7IngiOjcwOS4zMjgxMjUsInkiOjE4MS4yOTY4NzUwMDAwMDAwNn1d" data-look="neo"/><path d="M708.828,270.391L708.828,274.891C708.828,279.391,708.828,288.391,708.828,296.724C708.828,305.057,708.828,312.724,708.828,316.557L708.828,320.391" id="my-svg-L_User_SS_0" class="edge-thickness-normal edge-pattern-solid edge-thickness-normal edge-pattern-solid flowchart-link" style="stroke-dasharray: 0 0 46 4; stroke-dashoffset: 0;stroke:#8b949e;stroke-width:1.5px;;;stroke:#8b949e;stroke-width:1.5px" data-edge="true" data-et="edge" data-id="L_User_SS_0" data-points="W3sieCI6NzA4LjgyODEyNSwieSI6MjcwLjM5MDYyNX0seyJ4Ijo3MDguODI4MTI1LCJ5IjoyOTcuMzkwNjI1fSx7IngiOjcwOC44MjgxMjUsInkiOjMyNC4zOTA2MjV9XQ==" data-look="neo" marker-end="url(#my-svg_flowchart-v2-pointEnd-margin__8b949e)"/><path d="M708.828,553.141L708.828,557.641C708.828,562.141,708.828,571.141,708.828,579.474C708.828,587.807,708.828,595.474,708.828,599.307L708.828,603.141" id="my-svg-L_SS_Pre_0" class="edge-thickness-normal edge-pattern-solid edge-thickness-normal edge-pattern-solid flowchart-link" style="stroke-dasharray: 0 0 46 4; stroke-dashoffset: 0;stroke:#8b949e;stroke-width:1.5px;;;stroke:#8b949e;stroke-width:1.5px" data-edge="true" data-et="edge" data-id="L_SS_Pre_0" data-points="W3sieCI6NzA4LjgyODEyNSwieSI6NTUzLjE0MDYyNX0seyJ4Ijo3MDguODI4MTI1LCJ5Ijo1ODAuMTQwNjI1fSx7IngiOjcwOC44MjgxMjUsInkiOjYwNy4xNDA2MjV9XQ==" data-look="neo" marker-end="url(#my-svg_flowchart-v2-pointEnd-margin__8b949e)"/><path d="M708.828,958.266L708.828,962.766C708.828,967.266,708.828,976.266,708.828,984.599C708.828,992.932,708.828,1000.599,708.828,1004.432L708.828,1008.266" id="my-svg-L_Pre_Post_0" class="edge-thickness-normal edge-pattern-solid edge-thickness-normal edge-pattern-solid flowchart-link" style="stroke-dasharray: 0 0 46 4; stroke-dashoffset: 0;stroke:#8b949e;stroke-width:1.5px;;;stroke:#8b949e;stroke-width:1.5px" data-edge="true" data-et="edge" data-id="L_Pre_Post_0" data-points="W3sieCI6NzA4LjgyODEyNSwieSI6OTU4LjI2NTYyNX0seyJ4Ijo3MDguODI4MTI1LCJ5Ijo5ODUuMjY1NjI1fSx7IngiOjcwOC44MjgxMjUsInkiOjEwMTIuMjY1NjI1fV0=" data-look="neo" marker-end="url(#my-svg_flowchart-v2-pointEnd-margin__8b949e)"/><path d="M708.828,1390.578L708.828,1395.078C708.828,1399.578,708.828,1408.578,708.828,1416.911C708.828,1425.245,708.828,1432.911,708.828,1436.745L708.828,1440.578" id="my-svg-L_Post_Adv_0" class="edge-thickness-normal edge-pattern-solid edge-thickness-normal edge-pattern-solid flowchart-link" style="stroke-dasharray: 0 0 46 4; stroke-dashoffset: 0;stroke:#8b949e;stroke-width:1.5px;;;stroke:#8b949e;stroke-width:1.5px" data-edge="true" data-et="edge" data-id="L_Post_Adv_0" data-points="W3sieCI6NzA4LjgyODEyNSwieSI6MTM5MC41NzgxMjV9LHsieCI6NzA4LjgyODEyNSwieSI6MTQxNy41NzgxMjV9LHsieCI6NzA4LjgyODEyNSwieSI6MTQ0NC41NzgxMjV9XQ==" data-look="neo" marker-end="url(#my-svg_flowchart-v2-pointEnd-margin__8b949e)"/><path d="M708.828,2122.016L708.828,2126.516C708.828,2131.016,708.828,2140.016,708.828,2148.349C708.828,2156.682,708.828,2164.349,708.828,2168.182L708.828,2172.016" id="my-svg-L_Adv_Audit_0" class="edge-thickness-normal edge-pattern-solid edge-thickness-normal edge-pattern-solid flowchart-link" style="stroke-dasharray: 0 0 46 4; stroke-dashoffset: 0;stroke:#8b949e;stroke-width:1.5px;;;stroke:#8b949e;stroke-width:1.5px" data-edge="true" data-et="edge" data-id="L_Adv_Audit_0" data-points="W3sieCI6NzA4LjgyODEyNSwieSI6MjEyMi4wMTU2MjV9LHsieCI6NzA4LjgyODEyNSwieSI6MjE0OS4wMTU2MjV9LHsieCI6NzA4LjgyODEyNSwieSI6MjE3Ni4wMTU2MjV9XQ==" data-look="neo" marker-end="url(#my-svg_flowchart-v2-pointEnd-margin__8b949e)"/><path d="M708.828,2404.766L708.828,2409.266C708.828,2413.766,708.828,2422.766,708.828,2431.099C708.828,2439.432,708.828,2447.099,708.828,2450.932L708.828,2454.766" id="my-svg-L_Audit_Comp_0" class="edge-thickness-normal edge-pattern-solid edge-thickness-normal edge-pattern-solid flowchart-link" style="stroke-dasharray: 0 0 46 4; stroke-dashoffset: 0;stroke:#8b949e;stroke-width:1.5px;;;stroke:#8b949e;stroke-width:1.5px" data-edge="true" data-et="edge" data-id="L_Audit_Comp_0" data-points="W3sieCI6NzA4LjgyODEyNSwieSI6MjQwNC43NjU2MjV9LHsieCI6NzA4LjgyODEyNSwieSI6MjQzMS43NjU2MjV9LHsieCI6NzA4LjgyODEyNSwieSI6MjQ1OC43NjU2MjV9XQ==" data-look="neo" marker-end="url(#my-svg_flowchart-v2-pointEnd-margin__8b949e)"/><path d="M708.828,2837.078L708.828,2841.578C708.828,2846.078,708.828,2855.078,708.828,2864.078C708.828,2873.078,708.828,2882.078,708.828,2886.578L708.828,2891.078" id="my-svg-L_Comp_Legend_0" class="edge-thickness-invisible edge-pattern-solid" style="stroke-dasharray: 0 0 54 0; stroke-dashoffset: 0;stroke:#8b949e;stroke-width:1.5px;;;stroke:#8b949e;stroke-width:1.5px" data-edge="true" data-et="edge" data-id="L_Comp_Legend_0" data-points="W3sieCI6NzA4LjgyODEyNSwieSI6MjgzNy4wNzgxMjV9LHsieCI6NzA4LjgyODEyNSwieSI6Mjg2NC4wNzgxMjV9LHsieCI6NzA4LjgyODEyNSwieSI6Mjg5MS4wNzgxMjV9XQ==" data-look="neo"/></g><g class="edgeLabels"><g class="edgeLabel"><g class="label" data-id="L_TitleBlock_User_0" transform="translate(0, 0)"><foreignObject width="0" height="0"><div xmlns="http://www.w3.org/1999/xhtml" class="labelBkg" style="display: table-cell; white-space: nowrap; line-height: 1.5; max-width: 200px; text-align: center;"><span class="edgeLabel"></span></div></foreignObject></g></g><g class="edgeLabel"><g class="label" data-id="L_User_SS_0" transform="translate(0, 0)"><foreignObject width="0" height="0"><div xmlns="http://www.w3.org/1999/xhtml" class="labelBkg" style="display: table-cell; white-space: nowrap; line-height: 1.5; max-width: 200px; text-align: center;"><span class="edgeLabel"></span></div></foreignObject></g></g><g class="edgeLabel"><g class="label" data-id="L_SS_Pre_0" transform="translate(0, 0)"><foreignObject width="0" height="0"><div xmlns="http://www.w3.org/1999/xhtml" class="labelBkg" style="display: table-cell; white-space: nowrap; line-height: 1.5; max-width: 200px; text-align: center;"><span class="edgeLabel"></span></div></foreignObject></g></g><g class="edgeLabel"><g class="label" data-id="L_Pre_Post_0" transform="translate(0, 0)"><foreignObject width="0" height="0"><div xmlns="http://www.w3.org/1999/xhtml" class="labelBkg" style="display: table-cell; white-space: nowrap; line-height: 1.5; max-width: 200px; text-align: center;"><span class="edgeLabel"></span></div></foreignObject></g></g><g class="edgeLabel"><g class="label" data-id="L_Post_Adv_0" transform="translate(0, 0)"><foreignObject width="0" height="0"><div xmlns="http://www.w3.org/1999/xhtml" class="labelBkg" style="display: table-cell; white-space: nowrap; line-height: 1.5; max-width: 200px; text-align: center;"><span class="edgeLabel"></span></div></foreignObject></g></g><g class="edgeLabel"><g class="label" data-id="L_Adv_Audit_0" transform="translate(0, 0)"><foreignObject width="0" height="0"><div xmlns="http://www.w3.org/1999/xhtml" class="labelBkg" style="display: table-cell; white-space: nowrap; line-height: 1.5; max-width: 200px; text-align: center;"><span class="edgeLabel"></span></div></foreignObject></g></g><g class="edgeLabel"><g class="label" data-id="L_Audit_Comp_0" transform="translate(0, 0)"><foreignObject width="0" height="0"><div xmlns="http://www.w3.org/1999/xhtml" class="labelBkg" style="display: table-cell; white-space: nowrap; line-height: 1.5; max-width: 200px; text-align: center;"><span class="edgeLabel"></span></div></foreignObject></g></g><g class="edgeLabel"><g class="label" data-id="L_Comp_Legend_0" transform="translate(0, 0)"><foreignObject width="0" height="0"><div xmlns="http://www.w3.org/1999/xhtml" class="labelBkg" style="display: table-cell; white-space: nowrap; line-height: 1.5; max-width: 200px; text-align: center;"><span class="edgeLabel"></span></div></foreignObject></g></g></g><g class="nodes"><g class="root" transform="translate(0, 2899.078125)"><g class="clusters"><g class="cluster legend" id="my-svg-Legend" data-look="neo"><rect style="fill:#06111f !important;stroke:#1e3a5f !important;stroke-width:1px !important;rx:4 !important;ry:4 !important" x="8" y="-8" width="1401.65625" height="144"/><g class="cluster-label" transform="translate(258.828125, 6)"><foreignObject width="900" height="16.5"><div xmlns="http://www.w3.org/1999/xhtml" style="display: table-cell; white-space: nowrap; line-height: 1.5;"><span class="nodeLabel" style="color:#8b949e !important"><p></p><div style="font-family:ui-monospace,monospace;color:&amp;8b949e;font-size:11px;letter-spacing:3px;min-width:900px;text-align:center">LEGEND  ·  HOOK POINT / LAYER</div><p></p></span></div></foreignObject></g></g></g><g class="edgePaths"><path d="M187.328,80L193.911,80C200.495,80,213.661,80,226.828,80C239.995,80,253.161,80,259.745,80L266.328,80" id="my-svg-L_lg1_lg2_0" class="edge-thickness-normal edge-pattern-solid edge-thickness-normal edge-pattern-solid flowchart-link" style="stroke-dasharray: 0 0 79 0; stroke-dashoffset: 0;stroke:#8b949e;stroke-width:1.5px;;;stroke:#8b949e;stroke-width:1.5px" data-edge="true" data-et="edge" data-id="L_lg1_lg2_0" data-points="W3sieCI6MTg3LjMyODEyNSwieSI6ODB9LHsieCI6MjI2LjgyODEyNSwieSI6ODB9LHsieCI6MjY2LjMyODEyNSwieSI6ODB9XQ==" data-look="neo"/><path d="M470.172,80L476.755,80C483.339,80,496.505,80,509.672,80C522.839,80,536.005,80,542.589,80L549.172,80" id="my-svg-L_lg2_lg3_0" class="edge-thickness-normal edge-pattern-solid edge-thickness-normal edge-pattern-solid flowchart-link" style="stroke-dasharray: 0 0 79 0; stroke-dashoffset: 0;stroke:#8b949e;stroke-width:1.5px;;;stroke:#8b949e;stroke-width:1.5px" data-edge="true" data-et="edge" data-id="L_lg2_lg3_0" data-points="W3sieCI6NDcwLjE3MTg3NSwieSI6ODB9LHsieCI6NTA5LjY3MTg3NSwieSI6ODB9LHsieCI6NTQ5LjE3MTg3NSwieSI6ODB9XQ==" data-look="neo"/><path d="M784.531,80L791.115,80C797.698,80,810.865,80,824.031,80C837.198,80,850.365,80,856.948,80L863.531,80" id="my-svg-L_lg3_lg4_0" class="edge-thickness-normal edge-pattern-solid edge-thickness-normal edge-pattern-solid flowchart-link" style="stroke-dasharray: 0 0 79 0; stroke-dashoffset: 0;stroke:#8b949e;stroke-width:1.5px;;;stroke:#8b949e;stroke-width:1.5px" data-edge="true" data-et="edge" data-id="L_lg3_lg4_0" data-points="W3sieCI6Nzg0LjUzMTI1LCJ5Ijo4MH0seyJ4Ijo4MjQuMDMxMjUsInkiOjgwfSx7IngiOjg2My41MzEyNSwieSI6ODB9XQ==" data-look="neo"/><path d="M978.828,80L985.411,80C991.995,80,1005.161,80,1018.328,80C1031.495,80,1044.661,80,1051.245,80L1057.828,80" id="my-svg-L_lg4_lg5_0" class="edge-thickness-normal edge-pattern-solid edge-thickness-normal edge-pattern-solid flowchart-link" style="stroke-dasharray: 0 0 79 0; stroke-dashoffset: 0;stroke:#8b949e;stroke-width:1.5px;;;stroke:#8b949e;stroke-width:1.5px" data-edge="true" data-et="edge" data-id="L_lg4_lg5_0" data-points="W3sieCI6OTc4LjgyODEyNSwieSI6ODB9LHsieCI6MTAxOC4zMjgxMjUsInkiOjgwfSx7IngiOjEwNTcuODI4MTI1LCJ5Ijo4MH1d" data-look="neo"/><path d="M1153.438,80L1160.021,80C1166.604,80,1179.771,80,1192.938,80C1206.104,80,1219.271,80,1225.854,80L1232.438,80" id="my-svg-L_lg5_lg6_0" class="edge-thickness-normal edge-pattern-solid edge-thickness-normal edge-pattern-solid flowchart-link" style="stroke-dasharray: 0 0 79 0; stroke-dashoffset: 0;stroke:#8b949e;stroke-width:1.5px;;;stroke:#8b949e;stroke-width:1.5px" data-edge="true" data-et="edge" data-id="L_lg5_lg6_0" data-points="W3sieCI6MTE1My40Mzc1LCJ5Ijo4MH0seyJ4IjoxMTkyLjkzNzUsInkiOjgwfSx7IngiOjEyMzIuNDM3NSwieSI6ODB9XQ==" data-look="neo"/></g><g class="edgeLabels"><g class="edgeLabel"><g class="label" data-id="L_lg1_lg2_0" transform="translate(0, 0)"><foreignObject width="0" height="0"><div xmlns="http://www.w3.org/1999/xhtml" class="labelBkg" style="display: table-cell; white-space: nowrap; line-height: 1.5; max-width: 200px; text-align: center;"><span class="edgeLabel"></span></div></foreignObject></g></g><g class="edgeLabel"><g class="label" data-id="L_lg2_lg3_0" transform="translate(0, 0)"><foreignObject width="0" height="0"><div xmlns="http://www.w3.org/1999/xhtml" class="labelBkg" style="display: table-cell; white-space: nowrap; line-height: 1.5; max-width: 200px; text-align: center;"><span class="edgeLabel"></span></div></foreignObject></g></g><g class="edgeLabel"><g class="label" data-id="L_lg3_lg4_0" transform="translate(0, 0)"><foreignObject width="0" height="0"><div xmlns="http://www.w3.org/1999/xhtml" class="labelBkg" style="display: table-cell; white-space: nowrap; line-height: 1.5; max-width: 200px; text-align: center;"><span class="edgeLabel"></span></div></foreignObject></g></g><g class="edgeLabel"><g class="label" data-id="L_lg4_lg5_0" transform="translate(0, 0)"><foreignObject width="0" height="0"><div xmlns="http://www.w3.org/1999/xhtml" class="labelBkg" style="display: table-cell; white-space: nowrap; line-height: 1.5; max-width: 200px; text-align: center;"><span class="edgeLabel"></span></div></foreignObject></g></g><g class="edgeLabel"><g class="label" data-id="L_lg5_lg6_0" transform="translate(0, 0)"><foreignObject width="0" height="0"><div xmlns="http://www.w3.org/1999/xhtml" class="labelBkg" style="display: table-cell; white-space: nowrap; line-height: 1.5; max-width: 200px; text-align: center;"><span class="edgeLabel"></span></div></foreignObject></g></g></g><g class="nodes"><g class="node default legendItem" id="my-svg-flowchart-lg1-14" data-look="neo" transform="translate(117.4140625, 80)"><rect class="basic label-container" style="fill:#0a1628 !important;stroke:#1e3a5f !important;stroke-width:0.5px !important;rx:4 !important;ry:4 !important" x="-69.9140625" y="-24" width="139.828125" height="48"/><g class="label" style="color:#c9d1d9 !important" transform="translate(-53.9140625, -12)"><rect/><foreignObject width="107.828125" height="24"><div style="color: rgb(201, 209, 217) !important; display: table-cell; white-space: nowrap; line-height: 1.5; max-width: 200px; text-align: center;" xmlns="http://www.w3.org/1999/xhtml"><span style="color:#c9d1d9 !important" class="nodeLabel"><p><span style="color:#bc8cff">■</span>  SessionStart</p></span></div></foreignObject></g></g><g class="node default legendItem" id="my-svg-flowchart-lg2-15" data-look="neo" transform="translate(368.25, 80)"><rect class="basic label-container" style="fill:#0a1628 !important;stroke:#1e3a5f !important;stroke-width:0.5px !important;rx:4 !important;ry:4 !important" x="-101.921875" y="-24" width="203.84375" height="48"/><g class="label" style="color:#c9d1d9 !important" transform="translate(-85.921875, -12)"><rect/><foreignObject width="171.84375" height="24"><div style="color: rgb(201, 209, 217) !important; display: table-cell; white-space: nowrap; line-height: 1.5; max-width: 200px; text-align: center;" xmlns="http://www.w3.org/1999/xhtml"><span style="color:#c9d1d9 !important" class="nodeLabel"><p><span style="color:#d75952">■</span>  PreToolUse · advisory</p></span></div></foreignObject></g></g><g class="node default legendItem" id="my-svg-flowchart-lg3-16" data-look="neo" transform="translate(666.8515625, 80)"><rect class="basic label-container" style="fill:#0a1628 !important;stroke:#1e3a5f !important;stroke-width:0.5px !important;rx:4 !important;ry:4 !important" x="-117.6796875" y="-24" width="235.359375" height="48"/><g class="label" style="color:#c9d1d9 !important" transform="translate(-101.6796875, -12)"><rect/><foreignObject width="203.359375" height="24"><div style="color: rgb(201, 209, 217) !important; display: table; white-space: break-spaces; line-height: 1.5; max-width: 200px; text-align: center; width: 200px;" xmlns="http://www.w3.org/1999/xhtml"><span style="color:#c9d1d9 !important" class="nodeLabel"><p><span style="color:#3fb950">■</span>  PostToolUse · observation</p></span></div></foreignObject></g></g><g class="node default legendItem" id="my-svg-flowchart-lg4-17" data-look="neo" transform="translate(921.1796875, 80)"><rect class="basic label-container" style="fill:#0a1628 !important;stroke:#1e3a5f !important;stroke-width:0.5px !important;rx:4 !important;ry:4 !important" x="-57.6484375" y="-24" width="115.296875" height="48"/><g class="label" style="color:#c9d1d9 !important" transform="translate(-41.6484375, -12)"><rect/><foreignObject width="83.296875" height="24"><div style="color: rgb(201, 209, 217) !important; display: table-cell; white-space: nowrap; line-height: 1.5; max-width: 200px; text-align: center;" xmlns="http://www.w3.org/1999/xhtml"><span style="color:#c9d1d9 !important" class="nodeLabel"><p><span style="color:#a371f7">■</span>  Advisory</p></span></div></foreignObject></g></g><g class="node default legendItem" id="my-svg-flowchart-lg5-18" data-look="neo" transform="translate(1105.6328125, 80)"><rect class="basic label-container" style="fill:#0a1628 !important;stroke:#1e3a5f !important;stroke-width:0.5px !important;rx:4 !important;ry:4 !important" x="-47.8046875" y="-24" width="95.609375" height="48"/><g class="label" style="color:#c9d1d9 !important" transform="translate(-31.8046875, -12)"><rect/><foreignObject width="63.609375" height="24"><div style="color: rgb(201, 209, 217) !important; display: table-cell; white-space: nowrap; line-height: 1.5; max-width: 200px; text-align: center;" xmlns="http://www.w3.org/1999/xhtml"><span style="color:#c9d1d9 !important" class="nodeLabel"><p><span style="color:#d29922">■</span>  AudiT</p></span></div></foreignObject></g></g><g class="node default legendItem" id="my-svg-flowchart-lg6-19" data-look="neo" transform="translate(1301.296875, 80)"><rect class="basic label-container" style="fill:#0a1628 !important;stroke:#1e3a5f !important;stroke-width:0.5px !important;rx:4 !important;ry:4 !important" x="-68.859375" y="-24" width="137.71875" height="48"/><g class="label" style="color:#c9d1d9 !important" transform="translate(-52.859375, -12)"><rect/><foreignObject width="105.71875" height="24"><div style="color: rgb(201, 209, 217) !important; display: table-cell; white-space: nowrap; line-height: 1.5; max-width: 200px; text-align: center;" xmlns="http://www.w3.org/1999/xhtml"><span style="color:#c9d1d9 !important" class="nodeLabel"><p><span style="color:#79c0ff">■</span>  Compliance</p></span></div></foreignObject></g></g></g></g><g class="root" transform="translate(545.328125, 2466.765625)"><g class="clusters"><g class="cluster" id="my-svg-Comp" data-look="neo"><rect style="fill:#0f1d33 !important;stroke:#79c0ff !important;stroke-width:2px !important;rx:12 !important;ry:12 !important" x="-290.5" y="-8" width="908" height="378.3125"/><g class="cluster-label" transform="translate(-286.5, 6)"><foreignObject width="900" height="54"><div xmlns="http://www.w3.org/1999/xhtml" style="display: table-cell; white-space: nowrap; line-height: 1.5;"><span class="nodeLabel" style="color:#e6edf3 !important"><p></p><div style="text-align:center;min-width:900px;line-height:2"><div><span style="font-family:ui-monospace,monospace;color:&amp;8b949e;font-size:11px;letter-spacing:3px">PLUGINS 10·11 · Skill / CI driven</span>  ·  <b style="letter-spacing:2px">COMPLIANCE LAYER</b></div><div style="color:&amp;6e7681;font-size:11px;font-family:ui-monospace,monospace;letter-spacing:1.2px">license-gate · sbom-emitter · release.yml wired · CISA SBOM / SLSA L3</div></div><p></p></span></div></foreignObject></g></g></g><g class="edgePaths"/><g class="edgeLabels"/><g class="nodes"><g class="node default step" id="my-svg-flowchart-license-12" data-look="neo" transform="translate(163.5, 108.78125)"><rect class="basic label-container" style="fill:#0a1628 !important;stroke:#1e3a5f !important;stroke-width:1px !important;rx:6 !important;ry:6 !important" x="-93.640625" y="-52.78125" width="187.28125" height="105.5625"/><g class="label" style="color:#c9d1d9 !important" transform="translate(-77.640625, -40.78125)"><rect/><foreignObject width="155.28125" height="81.5625"><div style="color: rgb(201, 209, 217) !important; display: table-cell; white-space: nowrap; line-height: 1.5; max-width: 200px; text-align: center;" xmlns="http://www.w3.org/1999/xhtml"><span style="color:#c9d1d9 !important" class="nodeLabel"><p></p><div style="text-align:center;line-height:1.7">LICENSE GATE<br />SPDX allow/deny<br /><small style="color:#6e7681">npm + pip · --fail-on-deny</small></div><p></p></span></div></foreignObject></g></g><g class="node default step" id="my-svg-flowchart-sbom-13" data-look="neo" transform="translate(163.5, 271.9375)"><rect class="basic label-container" style="fill:#0a1628 !important;stroke:#1e3a5f !important;stroke-width:1px !important;rx:6 !important;ry:6 !important" x="-116" y="-66.375" width="232" height="132.75"/><g class="label" style="color:#c9d1d9 !important" transform="translate(-100, -54.375)"><rect/><foreignObject width="200" height="108.75"><div style="color: rgb(201, 209, 217) !important; display: table; white-space: break-spaces; line-height: 1.5; max-width: 200px; text-align: center; width: 200px;" xmlns="http://www.w3.org/1999/xhtml"><span style="color:#c9d1d9 !important" class="nodeLabel"><p></p><div style="text-align:center;line-height:1.7">SBOM EMITTER<br />CycloneDX<br /><small style="color:#6e7681">bom-npm.cdx.json · bom-pip.cdx.json</small></div><p></p></span></div></foreignObject></g></g></g></g><g class="root" transform="translate(531.59375, 2184.015625)"><g class="clusters"><g class="cluster" id="my-svg-Audit" data-look="neo"><rect style="fill:#0f1d33 !important;stroke:#d29922 !important;stroke-width:2px !important;rx:12 !important;ry:12 !important" x="-276.765625" y="-8" width="908" height="228.75"/><g class="cluster-label" transform="translate(-272.765625, 6)"><foreignObject width="900" height="54"><div xmlns="http://www.w3.org/1999/xhtml" style="display: table-cell; white-space: nowrap; line-height: 1.5;"><span class="nodeLabel" style="color:#e6edf3 !important"><p></p><div style="text-align:center;min-width:900px;line-height:2"><div><span style="font-family:ui-monospace,monospace;color:&amp;8b949e;font-size:11px;letter-spacing:3px">PLUGIN 05 · All hooks</span>  ·  <b style="letter-spacing:2px">AUDIT-TRAIL</b></div><div style="color:&amp;6e7681;font-size:11px;font-family:ui-monospace,monospace;letter-spacing:1.2px">R8 · EMA posture decay · HMAC hash-chain · audit-verify skill</div></div><p></p></span></div></foreignObject></g></g></g><g class="edgePaths"/><g class="edgeLabels"/><g class="nodes"><g class="node default step" id="my-svg-flowchart-audit-11" data-look="neo" transform="translate(177.234375, 122.375)"><rect class="basic label-container" style="fill:#0a1628 !important;stroke:#1e3a5f !important;stroke-width:1px !important;rx:6 !important;ry:6 !important" x="-129.734375" y="-66.375" width="259.46875" height="132.75"/><g class="label" style="color:#c9d1d9 !important" transform="translate(-113.734375, -54.375)"><rect/><foreignObject width="227.46875" height="108.75"><div style="color: rgb(201, 209, 217) !important; display: table; white-space: break-spaces; line-height: 1.5; max-width: 200px; text-align: center; width: 200px;" xmlns="http://www.w3.org/1999/xhtml"><span style="color:#c9d1d9 !important" class="nodeLabel"><p></p><div style="text-align:center;line-height:1.7">BAYESIAN THREAT<br />CONVERGENCE + HMAC CHAIN<br /><small style="color:#6e7681">r_new = αs + (1−α)r · α = 0.3 · prev_sha256</small></div><p></p></span></div></foreignObject></g></g></g></g><g class="root" transform="translate(545.328125, 1452.578125)"><g class="clusters"><g class="cluster" id="my-svg-Adv" data-look="neo"><rect style="fill:#0f1d33 !important;stroke:#a371f7 !important;stroke-width:2px !important;rx:12 !important;ry:12 !important" x="-290.5" y="-8" width="908" height="677.4375"/><g class="cluster-label" transform="translate(-286.5, 6)"><foreignObject width="900" height="54"><div xmlns="http://www.w3.org/1999/xhtml" style="display: table-cell; white-space: nowrap; line-height: 1.5;"><span class="nodeLabel" style="color:#e6edf3 !important"><p></p><div style="text-align:center;min-width:900px;line-height:2"><div><span style="font-family:ui-monospace,monospace;color:&amp;8b949e;font-size:11px;letter-spacing:3px">PLUGINS 06·07·08·09 · Pre + PostToolUse / ALL TOOLS</span>  ·  <b style="letter-spacing:2px">ADVISORY LAYER</b></div><div style="color:&amp;6e7681;font-size:11px;font-family:ui-monospace,monospace;letter-spacing:1.2px">package-gate · egress-monitor · canary · capability-fence · all exit 0 · injection-over-denial</div></div><p></p></span></div></foreignObject></g></g></g><g class="edgePaths"/><g class="edgeLabels"/><g class="nodes"><g class="node default step" id="my-svg-flowchart-pkggate-7" data-look="neo" transform="translate(163.5, 108.78125)"><rect class="basic label-container" style="fill:#0a1628 !important;stroke:#1e3a5f !important;stroke-width:1px !important;rx:6 !important;ry:6 !important" x="-95.6875" y="-52.78125" width="191.375" height="105.5625"/><g class="label" style="color:#c9d1d9 !important" transform="translate(-79.6875, -40.78125)"><rect/><foreignObject width="159.375" height="81.5625"><div style="color: rgb(201, 209, 217) !important; display: table-cell; white-space: nowrap; line-height: 1.5; max-width: 200px; text-align: center;" xmlns="http://www.w3.org/1999/xhtml"><span style="color:#c9d1d9 !important" class="nodeLabel"><p></p><div style="text-align:center;line-height:1.7">PACKAGE GATE<br />5 risk signals<br /><small style="color:#6e7681">npm · pip · Levenshtein ≤ 2</small></div><p></p></span></div></foreignObject></g></g><g class="node default step" id="my-svg-flowchart-egress-8" data-look="neo" transform="translate(163.5, 271.9375)"><rect class="basic label-container" style="fill:#0a1628 !important;stroke:#1e3a5f !important;stroke-width:1px !important;rx:6 !important;ry:6 !important" x="-116" y="-66.375" width="232" height="132.75"/><g class="label" style="color:#c9d1d9 !important" transform="translate(-100, -54.375)"><rect/><foreignObject width="200" height="108.75"><div style="color: rgb(201, 209, 217) !important; display: table; white-space: break-spaces; line-height: 1.5; max-width: 200px; text-align: center; width: 200px;" xmlns="http://www.w3.org/1999/xhtml"><span style="color:#c9d1d9 !important" class="nodeLabel"><p></p><div style="text-align:center;line-height:1.7">EGRESS<br />MONITOR<br /><small style="color:#6e7681">WebFetch + Bash-net dest NDJSON</small></div><p></p></span></div></foreignObject></g></g><g class="node default step" id="my-svg-flowchart-canaryNode-9" data-look="neo" transform="translate(163.5, 435.09375)"><rect class="basic label-container" style="fill:#0a1628 !important;stroke:#1e3a5f !important;stroke-width:1px !important;rx:6 !important;ry:6 !important" x="-108.5390625" y="-52.78125" width="217.078125" height="105.5625"/><g class="label" style="color:#c9d1d9 !important" transform="translate(-92.5390625, -40.78125)"><rect/><foreignObject width="185.078125" height="81.5625"><div style="color: rgb(201, 209, 217) !important; display: table-cell; white-space: nowrap; line-height: 1.5; max-width: 200px; text-align: center;" xmlns="http://www.w3.org/1999/xhtml"><span style="color:#c9d1d9 !important" class="nodeLabel"><p></p><div style="text-align:center;line-height:1.7">PROMPT CANARY<br />seed + scan<br /><small style="color:#6e7681">per-session token + leak detect</small></div><p></p></span></div></foreignObject></g></g><g class="node default step" id="my-svg-flowchart-fence-10" data-look="neo" transform="translate(163.5, 584.65625)"><rect class="basic label-container" style="fill:#0a1628 !important;stroke:#1e3a5f !important;stroke-width:1px !important;rx:6 !important;ry:6 !important" x="-95.4375" y="-52.78125" width="190.875" height="105.5625"/><g class="label" style="color:#c9d1d9 !important" transform="translate(-79.4375, -40.78125)"><rect/><foreignObject width="158.875" height="81.5625"><div style="color: rgb(201, 209, 217) !important; display: table-cell; white-space: nowrap; line-height: 1.5; max-width: 200px; text-align: center;" xmlns="http://www.w3.org/1999/xhtml"><span style="color:#c9d1d9 !important" class="nodeLabel"><p></p><div style="text-align:center;line-height:1.7">CAPABILITY<br />FENCE<br /><small style="color:#6e7681">tool ∉ allowed-tools ⇒ flag</small></div><p></p></span></div></foreignObject></g></g></g></g><g class="root" transform="translate(545.328125, 1020.265625)"><g class="clusters"><g class="cluster" id="my-svg-Post" data-look="neo"><rect style="fill:#0f1d33 !important;stroke:#3fb950 !important;stroke-width:2px !important;rx:12 !important;ry:12 !important" x="-290.5" y="-8" width="908" height="378.3125"/><g class="cluster-label" transform="translate(-286.5, 6)"><foreignObject width="900" height="54"><div xmlns="http://www.w3.org/1999/xhtml" style="display: table-cell; white-space: nowrap; line-height: 1.5;"><span class="nodeLabel" style="color:#e6edf3 !important"><p></p><div style="text-align:center;min-width:900px;line-height:2"><div><span style="font-family:ui-monospace,monospace;color:&amp;8b949e;font-size:11px;letter-spacing:3px">PLUGIN 03·04 · PostToolUse / Write·Edit</span>  ·  <b style="letter-spacing:2px">SECRET-SCANNER + VULN-DETECTOR</b></div><div style="color:&amp;6e7681;font-size:11px;font-family:ui-monospace,monospace;letter-spacing:1.2px">R1·R2·R3 · 1,434 patterns · τ &lt; 50ms/file</div></div><p></p></span></div></foreignObject></g></g></g><g class="edgePaths"/><g class="edgeLabels"/><g class="nodes"><g class="node default step" id="my-svg-flowchart-secrets-5" data-look="neo" transform="translate(163.5, 108.78125)"><rect class="basic label-container" style="fill:#0a1628 !important;stroke:#1e3a5f !important;stroke-width:1px !important;rx:6 !important;ry:6 !important" x="-102.8046875" y="-52.78125" width="205.609375" height="105.5625"/><g class="label" style="color:#c9d1d9 !important" transform="translate(-86.8046875, -40.78125)"><rect/><foreignObject width="173.609375" height="81.5625"><div style="color: rgb(201, 209, 217) !important; display: table-cell; white-space: nowrap; line-height: 1.5; max-width: 200px; text-align: center;" xmlns="http://www.w3.org/1999/xhtml"><span style="color:#c9d1d9 !important" class="nodeLabel"><p></p><div style="text-align:center;line-height:1.7">AHO-CORASICK<br />+ SHANNON ENTROPY<br /><small style="color:#6e7681">R1 · O(|T|+|P|+z) · R2 · H &gt; 4.5</small></div><p></p></span></div></foreignObject></g></g><g class="node default step" id="my-svg-flowchart-vulns-6" data-look="neo" transform="translate(163.5, 271.9375)"><rect class="basic label-container" style="fill:#0a1628 !important;stroke:#1e3a5f !important;stroke-width:1px !important;rx:6 !important;ry:6 !important" x="-116" y="-66.375" width="232" height="132.75"/><g class="label" style="color:#c9d1d9 !important" transform="translate(-100, -54.375)"><rect/><foreignObject width="200" height="108.75"><div style="color: rgb(201, 209, 217) !important; display: table; white-space: break-spaces; line-height: 1.5; max-width: 200px; text-align: center; width: 200px;" xmlns="http://www.w3.org/1999/xhtml"><span style="color:#c9d1d9 !important" class="nodeLabel"><p></p><div style="text-align:center;line-height:1.7">OWASP<br />VULNERABILITY GRAPH<br /><small style="color:#6e7681">R3 · CWE-mapped · language-aware</small></div><p></p></span></div></foreignObject></g></g></g></g><g class="root" transform="translate(546.5234375, 615.140625)"><g class="clusters"><g class="cluster" id="my-svg-Pre" data-look="neo"><rect style="fill:#0f1d33 !important;stroke:#d75952 !important;stroke-width:2px !important;rx:12 !important;ry:12 !important" x="-291.6953125" y="-8" width="908" height="351.125"/><g class="cluster-label" transform="translate(-287.6953125, 6)"><foreignObject width="900" height="54"><div xmlns="http://www.w3.org/1999/xhtml" style="display: table-cell; white-space: nowrap; line-height: 1.5;"><span class="nodeLabel" style="color:#e6edf3 !important"><p></p><div style="text-align:center;min-width:900px;line-height:2"><div><span style="font-family:ui-monospace,monospace;color:&amp;8b949e;font-size:11px;letter-spacing:3px">PLUGIN 02 · PreToolUse / Bash</span>  ·  <b style="letter-spacing:2px">ACTION-GUARD</b></div><div style="color:&amp;6e7681;font-size:11px;font-family:ui-monospace,monospace;letter-spacing:1.2px">R4 · R7 · 105 dangerous-op patterns · advisory exit 0</div></div><p></p></span></div></foreignObject></g></g></g><g class="edgePaths"/><g class="edgeLabels"/><g class="nodes"><g class="node default step" id="my-svg-flowchart-guard-3" data-look="neo" transform="translate(162.3046875, 108.78125)"><rect class="basic label-container" style="fill:#0a1628 !important;stroke:#1e3a5f !important;stroke-width:1px !important;rx:6 !important;ry:6 !important" x="-114.8046875" y="-52.78125" width="229.609375" height="105.5625"/><g class="label" style="color:#c9d1d9 !important" transform="translate(-98.8046875, -40.78125)"><rect/><foreignObject width="197.609375" height="81.5625"><div style="color: rgb(201, 209, 217) !important; display: table-cell; white-space: nowrap; line-height: 1.5; max-width: 200px; text-align: center;" xmlns="http://www.w3.org/1999/xhtml"><span style="color:#c9d1d9 !important" class="nodeLabel"><p></p><div style="text-align:center;line-height:1.7">MARKOV ACTION<br />CLASSIFICATION<br /><small style="color:#6e7681">Class(cmd) ∈ {SAFE, WARN, FLAG}</small></div><p></p></span></div></foreignObject></g></g><g class="node default step" id="my-svg-flowchart-overflow-4" data-look="neo" transform="translate(162.3046875, 258.34375)"><rect class="basic label-container" style="fill:#0a1628 !important;stroke:#1e3a5f !important;stroke-width:1px !important;rx:6 !important;ry:6 !important" x="-95.546875" y="-52.78125" width="191.09375" height="105.5625"/><g class="label" style="color:#c9d1d9 !important" transform="translate(-79.546875, -40.78125)"><rect/><foreignObject width="159.09375" height="81.5625"><div style="color: rgb(201, 209, 217) !important; display: table-cell; white-space: nowrap; line-height: 1.5; max-width: 200px; text-align: center;" xmlns="http://www.w3.org/1999/xhtml"><span style="color:#c9d1d9 !important" class="nodeLabel"><p></p><div style="text-align:center;line-height:1.7">SUBCOMMAND<br />OVERFLOW ADVISORY<br /><small style="color:#6e7681">FLAG iff |split(cmd)| &gt; 50</small></div><p></p></span></div></foreignObject></g></g></g></g><g class="root" transform="translate(545.328125, 332.390625)"><g class="clusters"><g class="cluster" id="my-svg-SS" data-look="neo"><rect style="fill:#0f1d33 !important;stroke:#bc8cff !important;stroke-width:2px !important;rx:12 !important;ry:12 !important" x="-290.5" y="-8" width="908" height="228.75"/><g class="cluster-label" transform="translate(-286.5, 6)"><foreignObject width="900" height="54"><div xmlns="http://www.w3.org/1999/xhtml" style="display: table-cell; white-space: nowrap; line-height: 1.5;"><span class="nodeLabel" style="color:#e6edf3 !important"><p></p><div style="text-align:center;min-width:900px;line-height:2"><div><span style="font-family:ui-monospace,monospace;color:&amp;8b949e;font-size:11px;letter-spacing:3px">PLUGIN 01 · SessionStart</span>  ·  <b style="letter-spacing:2px">CONFIG-SHIELD</b></div><div style="color:&amp;6e7681;font-size:11px;font-family:ui-monospace,monospace;letter-spacing:1.2px">R5 · 117 signatures · 6 CVEs · τ ≈ ~80ms</div></div><p></p></span></div></foreignObject></g></g></g><g class="edgePaths"/><g class="edgeLabels"/><g class="nodes"><g class="node default step" id="my-svg-flowchart-config-2" data-look="neo" transform="translate(163.5, 122.375)"><rect class="basic label-container" style="fill:#0a1628 !important;stroke:#1e3a5f !important;stroke-width:1px !important;rx:6 !important;ry:6 !important" x="-116" y="-66.375" width="232" height="132.75"/><g class="label" style="color:#c9d1d9 !important" transform="translate(-100, -54.375)"><rect/><foreignObject width="200" height="108.75"><div style="color: rgb(201, 209, 217) !important; display: table; white-space: break-spaces; line-height: 1.5; max-width: 200px; text-align: center; width: 200px;" xmlns="http://www.w3.org/1999/xhtml"><span style="color:#c9d1d9 !important" class="nodeLabel"><p></p><div style="text-align:center;line-height:1.7">CONFIG POISONING<br />DETECTION<br /><small style="color:#6e7681">Poisoned(c) ⇔ ∃ s ∈ S_CVE : match(s, c)</small></div><p></p></span></div></foreignObject></g></g></g></g><g class="node default titleBlock" id="my-svg-flowchart-TitleBlock-0" data-look="neo" transform="translate(708.828125, 75.3984375)"><rect class="basic label-container" style="fill:#06111f !important;stroke:#1e3a5f !important;stroke-width:1px !important;rx:4 !important;ry:4 !important" x="-476" y="-51.3984375" width="952" height="102.796875"/><g class="label" style="color:#e6edf3 !important" transform="translate(-460, -39.3984375)"><rect/><foreignObject width="920" height="78.796875"><div style="color: rgb(230, 237, 243) !important; display: table; white-space: break-spaces; line-height: 1.5; max-width: 200px; text-align: center; width: 200px;" xmlns="http://www.w3.org/1999/xhtml"><span style="color:#e6edf3 !important" class="nodeLabel"><p></p><div style="font-family:ui-monospace,SFMono-Regular,Consolas,monospace;text-align:center;min-width:900px;padding:6px 10px;line-height:1.8"><div style="color:&amp;58a6ff;font-size:15px;letter-spacing:6px;border-bottom:1px solid &amp;1e3a5f;padding-bottom:10px;margin-bottom:10px">HYDRA  ·  DEFENSE LAYERS  ·  ARCHITECTURE</div><div style="display:flex;gap:40px;justify-content:center;font-size:11px;color:&amp;8b949e;letter-spacing:2px"><span>DWG  <b style="color:#e6edf3">HYD-001</b></span><span>REV  <b style="color:#e6edf3">B.1</b></span><span>SCALE  <b style="color:#e6edf3">1:1</b></span><span>PLUGINS  <b style="color:#e6edf3">n = 11</b></span><span>SHEET  <b style="color:#e6edf3">01 / 01</b></span></div></div><p></p></span></div></foreignObject></g></g><g class="node default userNode" id="my-svg-flowchart-User-1" data-look="neo" transform="translate(708.828125, 225.59375)"><g class="basic label-container outer-path"><path d="M-109.10546875 -44.796875 C-63.23585531036341 -44.796875, -17.366241870726824 -44.796875, 109.10546875 -44.796875 C109.10546875 -44.796875, 109.10546875 -44.796875, 109.10546875 -44.796875 C109.8744309454848 -44.77221587908492, 110.64339314096961 -44.747556758169836, 111.97561438569849 -44.70483501586272 C113.11675269038246 -44.594750776029464, 114.2578909950664 -44.48466653619621, 114.8339659773356 -44.42909327548823 C115.8290907587635 -44.268209218134906, 116.8242155401914 -44.10732516078158, 117.66877794510678 -43.970782860834134 C118.66458747656102 -43.74349583354419, 119.66039700801527 -43.51620880625424, 120.4684014385712 -43.33178706770152 C121.4079500185706 -43.052933980948836, 122.34749859857001 -42.77408089419615, 123.22133220427688 -42.51473166686855 C123.91419190536963 -42.25975289214155, 124.60705160646238 -42.00477411741455, 125.91625785920571 -41.52297411423507 C126.91814831146601 -41.07946693104375, 127.9200387637263 -40.63595974785243, 128.54210437578186 -40.36058975431618 C129.41998779222553 -39.90259853826868, 130.29787120866922 -39.444607322221174, 131.0880815874264 -39.03235507377747 C132.06018742549892 -38.44305880200988, 133.0322932635715 -37.8537625302423, 133.5437275276663 -37.54372807382668 C134.2385755194131 -37.059032194268866, 134.93342351115993 -36.574336314711054, 135.89895142059868 -35.90082584211612 C136.51506181538187 -35.4094941976627, 137.13117221016503 -34.91816255320929, 138.14407514605358 -34.11039941631732 C138.57118706800864 -33.72250766955994, 138.99829898996367 -33.334615922802556, 140.26987300906555 -32.17980604265914 C140.7062110658988 -31.72925117495811, 141.14254912273205 -31.27869630725709, 142.26760965023328 -30.116978943424936 C142.744396922043 -29.556917483992933, 143.22118419385268 -28.996856024560927, 144.12907594118502 -27.930394717640457 C144.73400163384497 -27.11984939934044, 145.33892732650492 -26.309304081040423, 145.846622717648 -25.62903850891033 C146.37667555652305 -24.81473500928164, 146.90672839539812 -24.00043150965295, 147.4131922115051 -23.222367083535556 C147.9180085474295 -22.326014560904703, 148.4228248833539 -21.429662038273854, 148.822347052678 -20.720269970632415 C149.245573279523 -19.84143165499817, 149.668799506368 -18.962593339363924, 150.06829672166145 -18.133028823935998 C150.44665670984324 -17.19847233803427, 150.82501669802502 -16.26391585213255, 151.14592134401036 -15.471275172279537 C151.3653914005587 -14.810266329760688, 151.58486145710708 -14.14925748724184, 152.05079272900167 -12.745946732362045 C152.2811391687416 -11.86753592485525, 152.51148560848148 -10.989125117348458, 152.77919256602013 -9.968242463324277 C152.95011357691993 -9.090599196522284, 153.1210345878197 -8.21295592972029, 153.32812770389418 -7.149576547823426 C153.44089727835558 -6.274957997172184, 153.55366685281695 -5.400339446520941, 153.6953424503961 -4.301531488708189 C153.758061253456 -3.324635505343811, 153.82078005651587 -2.347739521979433, 153.87932784136518 -1.43581051403024 C153.87932784136518 -0.3530426436510563, 153.87932784136518 0.7297252267281273, 153.87932784136518 1.435810514030229 C153.84062553394293 2.0386301920720276, 153.8019232265207 2.641449870113826, 153.6953424503961 4.301531488708159 C153.56684022934257 5.298169339565781, 153.43833800828904 6.294807190423403, 153.3281277038942 7.149576547823395 C153.11630295674794 8.23725185524323, 152.9044782096017 9.324927162663062, 152.77919256602013 9.968242463324266 C152.6206728305728 10.572746917472829, 152.4621530951255 11.177251371621391, 152.05079272900167 12.745946732362015 C151.80360100671285 13.49044881524352, 151.55640928442403 14.234950898125023, 151.14592134401036 15.471275172279507 C150.75091020588897 16.446960320460175, 150.35589906776758 17.422645468640845, 150.06829672166148 18.133028823935984 C149.63982228675562 19.02276515590225, 149.21134785184975 19.912501487868514, 148.822347052678 20.72026997063241 C148.47161555505832 21.343029260071457, 148.12088405743862 21.965788549510506, 147.41319221150513 23.22236708353555 C146.8228420320285 24.1293034904313, 146.23249185255187 25.036239897327054, 145.84662271764802 25.629038508910305 C145.46172126201103 26.144771394219887, 145.07681980637406 26.660504279529473, 144.12907594118502 27.930394717640446 C143.70203756172597 28.432018297325193, 143.27499918226695 28.93364187700994, 142.26760965023328 30.11697894342491 C141.65666975589207 30.747824543430387, 141.04572986155083 31.378670143435865, 140.26987300906558 32.17980604265913 C139.64014434639842 32.75170895238605, 139.01041568373128 33.32361186211298, 138.1440751460536 34.11039941631729 C137.62742240599542 34.52241622780687, 137.11076966593726 34.93443303929646, 135.8989514205987 35.90082584211611 C135.27482975487385 36.336186098334316, 134.650708089149 36.77154635455251, 133.5437275276663 37.543728073826664 C133.00415881714582 37.870817797001884, 132.46459010662534 38.197907520177104, 131.08808158742642 39.03235507377746 C130.5704769560588 39.30238907842036, 130.05287232469115 39.57242308306326, 128.54210437578186 40.36058975431618 C127.73187640138303 40.71925364402363, 126.92164842698419 41.07791753373109, 125.91625785920573 41.52297411423506 C124.90622981055196 41.89467377273658, 123.89620176189818 42.2663734312381, 123.2213322042769 42.514731666868535 C122.47856982709952 42.735179641575506, 121.73580744992213 42.95562761628248, 120.46840143857125 43.33178706770151 C119.8889676414114 43.464039050744354, 119.30953384425153 43.596291033787196, 117.6687779451068 43.97078286083413 C117.07545081812883 44.066707389403334, 116.48212369115085 44.16263191797255, 114.83396597733562 44.42909327548823 C113.72239046228339 44.53632562856017, 112.61081494723115 44.64355798163211, 111.97561438569849 44.70483501586272 C111.00505133350802 44.735959083860095, 110.03448828131756 44.76708315185746, 109.10546875000001 44.796875 C109.10546875000001 44.796875, 109.10546875 44.796875, 109.10546875 44.796875 C44.66284910069511 44.796875, -19.779770548609775 44.796875, -109.10546874999999 44.796875 C-109.94041934518701 44.7700997595451, -110.77536994037405 44.74332451909019, -111.97561438569848 44.70483501586272 C-112.69821703507453 44.63512640733425, -113.42081968445059 44.565417798805775, -114.83396597733561 44.42909327548823 C-115.69065799279934 44.29058995417385, -116.54735000826308 44.15208663285948, -117.66877794510678 43.97078286083413 C-118.3113113469782 43.82412880477927, -118.95384474884962 43.677474748724414, -120.46840143857119 43.33178706770152 C-121.07703042523212 43.1511491792193, -121.68565941189306 42.970511290737086, -123.22133220427686 42.514731666868556 C-123.79601752305227 42.30324215722635, -124.3707028418277 42.091752647584144, -125.91625785920571 41.52297411423507 C-126.53060075816431 41.251022736700705, -127.14494365712291 40.97907135916634, -128.54210437578186 40.36058975431619 C-129.51273750421893 39.85421107293075, -130.48337063265603 39.34783239154531, -131.0880815874264 39.03235507377747 C-131.96592693194543 38.50020006713816, -132.84377227646448 37.96804506049886, -133.54372752766628 37.54372807382669 C-134.2691161683939 37.03772835962326, -134.9945048091215 36.531728645419825, -135.89895142059868 35.90082584211613 C-136.40953597459867 35.493648247526735, -136.9201205285987 35.086470652937344, -138.14407514605358 34.11039941631733 C-138.9775546477799 33.353455385508646, -139.8110341495062 32.596511354699956, -140.26987300906552 32.17980604265916 C-140.90285701537852 31.52619808718758, -141.53584102169154 30.872590131716, -142.26760965023328 30.116978943424925 C-142.83221082396008 29.453766278048523, -143.39681199768688 28.79055361267212, -144.12907594118502 27.93039471764046 C-144.55557658222926 27.358922713648898, -144.9820772232735 26.78745070965733, -145.846622717648 25.629038508910334 C-146.3826604694987 24.805540575776906, -146.9186982213494 23.982042642643478, -147.4131922115051 23.222367083535577 C-147.86918127291827 22.412712331097097, -148.32517033433143 21.603057578658614, -148.82234705267797 20.720269970632422 C-149.26415852699446 19.802838990963043, -149.70597000131096 18.88540801129366, -150.06829672166145 18.133028823936 C-150.43614266736577 17.22444222622883, -150.80398861307006 16.31585562852166, -151.14592134401036 15.471275172279542 C-151.36461400330998 14.812607726412418, -151.58330666260963 14.153940280545294, -152.05079272900167 12.745946732362032 C-152.30115202220347 11.791218240979488, -152.55151131540526 10.836489749596941, -152.77919256602013 9.968242463324282 C-152.92889235778176 9.199565671690499, -153.0785921495434 8.430888880056715, -153.32812770389418 7.149576547823432 C-153.4195080830831 6.440848371931126, -153.51088846227202 5.73212019603882, -153.6953424503961 4.301531488708215 C-153.75442995068292 3.381195977169579, -153.8135174509697 2.460860465630943, -153.87932784136518 1.4358105140302455 C-153.87932784136518 0.3734335012240735, -153.87932784136518 -0.6889435115820985, -153.87932784136518 -1.4358105140302238 C-153.81120500493373 -2.496878679213867, -153.7430821685023 -3.55794684439751, -153.6953424503961 -4.301531488708154 C-153.60136072858182 -5.0304351643098, -153.5073790067675 -5.759338839911447, -153.3281277038942 -7.14957654782341 C-153.1152859839 -8.242473795880173, -152.9024442639058 -9.335371043936934, -152.77919256602013 -9.96824246332426 C-152.53730409243747 -10.890668048222544, -152.29541561885483 -11.813093633120825, -152.05079272900167 -12.74594673236201 C-151.75993512881374 -13.621963482262835, -151.4690775286258 -14.49798023216366, -151.1459213440104 -15.471275172279483 C-150.8193654345387 -16.277874582203598, -150.49280952506697 -17.084473992127712, -150.06829672166148 -18.13302882393598 C-149.57708004627446 -19.153050760730245, -149.08586337088744 -20.17307269752451, -148.822347052678 -20.7202699706324 C-148.31381439698993 -21.623221195321808, -147.80528174130188 -22.526172420011214, -147.4131922115051 -23.222367083535563 C-146.96549084501575 -23.91015660711317, -146.5177894785264 -24.597946130690776, -145.84662271764802 -25.62903850891032 C-145.42210431240198 -26.19785449751766, -144.99758590715598 -26.766670486125, -144.12907594118502 -27.930394717640446 C-143.5435605824935 -28.618174374727214, -142.95804522380203 -29.305954031813982, -142.26760965023328 -30.11697894342491 C-141.75419124835778 -30.647125595796094, -141.24077284648226 -31.177272248167277, -140.26987300906558 -32.179806042659116 C-139.73047372841765 -32.66967419762066, -139.19107444776972 -33.15954235258221, -138.1440751460536 -34.110399416317286 C-137.43413535214657 -34.67655750966681, -136.72419555823953 -35.24271560301633, -135.8989514205987 -35.900825842116106 C-135.31636953838102 -36.307209743587954, -134.73378765616334 -36.713593645059795, -133.54372752766633 -37.54372807382666 C-132.72528954590769 -38.039869988044195, -131.90685156414904 -38.53601190226174, -131.08808158742642 -39.03235507377745 C-130.4704816578075 -39.354556561468, -129.85288172818863 -39.67675804915854, -128.5421043757819 -40.36058975431618 C-127.82786180106802 -40.67676375488881, -127.11361922635416 -40.99293775546143, -125.91625785920573 -41.522974114235055 C-125.08957921610056 -41.827199496631366, -124.26290057299539 -42.131424879027676, -123.22133220427692 -42.514731666868535 C-122.4695607734448 -42.73785348141074, -121.71778934261269 -42.96097529595295, -120.46840143857126 -43.331787067701505 C-119.89016877206049 -43.463764900511805, -119.31193610554972 -43.595742733322105, -117.66877794510681 -43.97078286083413 C-116.89890756026195 -44.09524953422184, -116.1290371754171 -44.21971620760956, -114.83396597733564 -44.42909327548823 C-114.21420055816041 -44.488881300099095, -113.59443513898519 -44.548669324709955, -111.9756143856985 -44.70483501586272 C-110.99264001295101 -44.73635709075319, -110.00966564020352 -44.76787916564365, -109.10546875000001 -44.796875 C-109.10546875000001 -44.796875, -109.10546875000001 -44.796875, -109.10546875 -44.796875" stroke="none" stroke-width="0" fill="#0a1628" style="fill:#0a1628 !important;stroke:#1e3a5f !important;stroke-width:1.5px !important;rx:10 !important;ry:10 !important"/><path d="M-109.10546875 -44.796875 C-44.976637117299305 -44.796875, 19.15219451540139 -44.796875, 109.10546875 -44.796875 M-109.10546875 -44.796875 C-43.947124868573624 -44.796875, 21.21121901285275 -44.796875, 109.10546875 -44.796875 M109.10546875 -44.796875 C109.10546875 -44.796875, 109.10546875 -44.796875, 109.10546875 -44.796875 M109.10546875 -44.796875 C109.10546875 -44.796875, 109.10546875 -44.796875, 109.10546875 -44.796875 M109.10546875 -44.796875 C109.96498142639767 -44.76931210140786, 110.82449410279533 -44.74174920281572, 111.97561438569849 -44.70483501586272 M109.10546875 -44.796875 C109.95447157722528 -44.76964913181464, 110.80347440445055 -44.74242326362928, 111.97561438569849 -44.70483501586272 M111.97561438569849 -44.70483501586272 C112.84435292251194 -44.62102885402728, 113.7130914593254 -44.53722269219184, 114.8339659773356 -44.42909327548823 M111.97561438569849 -44.70483501586272 C112.74798410973139 -44.63032543749576, 113.52035383376429 -44.555815859128806, 114.8339659773356 -44.42909327548823 M114.8339659773356 -44.42909327548823 C115.5750582846204 -44.3092792185031, 116.3161505919052 -44.18946516151797, 117.66877794510678 -43.970782860834134 M114.8339659773356 -44.42909327548823 C115.65090413631478 -44.29701704939452, 116.46784229529398 -44.1649408233008, 117.66877794510678 -43.970782860834134 M117.66877794510678 -43.970782860834134 C118.71450623289424 -43.73210220316146, 119.76023452068169 -43.493421545488786, 120.4684014385712 -43.33178706770152 M117.66877794510678 -43.970782860834134 C118.23539822141929 -43.84145548030866, 118.80201849773181 -43.712128099783186, 120.4684014385712 -43.33178706770152 M120.4684014385712 -43.33178706770152 C121.3874758410742 -43.059010609358616, 122.30655024357719 -42.78623415101571, 123.22133220427688 -42.51473166686855 M120.4684014385712 -43.33178706770152 C121.34825069196835 -43.070652427716226, 122.22809994536547 -42.80951778773093, 123.22133220427688 -42.51473166686855 M123.22133220427688 -42.51473166686855 C123.82238654915189 -42.29353811186909, 124.42344089402688 -42.07234455686963, 125.91625785920571 -41.52297411423507 M123.22133220427688 -42.51473166686855 C123.90253408903446 -42.26404307631656, 124.58373597379206 -42.01335448576457, 125.91625785920571 -41.52297411423507 M125.91625785920571 -41.52297411423507 C126.6380431059128 -41.20346119651645, 127.3598283526199 -40.88394827879783, 128.54210437578186 -40.36058975431618 M125.91625785920571 -41.52297411423507 C126.76410308022818 -41.14765818532331, 127.61194830125066 -40.77234225641154, 128.54210437578186 -40.36058975431618 M128.54210437578186 -40.36058975431618 C129.36736160785114 -39.93005358494812, 130.19261883992044 -39.49951741558006, 131.0880815874264 -39.03235507377747 M128.54210437578186 -40.36058975431618 C129.52994777981016 -39.84523248317852, 130.51779118383843 -39.32987521204087, 131.0880815874264 -39.03235507377747 M131.0880815874264 -39.03235507377747 C131.59598073662033 -38.724463624789394, 132.1038798858143 -38.41657217580131, 133.5437275276663 -37.54372807382668 M131.0880815874264 -39.03235507377747 C131.5990278412448 -38.72261645205926, 132.10997409506325 -38.41287783034106, 133.5437275276663 -37.54372807382668 M133.5437275276663 -37.54372807382668 C134.39382284810247 -36.95073837832371, 135.24391816853864 -36.35774868282075, 135.89895142059868 -35.90082584211612 M133.5437275276663 -37.54372807382668 C134.3276340218861 -36.996908838224144, 135.1115405161059 -36.45008960262162, 135.89895142059868 -35.90082584211612 M135.89895142059868 -35.90082584211612 C136.69438288411544 -35.26649041728173, 137.48981434763218 -34.63215499244733, 138.14407514605358 -34.11039941631732 M135.89895142059868 -35.90082584211612 C136.53884432811705 -35.390528276635635, 137.17873723563542 -34.88023071115514, 138.14407514605358 -34.11039941631732 M138.14407514605358 -34.11039941631732 C138.97403617368113 -33.35665077059142, 139.80399720130868 -32.60290212486552, 140.26987300906555 -32.17980604265914 M138.14407514605358 -34.11039941631732 C138.6306936374902 -33.66846537761434, 139.11731212892678 -33.22653133891135, 140.26987300906555 -32.17980604265914 M140.26987300906555 -32.17980604265914 C140.89808756135204 -31.531122940049393, 141.52630211363854 -30.882439837439648, 142.26760965023328 -30.116978943424936 M140.26987300906555 -32.17980604265914 C140.67489350972352 -31.76158912292828, 141.07991401038146 -31.343372203197426, 142.26760965023328 -30.116978943424936 M142.26760965023328 -30.116978943424936 C142.89853501681452 -29.375858107168217, 143.5294603833958 -28.634737270911497, 144.12907594118502 -27.930394717640457 M142.26760965023328 -30.116978943424936 C142.87754113545714 -29.400518714796313, 143.48747262068096 -28.684058486167693, 144.12907594118502 -27.930394717640457 M144.12907594118502 -27.930394717640457 C144.6692539254511 -27.206605429950656, 145.20943190971715 -26.482816142260855, 145.846622717648 -25.62903850891033 M144.12907594118502 -27.930394717640457 C144.73671045250097 -27.116219829119853, 145.34434496381692 -26.302044940599245, 145.846622717648 -25.62903850891033 M145.846622717648 -25.62903850891033 C146.3189518876431 -24.903414065656705, 146.79128105763817 -24.17778962240308, 147.4131922115051 -23.222367083535556 M145.846622717648 -25.62903850891033 C146.30604056900444 -24.92324931826016, 146.76545842036091 -24.21746012760999, 147.4131922115051 -23.222367083535556 M147.4131922115051 -23.222367083535556 C147.810473999172 -22.516953040389733, 148.20775578683885 -21.81153899724391, 148.822347052678 -20.720269970632415 M147.4131922115051 -23.222367083535556 C147.86127206836912 -22.42675592466793, 148.30935192523313 -21.631144765800304, 148.822347052678 -20.720269970632415 M148.822347052678 -20.720269970632415 C149.31117875305478 -19.705200485477192, 149.80001045343155 -18.69013100032197, 150.06829672166145 -18.133028823935998 M148.822347052678 -20.720269970632415 C149.14887009716938 -20.042237882272087, 149.4753931416608 -19.36420579391176, 150.06829672166145 -18.133028823935998 M150.06829672166145 -18.133028823935998 C150.4480381345596 -17.195060192276824, 150.82777954745777 -16.257091560617653, 151.14592134401036 -15.471275172279537 M150.06829672166145 -18.133028823935998 C150.49087756745394 -17.089245964783718, 150.91345841324645 -16.045463105631438, 151.14592134401036 -15.471275172279537 M151.14592134401036 -15.471275172279537 C151.3693803448234 -14.798252265187422, 151.59283934563643 -14.125229358095305, 152.05079272900167 -12.745946732362045 M151.14592134401036 -15.471275172279537 C151.41777151455267 -14.652505772048691, 151.68962168509498 -13.833736371817844, 152.05079272900167 -12.745946732362045 M152.05079272900167 -12.745946732362045 C152.256476277564 -11.96158621788011, 152.46215982612628 -11.177225703398175, 152.77919256602013 -9.968242463324277 M152.05079272900167 -12.745946732362045 C152.26339518118075 -11.935201439717488, 152.47599763335987 -11.124456147072934, 152.77919256602013 -9.968242463324277 M152.77919256602013 -9.968242463324277 C152.89352293032022 -9.38118020637439, 153.0078532946203 -8.794117949424505, 153.32812770389418 -7.149576547823426 M152.77919256602013 -9.968242463324277 C152.97723610223468 -8.951330761378724, 153.17527963844924 -7.934419059433173, 153.32812770389418 -7.149576547823426 M153.32812770389418 -7.149576547823426 C153.42611794156446 -6.389583614813941, 153.52410817923473 -5.629590681804456, 153.6953424503961 -4.301531488708189 M153.32812770389418 -7.149576547823426 C153.4336903677172 -6.330853372918064, 153.53925303154017 -5.5121301980127, 153.6953424503961 -4.301531488708189 M153.6953424503961 -4.301531488708189 C153.76660060410336 -3.1916282261712867, 153.8378587578106 -2.0817249636343838, 153.87932784136518 -1.43581051403024 M153.6953424503961 -4.301531488708189 C153.74190310078345 -3.576311775844888, 153.78846375117078 -2.8510920629815866, 153.87932784136518 -1.43581051403024 M153.87932784136518 -1.43581051403024 C153.87932784136518 -0.7954026868311073, 153.87932784136518 -0.15499485963197457, 153.87932784136518 1.435810514030229 M153.87932784136518 -1.43581051403024 C153.87932784136518 -0.42947488562573266, 153.87932784136518 0.5768607427787746, 153.87932784136518 1.435810514030229 M153.87932784136518 1.435810514030229 C153.80878976980526 2.534497915882725, 153.73825169824534 3.633185317735222, 153.6953424503961 4.301531488708159 M153.87932784136518 1.435810514030229 C153.8079536539113 2.547521095831498, 153.73657946645744 3.659231677632767, 153.6953424503961 4.301531488708159 M153.6953424503961 4.301531488708159 C153.56308371322694 5.327304136750453, 153.4308249760578 6.353076784792745, 153.3281277038942 7.149576547823395 M153.6953424503961 4.301531488708159 C153.5961433179481 5.0709003708905795, 153.4969441855001 5.840269253073, 153.3281277038942 7.149576547823395 M153.3281277038942 7.149576547823395 C153.11569199191538 8.240389030531071, 152.90325627993653 9.331201513238748, 152.77919256602013 9.968242463324266 M153.3281277038942 7.149576547823395 C153.19034373993733 7.857068082090923, 153.05255977598043 8.564559616358451, 152.77919256602013 9.968242463324266 M152.77919256602013 9.968242463324266 C152.49641680651735 11.046588990097773, 152.2136410470146 12.124935516871277, 152.05079272900167 12.745946732362015 M152.77919256602013 9.968242463324266 C152.49651494550855 11.046214743590678, 152.21383732499694 12.12418702385709, 152.05079272900167 12.745946732362015 M152.05079272900167 12.745946732362015 C151.74691622172125 13.6611743561442, 151.44303971444086 14.576401979926384, 151.14592134401036 15.471275172279507 M152.05079272900167 12.745946732362015 C151.75379714790395 13.640450102808632, 151.45680156680623 14.53495347325525, 151.14592134401036 15.471275172279507 M151.14592134401036 15.471275172279507 C150.84427811552166 16.216339778521682, 150.54263488703296 16.96140438476386, 150.06829672166148 18.133028823935984 M151.14592134401036 15.471275172279507 C150.81469478091077 16.289411186965477, 150.48346821781115 17.107547201651446, 150.06829672166148 18.133028823935984 M150.06829672166148 18.133028823935984 C149.7675282941237 18.75758089913161, 149.4667598665859 19.382132974327238, 148.822347052678 20.72026997063241 M150.06829672166148 18.133028823935984 C149.7413669712339 18.811905445874924, 149.4144372208063 19.490782067813868, 148.822347052678 20.72026997063241 M148.822347052678 20.72026997063241 C148.38301447424678 21.500349450884617, 147.9436818958156 22.28042893113683, 147.41319221150513 23.22236708353555 M148.822347052678 20.72026997063241 C148.4084059177168 21.45526437184116, 147.9944647827556 22.19025877304991, 147.41319221150513 23.22236708353555 M147.41319221150513 23.22236708353555 C146.99924247313493 23.85830504274093, 146.58529273476475 24.49424300194631, 145.84662271764802 25.629038508910305 M147.41319221150513 23.22236708353555 C146.82191717473899 24.130724319586967, 146.2306421379728 25.039081555638383, 145.84662271764802 25.629038508910305 M145.84662271764802 25.629038508910305 C145.1738346545839 26.530513221162767, 144.50104659151978 27.431987933415233, 144.12907594118502 27.930394717640446 M145.84662271764802 25.629038508910305 C145.41374560717148 26.209054401032827, 144.98086849669494 26.78907029315535, 144.12907594118502 27.930394717640446 M144.12907594118502 27.930394717640446 C143.38728647947957 28.80174282837577, 142.64549701777412 29.67309093911109, 142.26760965023328 30.11697894342491 M144.12907594118502 27.930394717640446 C143.40995071381482 28.775120129094116, 142.69082548644462 29.619845540547786, 142.26760965023328 30.11697894342491 M142.26760965023328 30.11697894342491 C141.52322563238312 30.885616556919672, 140.77884161453295 31.654254170414433, 140.26987300906558 32.17980604265913 M142.26760965023328 30.11697894342491 C141.49440055455858 30.915380816356414, 140.72119145888385 31.713782689287918, 140.26987300906558 32.17980604265913 M140.26987300906558 32.17980604265913 C139.63036814893283 32.76058743626029, 138.99086328880009 33.34136882986145, 138.1440751460536 34.11039941631729 M140.26987300906558 32.17980604265913 C139.60868318912313 32.780281143006874, 138.94749336918068 33.38075624335461, 138.1440751460536 34.11039941631729 M138.1440751460536 34.11039941631729 C137.4444164375891 34.66835861761758, 136.7447577291246 35.226317818917856, 135.8989514205987 35.90082584211611 M138.1440751460536 34.11039941631729 C137.58375310811059 34.55724133078121, 137.02343107016756 35.004083245245134, 135.8989514205987 35.90082584211611 M135.8989514205987 35.90082584211611 C135.3067580102075 36.31391432956546, 134.71456459981627 36.727002817014814, 133.5437275276663 37.543728073826664 M135.8989514205987 35.90082584211611 C135.26460513442788 36.343318350940734, 134.63025884825706 36.785810859765355, 133.5437275276663 37.543728073826664 M133.5437275276663 37.543728073826664 C133.05193150516243 37.84185771278274, 132.56013548265855 38.13998735173882, 131.08808158742642 39.03235507377746 M133.5437275276663 37.543728073826664 C132.66018351593044 38.079337646021905, 131.77663950419455 38.61494721821714, 131.08808158742642 39.03235507377746 M131.08808158742642 39.03235507377746 C130.19061716917747 39.50056168592453, 129.29315275092856 39.968768298071595, 128.54210437578186 40.36058975431618 M131.08808158742642 39.03235507377746 C130.40457697807517 39.3889389906704, 129.72107236872395 39.745522907563334, 128.54210437578186 40.36058975431618 M128.54210437578186 40.36058975431618 C127.86003163552573 40.66252312345861, 127.17795889526958 40.964456492601045, 125.91625785920573 41.52297411423506 M128.54210437578186 40.36058975431618 C127.50265415897418 40.820723531101805, 126.46320394216649 41.28085730788742, 125.91625785920573 41.52297411423506 M125.91625785920573 41.52297411423506 C125.17696178587109 41.79504190320019, 124.43766571253644 42.06710969216533, 123.2213322042769 42.514731666868535 M125.91625785920573 41.52297411423506 C125.16672594654182 41.798808786692426, 124.4171940338779 42.07464345914979, 123.2213322042769 42.514731666868535 M123.2213322042769 42.514731666868535 C122.30687769485061 42.78613696519659, 121.3924231854243 43.057542263524645, 120.46840143857125 43.33178706770151 M123.2213322042769 42.514731666868535 C122.44768963585804 42.744344720242545, 121.67404706743918 42.973957773616554, 120.46840143857125 43.33178706770151 M120.46840143857125 43.33178706770151 C119.45647689644055 43.56275224101808, 118.44455235430985 43.79371741433466, 117.6687779451068 43.97078286083413 M120.46840143857125 43.33178706770151 C119.37836127752021 43.5805816212846, 118.28832111646918 43.82937617486768, 117.6687779451068 43.97078286083413 M117.6687779451068 43.97078286083413 C116.83695885435962 44.105264920572736, 116.00513976361246 44.23974698031135, 114.83396597733562 44.42909327548823 M117.6687779451068 43.97078286083413 C117.07148592799258 44.06734840209238, 116.47419391087837 44.163913943350636, 114.83396597733562 44.42909327548823 M114.83396597733562 44.42909327548823 C114.18704474337284 44.491500988892, 113.54012350941005 44.55390870229578, 111.97561438569849 44.70483501586272 M114.83396597733562 44.42909327548823 C113.87469718879095 44.521632781829624, 112.91542840024626 44.61417228817102, 111.97561438569849 44.70483501586272 M111.97561438569849 44.70483501586272 C111.05228067614392 44.734444530768094, 110.12894696658935 44.764054045673475, 109.10546875000001 44.796875 M111.97561438569849 44.70483501586272 C111.14185291032794 44.731572123559594, 110.3080914349574 44.75830923125647, 109.10546875000001 44.796875 M109.10546875000001 44.796875 C109.10546875000001 44.796875, 109.10546875000001 44.796875, 109.10546875 44.796875 M109.10546875000001 44.796875 C109.10546875000001 44.796875, 109.10546875 44.796875, 109.10546875 44.796875 M109.10546875 44.796875 C33.64181213567245 44.796875, -41.821844478655095 44.796875, -109.10546874999999 44.796875 M109.10546875 44.796875 C50.283014603273955 44.796875, -8.53943954345209 44.796875, -109.10546874999999 44.796875 M-109.10546874999999 44.796875 C-109.79462332414022 44.774775154165326, -110.48377789828047 44.75267530833065, -111.97561438569848 44.70483501586272 M-109.10546874999999 44.796875 C-110.24122619141555 44.76045346947155, -111.37698363283111 44.72403193894311, -111.97561438569848 44.70483501586272 M-111.97561438569848 44.70483501586272 C-112.88524616926932 44.61708393169392, -113.79487795284018 44.52933284752512, -114.83396597733561 44.42909327548823 M-111.97561438569848 44.70483501586272 C-112.67550362012983 44.63731754315708, -113.37539285456118 44.56980007045145, -114.83396597733561 44.42909327548823 M-114.83396597733561 44.42909327548823 C-115.66004028146473 44.295539988298536, -116.48611458559385 44.161986701108844, -117.66877794510678 43.97078286083413 M-114.83396597733561 44.42909327548823 C-115.63593682816797 44.29943684770249, -116.43790767900033 44.16978041991674, -117.66877794510678 43.97078286083413 M-117.66877794510678 43.97078286083413 C-118.34711250962361 43.81595742302988, -119.02544707414044 43.66113198522562, -120.46840143857119 43.33178706770152 M-117.66877794510678 43.97078286083413 C-118.6253212918687 43.752458083964406, -119.58186463863062 43.534133307094685, -120.46840143857119 43.33178706770152 M-120.46840143857119 43.33178706770152 C-121.51318149773228 43.021701830304956, -122.55796155689336 42.71161659290839, -123.22133220427686 42.514731666868556 M-120.46840143857119 43.33178706770152 C-121.38274650573584 43.06041425126225, -122.2970915729005 42.789041434822984, -123.22133220427686 42.514731666868556 M-123.22133220427686 42.514731666868556 C-123.95680854929704 42.24406957323232, -124.69228489431721 41.9734074795961, -125.91625785920571 41.52297411423507 M-123.22133220427686 42.514731666868556 C-124.1698104203164 42.16568291572949, -125.11828863635593 41.816634164590425, -125.91625785920571 41.52297411423507 M-125.91625785920571 41.52297411423507 C-126.88230147133805 41.095335263809666, -127.84834508347039 40.66769641338426, -128.54210437578186 40.36058975431619 M-125.91625785920571 41.52297411423507 C-126.72226679325469 41.16617786853711, -127.52827572730368 40.809381622839155, -128.54210437578186 40.36058975431619 M-128.54210437578186 40.36058975431619 C-129.29657695486523 39.96698189307114, -130.0510495339486 39.5733740318261, -131.0880815874264 39.03235507377747 M-128.54210437578186 40.36058975431619 C-129.41238263723795 39.90656614275438, -130.28266089869402 39.45254253119257, -131.0880815874264 39.03235507377747 M-131.0880815874264 39.03235507377747 C-131.7046297591204 38.65859994885733, -132.32117793081443 38.284844823937185, -133.54372752766628 37.54372807382669 M-131.0880815874264 39.03235507377747 C-131.96282092852593 38.50208294466396, -132.8375602696255 37.971810815550455, -133.54372752766628 37.54372807382669 M-133.54372752766628 37.54372807382669 C-134.2528408290416 37.04908133180734, -134.96195413041687 36.554434589788, -135.89895142059868 35.90082584211613 M-133.54372752766628 37.54372807382669 C-134.35773422883307 36.975912236874905, -135.17174092999983 36.40809639992312, -135.89895142059868 35.90082584211613 M-135.89895142059868 35.90082584211613 C-136.3557221413664 35.536563347483224, -136.81249286213415 35.17230085285031, -138.14407514605358 34.11039941631733 M-135.89895142059868 35.90082584211613 C-136.74341421060953 35.22738923918108, -137.5878770006204 34.553952636246024, -138.14407514605358 34.11039941631733 M-138.14407514605358 34.11039941631733 C-138.86064560367413 33.459629086121694, -139.5772160612947 32.80885875592607, -140.26987300906552 32.17980604265916 M-138.14407514605358 34.11039941631733 C-138.89178547441037 33.43134867943489, -139.63949580276713 32.75229794255245, -140.26987300906552 32.17980604265916 M-140.26987300906552 32.17980604265916 C-140.9255830017142 31.502731640457835, -141.58129299436285 30.825657238256507, -142.26760965023328 30.116978943424925 M-140.26987300906552 32.17980604265916 C-140.95761626452682 31.469654666624013, -141.6453595199881 30.759503290588867, -142.26760965023328 30.116978943424925 M-142.26760965023328 30.116978943424925 C-142.68395778065974 29.627912738546243, -143.10030591108622 29.138846533667557, -144.12907594118502 27.93039471764046 M-142.26760965023328 30.116978943424925 C-142.8573355583345 29.424253335414427, -143.44706146643577 28.73152772740393, -144.12907594118502 27.93039471764046 M-144.12907594118502 27.93039471764046 C-144.50949528602882 27.420667452465036, -144.88991463087262 26.910940187289608, -145.846622717648 25.629038508910334 M-144.12907594118502 27.93039471764046 C-144.70351057634946 27.16070463859193, -145.27794521151392 26.3910145595434, -145.846622717648 25.629038508910334 M-145.846622717648 25.629038508910334 C-146.41944944152004 24.74902283552991, -146.9922761653921 23.869007162149487, -147.4131922115051 23.222367083535577 M-145.846622717648 25.629038508910334 C-146.3308176969041 24.885184996215905, -146.81501267616017 24.141331483521473, -147.4131922115051 23.222367083535577 M-147.4131922115051 23.222367083535577 C-147.77237537510925 22.58460100531713, -148.1315585387134 21.94683492709868, -148.82234705267797 20.720269970632422 M-147.4131922115051 23.222367083535577 C-147.7957229530233 22.54314501653209, -148.17825369454152 21.863922949528607, -148.82234705267797 20.720269970632422 M-148.82234705267797 20.720269970632422 C-149.3135286001246 19.70032097775794, -149.80471014757129 18.680371984883458, -150.06829672166145 18.133028823936 M-148.82234705267797 20.720269970632422 C-149.25733233023172 19.817013734598092, -149.6923176077855 18.913757498563758, -150.06829672166145 18.133028823936 M-150.06829672166145 18.133028823936 C-150.43789742476173 17.22010794153488, -150.807498127862 16.307187059133764, -151.14592134401036 15.471275172279542 M-150.06829672166145 18.133028823936 C-150.4588630880541 17.1683223478592, -150.84942945444675 16.203615871782397, -151.14592134401036 15.471275172279542 M-151.14592134401036 15.471275172279542 C-151.4689265620438 14.49843491945535, -151.79193178007728 13.525594666631159, -152.05079272900167 12.745946732362032 M-151.14592134401036 15.471275172279542 C-151.4244162338975 14.632492936074373, -151.70291112378462 13.793710699869203, -152.05079272900167 12.745946732362032 M-152.05079272900167 12.745946732362032 C-152.30104777733598 11.791615771839282, -152.55130282567026 10.837284811316533, -152.77919256602013 9.968242463324282 M-152.05079272900167 12.745946732362032 C-152.28193842045624 11.864488031669314, -152.51308411191084 10.983029330976597, -152.77919256602013 9.968242463324282 M-152.77919256602013 9.968242463324282 C-152.9460927953265 9.111245060211957, -153.11299302463289 8.254247657099633, -153.32812770389418 7.149576547823432 M-152.77919256602013 9.968242463324282 C-152.99753530199027 8.84709866087116, -153.2158780379604 7.725954858418037, -153.32812770389418 7.149576547823432 M-153.32812770389418 7.149576547823432 C-153.4183891741139 6.449526408942553, -153.50865064433364 5.749476270061674, -153.6953424503961 4.301531488708215 M-153.32812770389418 7.149576547823432 C-153.42158481935996 6.424741615465629, -153.51504193482577 5.699906683107827, -153.6953424503961 4.301531488708215 M-153.6953424503961 4.301531488708215 C-153.7596249001599 3.3002804457774126, -153.82390734992373 2.2990294028466103, -153.87932784136518 1.4358105140302455 M-153.6953424503961 4.301531488708215 C-153.75840848510418 3.3192270921428353, -153.82147451981228 2.336922695577456, -153.87932784136518 1.4358105140302455 M-153.87932784136518 1.4358105140302455 C-153.87932784136518 0.30225297055952693, -153.87932784136518 -0.8313045729111916, -153.87932784136518 -1.4358105140302238 M-153.87932784136518 1.4358105140302455 C-153.87932784136518 0.371112494550242, -153.87932784136518 -0.6935855249297616, -153.87932784136518 -1.4358105140302238 M-153.87932784136518 -1.4358105140302238 C-153.80700212580086 -2.562341914211333, -153.73467641023655 -3.688873314392442, -153.6953424503961 -4.301531488708154 M-153.87932784136518 -1.4358105140302238 C-153.8290851947621 -2.218380290007722, -153.77884254815902 -3.0009500659852204, -153.6953424503961 -4.301531488708154 M-153.6953424503961 -4.301531488708154 C-153.55181822027114 -5.414677075492487, -153.40829399014618 -6.5278226622768205, -153.3281277038942 -7.14957654782341 M-153.6953424503961 -4.301531488708154 C-153.58230680268383 -5.178213650951218, -153.46927115497158 -6.054895813194282, -153.3281277038942 -7.14957654782341 M-153.3281277038942 -7.14957654782341 C-153.21497220463948 -7.730606121073158, -153.10181670538478 -8.311635694322904, -152.77919256602013 -9.96824246332426 M-153.3281277038942 -7.14957654782341 C-153.1287408072102 -8.173386121860304, -152.92935391052617 -9.197195695897197, -152.77919256602013 -9.96824246332426 M-152.77919256602013 -9.96824246332426 C-152.6198131681201 -10.576025182985086, -152.46043377022008 -11.183807902645912, -152.05079272900167 -12.74594673236201 M-152.77919256602013 -9.96824246332426 C-152.57047252406278 -10.764182443146025, -152.36175248210546 -11.560122422967787, -152.05079272900167 -12.74594673236201 M-152.05079272900167 -12.74594673236201 C-151.8195049562155 -13.442548653291828, -151.5882171834293 -14.139150574221647, -151.1459213440104 -15.471275172279483 M-152.05079272900167 -12.74594673236201 C-151.83178118849347 -13.405574597622511, -151.6127696479853 -14.065202462883013, -151.1459213440104 -15.471275172279483 M-151.1459213440104 -15.471275172279483 C-150.74792723747404 -16.45432831011686, -150.34993313093767 -17.437381447954238, -150.06829672166148 -18.13302882393598 M-151.1459213440104 -15.471275172279483 C-150.88436447221915 -16.11732570246192, -150.62280760042793 -16.763376232644355, -150.06829672166148 -18.13302882393598 M-150.06829672166148 -18.13302882393598 C-149.80575761144848 -18.67819690373033, -149.5432185012355 -19.223364983524686, -148.822347052678 -20.7202699706324 M-150.06829672166148 -18.13302882393598 C-149.68065344687767 -18.937978378261914, -149.2930101720939 -19.742927932587847, -148.822347052678 -20.7202699706324 M-148.822347052678 -20.7202699706324 C-148.3014659142539 -21.64514717683913, -147.7805847758298 -22.570024383045862, -147.4131922115051 -23.222367083535563 M-148.822347052678 -20.7202699706324 C-148.38319312364672 -21.50003224078479, -147.94403919461547 -22.279794510937183, -147.4131922115051 -23.222367083535563 M-147.4131922115051 -23.222367083535563 C-147.0405500987939 -23.79484543707816, -146.66790798608267 -24.36732379062076, -145.84662271764802 -25.62903850891032 M-147.4131922115051 -23.222367083535563 C-147.0909953158462 -23.717348037248357, -146.7687984201873 -24.212328990961147, -145.84662271764802 -25.62903850891032 M-145.84662271764802 -25.62903850891032 C-145.48741679193057 -26.11034172503864, -145.12821086621315 -26.59164494116696, -144.12907594118502 -27.930394717640446 M-145.84662271764802 -25.62903850891032 C-145.43149378446898 -26.185273460346394, -145.01636485128995 -26.741508411782473, -144.12907594118502 -27.930394717640446 M-144.12907594118502 -27.930394717640446 C-143.4912828975412 -28.679582718156766, -142.85348985389737 -29.428770718673082, -142.26760965023328 -30.11697894342491 M-144.12907594118502 -27.930394717640446 C-143.55550578458562 -28.604142860648572, -142.98193562798625 -29.277891003656702, -142.26760965023328 -30.11697894342491 M-142.26760965023328 -30.11697894342491 C-141.4730652175931 -30.937411303436985, -140.67852078495295 -31.75784366344906, -140.26987300906558 -32.179806042659116 M-142.26760965023328 -30.11697894342491 C-141.60273095627747 -30.80352078249026, -140.93785226232166 -31.490062621555605, -140.26987300906558 -32.179806042659116 M-140.26987300906558 -32.179806042659116 C-139.42594973336716 -32.94623483266212, -138.58202645766877 -33.71266362266513, -138.1440751460536 -34.110399416317286 M-140.26987300906558 -32.179806042659116 C-139.75608844715967 -32.646411587787476, -139.24230388525376 -33.11301713291584, -138.1440751460536 -34.110399416317286 M-138.1440751460536 -34.110399416317286 C-137.53060248783 -34.59962753605756, -136.9171298296064 -35.08885565579783, -135.8989514205987 -35.900825842116106 M-138.1440751460536 -34.110399416317286 C-137.33004522019482 -34.759566619943584, -136.51601529433603 -35.40873382356989, -135.8989514205987 -35.900825842116106 M-135.8989514205987 -35.900825842116106 C-135.00552852991186 -36.52403897500565, -134.11210563922504 -37.1472521078952, -133.54372752766633 -37.54372807382666 M-135.8989514205987 -35.900825842116106 C-135.14934563358685 -36.423718389224064, -134.399739846575 -36.94661093633203, -133.54372752766633 -37.54372807382666 M-133.54372752766633 -37.54372807382666 C-132.96473437994783 -37.89471712251502, -132.38574123222935 -38.24570617120338, -131.08808158742642 -39.03235507377745 M-133.54372752766633 -37.54372807382666 C-132.60452332258873 -38.11307918232125, -131.66531911751113 -38.68243029081584, -131.08808158742642 -39.03235507377745 M-131.08808158742642 -39.03235507377745 C-130.28482803626508 -39.451411936909864, -129.48157448510378 -39.870468800042275, -128.5421043757819 -40.36058975431618 M-131.08808158742642 -39.03235507377745 C-130.1136024677176 -39.54074020634588, -129.13912334800878 -40.04912533891431, -128.5421043757819 -40.36058975431618 M-128.5421043757819 -40.36058975431618 C-127.76651906157663 -40.703918365993935, -126.99093374737137 -41.04724697767168, -125.91625785920573 -41.522974114235055 M-128.5421043757819 -40.36058975431618 C-127.88190949509497 -40.65283844401096, -127.22171461440806 -40.945087133705734, -125.91625785920573 -41.522974114235055 M-125.91625785920573 -41.522974114235055 C-125.34481993303085 -41.7332685533817, -124.77338200685595 -41.94356299252834, -123.22133220427692 -42.514731666868535 M-125.91625785920573 -41.522974114235055 C-125.16932411257923 -41.79785263757347, -124.42239036595275 -42.072731160911886, -123.22133220427692 -42.514731666868535 M-123.22133220427692 -42.514731666868535 C-122.2761668027833 -42.79525179675741, -121.33100140128965 -43.07577192664628, -120.46840143857126 -43.331787067701505 M-123.22133220427692 -42.514731666868535 C-122.51926042479806 -42.72310288576789, -121.8171886453192 -42.93147410466724, -120.46840143857126 -43.331787067701505 M-120.46840143857126 -43.331787067701505 C-119.68794657899072 -43.509920796456846, -118.90749171941017 -43.68805452521219, -117.66877794510681 -43.97078286083413 M-120.46840143857126 -43.331787067701505 C-119.69322860029145 -43.50871520956336, -118.91805576201163 -43.68564335142523, -117.66877794510681 -43.97078286083413 M-117.66877794510681 -43.97078286083413 C-116.82737586424422 -44.106814224097405, -115.98597378338161 -44.24284558736068, -114.83396597733564 -44.42909327548823 M-117.66877794510681 -43.97078286083413 C-116.98670525814447 -44.081055083309515, -116.30463257118213 -44.191327305784895, -114.83396597733564 -44.42909327548823 M-114.83396597733564 -44.42909327548823 C-113.93844661566223 -44.51548295128926, -113.04292725398881 -44.60187262709028, -111.9756143856985 -44.70483501586272 M-114.83396597733564 -44.42909327548823 C-114.18588353262255 -44.491613009496525, -113.53780108790949 -44.554132743504816, -111.9756143856985 -44.70483501586272 M-111.9756143856985 -44.70483501586272 C-110.99187410369801 -44.73638165197218, -110.00813382169751 -44.767928288081634, -109.10546875000001 -44.796875 M-111.9756143856985 -44.70483501586272 C-111.33489428628589 -44.72538166236487, -110.69417418687327 -44.745928308867015, -109.10546875000001 -44.796875 M-109.10546875000001 -44.796875 C-109.10546875000001 -44.796875, -109.10546875 -44.796875, -109.10546875 -44.796875 M-109.10546875000001 -44.796875 C-109.10546875000001 -44.796875, -109.10546875 -44.796875, -109.10546875 -44.796875" stroke="#1e3a5f" stroke-width="1.5" fill="none" stroke-dasharray="0 0" style="fill:#0a1628 !important;stroke:#1e3a5f !important;stroke-width:1.5px !important;rx:10 !important;ry:10 !important"/></g><g class="label" style="color:#e6edf3 !important" transform="translate(-122.703125, -32.796875)"><rect/><foreignObject width="245.40625" height="65.59375"><div style="color: rgb(230, 237, 243) !important; display: table; white-space: break-spaces; line-height: 1.5; max-width: 200px; text-align: center; width: 200px;" xmlns="http://www.w3.org/1999/xhtml"><span style="color:#e6edf3 !important" class="nodeLabel"><p></p><div style="text-align:center;line-height:1.8;padding:4px 12px"><b style="letter-spacing:1.5px">DEVELOPER · OPEN REPO</b><br /><span style="color:#8b949efont-size:12px">Claude Code session starts</span></div><p></p></span></div></foreignObject></g></g></g></g><marker id="my-svg_flowchart-v2-pointEnd-margin__8b949e" class="marker flowchart-v2" viewBox="0 0 11.5 14" refX="11.5" refY="7" markerUnits="userSpaceOnUse" markerWidth="10.5" markerHeight="14" orient="auto"><path d="M 0 0 L 11.5 7 L 0 14 z" class="arrowMarkerPath" style="stroke-width: 0; stroke-dasharray: 1, 0;" stroke="#8b949e" fill="#8b949e"/></marker></g><defs><filter id="my-svg-drop-shadow" height="130%" width="130%"><feDropShadow dx="4" dy="4" stdDeviation="0" flood-opacity="0.06" flood-color="#FFFFFF"/></filter></defs><defs><filter id="my-svg-drop-shadow-small" height="150%" width="150%"><feDropShadow dx="2" dy="2" stdDeviation="0" flood-opacity="0.06" flood-color="#FFFFFF"/></filter></defs><linearGradient id="my-svg-gradient" gradientUnits="objectBoundingBox" x1="0%" y1="0%" x2="100%" y2="0%"><stop offset="0%" stop-color="#cccccc" stop-opacity="1"/><stop offset="100%" stop-color="hsl(180, 0%, 18.3529411765%)" stop-opacity="1"/></linearGradient><text text-anchor="middle" x="708.828125" y="-25" class="flowchartTitleText">Hydra hook bindings</text></svg>