<svg id="my-svg" width="100%" xmlns="http://www.w3.org/2000/svg" xmlns:xlink="http://www.w3.org/1999/xlink" class="flowchart" style="max-width: 1807.4px; background-color: #0a1628;" viewBox="-200.76705932617188 -52 1807.396484375 1272.265625" role="graphics-document document" aria-roledescription="flowchart-v2"><defs><pattern id="bp-grid" x="-200.76705932617188" y="-52" width="40" height="40" patternUnits="userSpaceOnUse"><path d="M 10 0 L 10 40 M 20 0 L 20 40 M 30 0 L 30 40 M 0 10 L 40 10 M 0 20 L 40 20 M 0 30 L 40 30" fill="none" stroke="#16304f" stroke-width="0.35" opacity="0.35"/><path d="M 40 0 L 0 0 L 0 40" fill="none" stroke="#1e3a5f" stroke-width="0.75" opacity="0.55"/></pattern></defs><rect x="-200.76705932617188" y="-52" width="1807.396484375" height="1272.265625" fill="#0a1628"/><rect x="-200.76705932617188" y="-52" width="1807.396484375" height="1272.265625" fill="url(#bp-grid)"/><style>#my-svg{font-family:-apple-system,BlinkMacSystemFont,Segoe UI,Helvetica,Arial,sans-serif;font-size:16px;fill:#ccc;}@keyframes edge-animation-frame{from{stroke-dashoffset:0;}}@keyframes dash{to{stroke-dashoffset:0;}}#my-svg .edge-animation-slow{stroke-dasharray:9,5!important;stroke-dashoffset:900;animation:dash 50s linear infinite;stroke-linecap:round;}#my-svg .edge-animation-fast{stroke-dasharray:9,5!important;stroke-dashoffset:900;animation:dash 20s linear infinite;stroke-linecap:round;}#my-svg .error-icon{fill:#a44141;}#my-svg .error-text{fill:#ddd;stroke:#ddd;}#my-svg .edge-thickness-normal{stroke-width:1px;}#my-svg .edge-thickness-thick{stroke-width:3.5px;}#my-svg .edge-pattern-solid{stroke-dasharray:0;}#my-svg .edge-thickness-invisible{stroke-width:0;fill:none;}#my-svg .edge-pattern-dashed{stroke-dasharray:3;}#my-svg .edge-pattern-dotted{stroke-dasharray:2;}#my-svg .marker{fill:#8b949e;stroke:#8b949e;}#my-svg .marker.cross{stroke:#8b949e;}#my-svg svg{font-family:-apple-system,BlinkMacSystemFont,Segoe UI,Helvetica,Arial,sans-serif;font-size:16px;}#my-svg p{margin:0;}#my-svg .label{font-family:-apple-system,BlinkMacSystemFont,Segoe UI,Helvetica,Arial,sans-serif;color:#ccc;}#my-svg .cluster-label text{fill:#F9FFFE;}#my-svg .cluster-label span{color:#F9FFFE;}#my-svg .cluster-label span p{background-color:transparent;}#my-svg .label text,#my-svg span{fill:#ccc;color:#ccc;}#my-svg .node rect,#my-svg .node circle,#my-svg .node ellipse,#my-svg .node polygon,#my-svg .node path{fill:#1f2020;stroke:#ccc;stroke-width:1px;}#my-svg .rough-node .label text,#my-svg .node .label text,#my-svg .image-shape .label,#my-svg .icon-shape .label{text-anchor:middle;}#my-svg .node .katex path{fill:#000;stroke:#000;stroke-width:1px;}#my-svg .rough-node .label,#my-svg .node .label,#my-svg .image-shape .label,#my-svg .icon-shape .label{text-align:center;}#my-svg .node.clickable{cursor:pointer;}#my-svg .root .anchor path{fill:#8b949e!important;stroke-width:0;stroke:#8b949e;}#my-svg .arrowheadPath{fill:lightgrey;}#my-svg .edgePath .path{stroke:#8b949e;stroke-width:1px;}#my-svg .flowchart-link{stroke:#8b949e;fill:none;}#my-svg .edgeLabel{background-color:hsl(0, 0%, 34.4117647059%);text-align:center;}#my-svg .edgeLabel p{background-color:hsl(0, 0%, 34.4117647059%);}#my-svg .edgeLabel rect{opacity:0.5;background-color:hsl(0, 0%, 34.4117647059%);fill:hsl(0, 0%, 34.4117647059%);}#my-svg .labelBkg{background-color:rgba(87.75, 87.75, 87.75, 0.5);}#my-svg .cluster rect{fill:hsl(180, 1.5873015873%, 28.3529411765%);stroke:rgba(255, 255, 255, 0.25);stroke-width:1px;}#my-svg .cluster text{fill:#F9FFFE;}#my-svg .cluster span{color:#F9FFFE;}#my-svg div.mermaidTooltip{position:absolute;text-align:center;max-width:200px;padding:2px;font-family:-apple-system,BlinkMacSystemFont,Segoe UI,Helvetica,Arial,sans-serif;font-size:12px;background:#0d1117;border:1px solid rgba(255, 255, 255, 0.25);border-radius:2px;pointer-events:none;z-index:100;}#my-svg .flowchartTitleText{text-anchor:middle;font-size:18px;fill:#ccc;}#my-svg rect.text{fill:none;stroke-width:0;}#my-svg .icon-shape,#my-svg .image-shape{background-color:hsl(0, 0%, 34.4117647059%);text-align:center;}#my-svg .icon-shape p,#my-svg .image-shape p{background-color:hsl(0, 0%, 34.4117647059%);padding:2px;}#my-svg .icon-shape .label rect,#my-svg .image-shape .label rect{opacity:0.5;background-color:hsl(0, 0%, 34.4117647059%);fill:hsl(0, 0%, 34.4117647059%);}#my-svg .label-icon{display:inline-block;height:1em;overflow:visible;vertical-align:-0.125em;}#my-svg .node .label-icon path{fill:currentColor;stroke:revert;stroke-width:revert;}#my-svg .node .neo-node{stroke:#ccc;}#my-svg [data-look="neo"].node rect,#my-svg [data-look="neo"].cluster rect,#my-svg [data-look="neo"].node polygon{stroke:url(#my-svg-gradient);filter:drop-shadow( 1px 2px 2px rgba(185,185,185,1));}#my-svg [data-look="neo"].node path{stroke:url(#my-svg-gradient);stroke-width:1px;}#my-svg [data-look="neo"].node .outer-path{filter:drop-shadow( 1px 2px 2px rgba(185,185,185,1));}#my-svg [data-look="neo"].node .neo-line path{stroke:#ccc;filter:none;}#my-svg [data-look="neo"].node circle{stroke:url(#my-svg-gradient);filter:drop-shadow( 1px 2px 2px rgba(185,185,185,1));}#my-svg [data-look="neo"].node circle .state-start{fill:#000000;}#my-svg [data-look="neo"].icon-shape .icon{fill:url(#my-svg-gradient);filter:drop-shadow( 1px 2px 2px rgba(185,185,185,1));}#my-svg [data-look="neo"].icon-shape .icon-neo path{stroke:url(#my-svg-gradient);filter:drop-shadow( 1px 2px 2px rgba(185,185,185,1));}#my-svg :root{--mermaid-font-family:"trebuchet ms",verdana,arial,sans-serif;}#my-svg .titleBlock&gt;*{fill:#06111f!important;stroke:#1e3a5f!important;stroke-width:1px!important;color:#e6edf3!important;rx:4!important;ry:4!important;}#my-svg .titleBlock span{fill:#06111f!important;stroke:#1e3a5f!important;stroke-width:1px!important;color:#e6edf3!important;rx:4!important;ry:4!important;}#my-svg .titleBlock tspan{fill:#e6edf3!important;}#my-svg .sourceNode&gt;*{fill:#0a1628!important;stroke:#1e3a5f!important;stroke-width:1.5px!important;color:#e6edf3!important;rx:8!important;ry:8!important;}#my-svg .sourceNode span{fill:#0a1628!important;stroke:#1e3a5f!important;stroke-width:1.5px!important;color:#e6edf3!important;rx:8!important;ry:8!important;}#my-svg .sourceNode tspan{fill:#e6edf3!important;}#my-svg .journalLine&gt;*{fill:#0a1628!important;stroke:#1e3a5f!important;stroke-width:1px!important;color:#c9d1d9!important;rx:6!important;ry:6!important;}#my-svg .journalLine span{fill:#0a1628!important;stroke:#1e3a5f!important;stroke-width:1px!important;color:#c9d1d9!important;rx:6!important;ry:6!important;}#my-svg .journalLine tspan{fill:#c9d1d9!important;}#my-svg .reportNode&gt;*{fill:#0f1d33!important;stroke:#3fb950!important;stroke-width:2px!important;color:#3fb950!important;rx:8!important;ry:8!important;}#my-svg .reportNode span{fill:#0f1d33!important;stroke:#3fb950!important;stroke-width:2px!important;color:#3fb950!important;rx:8!important;ry:8!important;}#my-svg .reportNode tspan{fill:#3fb950!important;}#my-svg .queryNode&gt;*{fill:#0f1d33!important;stroke:#3fb950!important;stroke-width:1.5px!important;color:#3fb950!important;rx:14!important;ry:14!important;}#my-svg .queryNode span{fill:#0f1d33!important;stroke:#3fb950!important;stroke-width:1.5px!important;color:#3fb950!important;rx:14!important;ry:14!important;}#my-svg .queryNode tspan{fill:#3fb950!important;}</style><g><marker id="my-svg_flowchart-v2-pointEnd" class="marker flowchart-v2" viewBox="0 0 10 10" refX="5" refY="5" markerUnits="userSpaceOnUse" markerWidth="8" markerHeight="8" orient="auto"><path d="M 0 0 L 10 5 L 0 10 z" class="arrowMarkerPath" style="stroke-width: 1; stroke-dasharray: 1, 0;"/></marker><marker id="my-svg_flowchart-v2-pointStart" class="marker flowchart-v2" viewBox="0 0 10 10" refX="4.5" refY="5" markerUnits="userSpaceOnUse" markerWidth="8" markerHeight="8" orient="auto"><path d="M 0 5 L 10 10 L 10 0 z" class="arrowMarkerPath" style="stroke-width: 1; stroke-dasharray: 1, 0;"/></marker><marker id="my-svg_flowchart-v2-pointEnd-margin" class="marker flowchart-v2" viewBox="0 0 11.5 14" refX="11.5" refY="7" markerUnits="userSpaceOnUse" markerWidth="10.5" markerHeight="14" orient="auto"><path d="M 0 0 L 11.5 7 L 0 14 z" class="arrowMarkerPath" style="stroke-width: 0; stroke-dasharray: 1, 0;"/></marker><marker id="my-svg_flowchart-v2-pointStart-margin" class="marker flowchart-v2" viewBox="0 0 11.5 14" refX="1" refY="7" markerUnits="userSpaceOnUse" markerWidth="11.5" markerHeight="14" orient="auto"><polygon points="0,7 11.5,14 11.5,0" class="arrowMarkerPath" style="stroke-width: 0; stroke-dasharray: 1, 0;"/></marker><marker id="my-svg_flowchart-v2-circleEnd" class="marker flowchart-v2" viewBox="0 0 10 10" refX="11" refY="5" markerUnits="userSpaceOnUse" markerWidth="11" markerHeight="11" orient="auto"><circle cx="5" cy="5" r="5" class="arrowMarkerPath" style="stroke-width: 1; stroke-dasharray: 1, 0;"/></marker><marker id="my-svg_flowchart-v2-circleStart" class="marker flowchart-v2" viewBox="0 0 10 10" refX="-1" refY="5" markerUnits="userSpaceOnUse" markerWidth="11" markerHeight="11" orient="auto"><circle cx="5" cy="5" r="5" class="arrowMarkerPath" style="stroke-width: 1; stroke-dasharray: 1, 0;"/></marker><marker id="my-svg_flowchart-v2-circleEnd-margin" class="marker flowchart-v2" viewBox="0 0 10 10" refY="5" refX="12.25" markerUnits="userSpaceOnUse" markerWidth="14" markerHeight="14" orient="auto"><circle cx="5" cy="5" r="5" class="arrowMarkerPath" style="stroke-width: 0; stroke-dasharray: 1, 0;"/></marker><marker id="my-svg_flowchart-v2-circleStart-margin" class="marker flowchart-v2" viewBox="0 0 10 10" refX="-2" refY="5" markerUnits="userSpaceOnUse" markerWidth="14" markerHeight="14" orient="auto"><circle cx="5" cy="5" r="5" class="arrowMarkerPath" style="stroke-width: 0; stroke-dasharray: 1, 0;"/></marker><marker id="my-svg_flowchart-v2-crossEnd" class="marker cross flowchart-v2" viewBox="0 0 11 11" refX="12" refY="5.2" markerUnits="userSpaceOnUse" markerWidth="11" markerHeight="11" orient="auto"><path d="M 1,1 l 9,9 M 10,1 l -9,9" class="arrowMarkerPath" style="stroke-width: 2; stroke-dasharray: 1, 0;"/></marker><marker id="my-svg_flowchart-v2-crossStart" class="marker cross flowchart-v2" viewBox="0 0 11 11" refX="-1" refY="5.2" markerUnits="userSpaceOnUse" markerWidth="11" markerHeight="11" orient="auto"><path d="M 1,1 l 9,9 M 10,1 l -9,9" class="arrowMarkerPath" style="stroke-width: 2; stroke-dasharray: 1, 0;"/></marker><marker id="my-svg_flowchart-v2-crossEnd-margin" class="marker cross flowchart-v2" viewBox="0 0 15 15" refX="17.7" refY="7.5" markerUnits="userSpaceOnUse" markerWidth="12" markerHeight="12" orient="auto"><path d="M 1,1 L 14,14 M 1,14 L 14,1" class="arrowMarkerPath" style="stroke-width: 2.5;"/></marker><marker id="my-svg_flowchart-v2-crossStart-margin" class="marker cross flowchart-v2" viewBox="0 0 15 15" refX="-3.5" refY="7.5" markerUnits="userSpaceOnUse" markerWidth="12" markerHeight="12" orient="auto"><path d="M 1,1 L 14,14 M 1,14 L 14,1" class="arrowMarkerPath" style="stroke-width: 2.5; stroke-dasharray: 1, 0;"/></marker><g class="root"><g class="clusters"><g class="cluster" id="my-svg-at" data-look="neo"><rect style="fill:#0f1d33 !important;stroke:#d29922 !important;stroke-width:2px !important;rx:12 !important;ry:12 !important" x="-192.76705932617188" y="569.359375" width="948" height="384.125"/><g class="cluster-label" transform="translate(-188.76705932617188, 583.359375)"><foreignObject width="940" height="32"><div xmlns="http://www.w3.org/1999/xhtml" style="display: table-cell; white-space: nowrap; line-height: 1.5;"><span class="nodeLabel" style="color:#e6edf3 !important"><p></p><div style="text-align:center;min-width:940px;line-height:2"><span style="font-family:ui-monospace,monospace;color:&amp;8b949e;font-size:11px;letter-spacing:3px">JOURNAL 03</span>  ·  <b style="letter-spacing:2px">audit-trail / state /</b></div><p></p></span></div></foreignObject></g></g><g class="cluster" id="my-svg-ag" data-look="neo"><rect style="fill:#0f1d33 !important;stroke:#d75952 !important;stroke-width:2px !important;rx:12 !important;ry:12 !important" x="176.62942504882812" y="352.796875" width="948" height="194.5625"/><g class="cluster-label" transform="translate(180.62942504882812, 366.796875)"><foreignObject width="940" height="32"><div xmlns="http://www.w3.org/1999/xhtml" style="display: table-cell; white-space: nowrap; line-height: 1.5;"><span class="nodeLabel" style="color:#e6edf3 !important"><p></p><div style="text-align:center;min-width:940px;line-height:2"><span style="font-family:ui-monospace,monospace;color:&amp;8b949e;font-size:11px;letter-spacing:3px">JOURNAL 02</span>  ·  <b style="letter-spacing:2px">action-guard / state /</b></div><p></p></span></div></foreignObject></g></g><g class="cluster" id="my-svg-ss" data-look="neo"><rect style="fill:#0f1d33 !important;stroke:#58a6ff !important;stroke-width:2px !important;rx:12 !important;ry:12 !important" x="650.6294250488281" y="352.796875" width="948" height="411.125"/><g class="cluster-label" transform="translate(654.6294250488281, 366.796875)"><foreignObject width="940" height="32"><div xmlns="http://www.w3.org/1999/xhtml" style="display: table-cell; white-space: nowrap; line-height: 1.5;"><span class="nodeLabel" style="color:#e6edf3 !important"><p></p><div style="text-align:center;min-width:940px;line-height:2"><span style="font-family:ui-monospace,monospace;color:&amp;8b949e;font-size:11px;letter-spacing:3px">JOURNAL 01</span>  ·  <b style="letter-spacing:2px">secret-scanner / state /</b></div><p></p></span></div></foreignObject></g></g><g class="cluster" id="my-svg-sources" data-look="neo"><rect style="" x="8" y="148.796875" width="1214.1196594238281" height="182"/><g class="cluster-label" transform="translate(145.05982971191406, 162.796875)"><foreignObject width="940" height="16.5"><div xmlns="http://www.w3.org/1999/xhtml" style="display: table-cell; white-space: nowrap; line-height: 1.5;"><span class="nodeLabel"><p></p><div style="text-align:center;min-width:940px;font-family:ui-monospace,monospace;color:&amp;8b949e;font-size:11px;letter-spacing:3px">EVENT SOURCES  ·  HOOK FIRES</div><p></p></span></div></foreignObject></g></g></g><g class="edgePaths"><path d="M788.827,275.079L844.693,284.365C900.56,293.652,1012.293,312.224,1068.159,326.011C1124.026,339.797,1124.026,348.797,1124.026,357.797C1124.026,366.797,1124.026,375.797,1124.026,384.13C1124.026,392.464,1124.026,400.13,1124.026,403.964L1124.026,407.797" id="my-svg-L_Post_ss_aud_0" class="edge-thickness-normal edge-pattern-solid edge-thickness-normal edge-pattern-solid flowchart-link" style="stroke-dasharray: 0 0 398.7777099609375 4; stroke-dashoffset: 0;stroke:#8b949e;stroke-width:1.5px;;;stroke:#8b949e;stroke-width:1.5px" data-edge="true" data-et="edge" data-id="L_Post_ss_aud_0" data-points="W3sieCI6Nzg4LjgyNjY5MDY3MzgyODEsInkiOjI3NS4wNzg4MjMyODAxOTA4fSx7IngiOjExMjQuMDI1OTA5NDIzODI4MSwieSI6MzMwLjc5Njg3NX0seyJ4IjoxMTI0LjAyNTkwOTQyMzgyODEsInkiOjM1Ny43OTY4NzV9LHsieCI6MTEyNC4wMjU5MDk0MjM4MjgxLCJ5IjozODQuNzk2ODc1fSx7IngiOjExMjQuMDI1OTA5NDIzODI4MSwieSI6NDExLjc5Njg3NX1d" data-look="neo" marker-end="url(#my-svg_flowchart-v2-pointEnd-margin__8b949e)"/><path d="M1124.832,520.359L1124.899,524.859C1124.966,529.359,1125.099,538.359,1125.166,547.359C1125.233,556.359,1125.233,565.359,1125.233,574.359C1125.233,583.359,1125.233,592.359,1125.233,602.958C1125.233,613.557,1125.233,625.755,1125.233,631.854L1125.233,637.953" id="my-svg-L_ss_aud_ss_met_0" class="edge-thickness-normal edge-pattern-solid edge-thickness-normal edge-pattern-solid flowchart-link" style="stroke-dasharray: 0 0 113.59629821777344 4; stroke-dashoffset: 0;stroke:#8b949e;stroke-width:1.5px;;;stroke:#8b949e;stroke-width:1.5px" data-edge="true" data-et="edge" data-id="L_ss_aud_ss_met_0" data-points="W3sieCI6MTEyNC44MzE5ODkxMTY3MzQ4LCJ5Ijo1MjAuMzU5Mzc1fSx7IngiOjExMjUuMjMyOTQwNjczODI4MSwieSI6NTQ3LjM1OTM3NX0seyJ4IjoxMTI1LjIzMjk0MDY3MzgyODEsInkiOjU3NC4zNTkzNzV9LHsieCI6MTEyNS4yMzI5NDA2NzM4MjgxLCJ5Ijo2MDEuMzU5Mzc1fSx7IngiOjExMjUuMjMyOTQwNjczODI4MSwieSI6NjQxLjk1MzEyNX1d" data-look="neo" marker-end="url(#my-svg_flowchart-v2-pointEnd-margin__8b949e)"/><path d="M297.252,273.712L336.381,283.226C375.51,292.74,453.768,311.769,492.897,325.783C532.026,339.797,532.026,348.797,532.026,357.797C532.026,366.797,532.026,375.797,532.026,384.13C532.026,392.464,532.026,400.13,532.026,403.964L532.026,407.797" id="my-svg-L_Pre_ag_aud_0" class="edge-thickness-normal edge-pattern-solid edge-thickness-normal edge-pattern-solid flowchart-link" style="stroke-dasharray: 0 0 302.8677978515625 4; stroke-dashoffset: 0;stroke:#8b949e;stroke-width:1.5px;;;stroke:#8b949e;stroke-width:1.5px" data-edge="true" data-et="edge" data-id="L_Pre_ag_aud_0" data-points="W3sieCI6Mjk3LjI1MjQ3MTkyMzgyODEsInkiOjI3My43MTIwMDA4ODAxNDc5fSx7IngiOjUzMi4wMjU5MDk0MjM4MjgxLCJ5IjozMzAuNzk2ODc1fSx7IngiOjUzMi4wMjU5MDk0MjM4MjgxLCJ5IjozNTcuNzk2ODc1fSx7IngiOjUzMi4wMjU5MDk0MjM4MjgxLCJ5IjozODQuNzk2ODc1fSx7IngiOjUzMi4wMjU5MDk0MjM4MjgxLCJ5Ijo0MTEuNzk2ODc1fV0=" data-look="neo" marker-end="url(#my-svg_flowchart-v2-pointEnd-margin__8b949e)"/><path d="M944.991,279.19L922.163,287.791C899.336,296.392,853.681,313.595,830.853,326.696C808.026,339.797,808.026,348.797,808.026,357.797C808.026,366.797,808.026,375.797,808.026,384.13C808.026,392.464,808.026,400.13,808.026,403.964L808.026,407.797" id="my-svg-L_Start_ag_cfg_0" class="edge-thickness-normal edge-pattern-solid edge-thickness-normal edge-pattern-solid flowchart-link" style="stroke-dasharray: 0 0 210.7989501953125 4; stroke-dashoffset: 0;stroke:#8b949e;stroke-width:1.5px;;;stroke:#8b949e;stroke-width:1.5px" data-edge="true" data-et="edge" data-id="L_Start_ag_cfg_0" data-points="W3sieCI6OTQ0Ljk5MDc1MzE3MzgyODEsInkiOjI3OS4xOTAxMjgxMzQ5OTYxNH0seyJ4Ijo4MDguMDI1OTA5NDIzODI4MSwieSI6MzMwLjc5Njg3NX0seyJ4Ijo4MDguMDI1OTA5NDIzODI4MSwieSI6MzU3Ljc5Njg3NX0seyJ4Ijo4MDguMDI1OTA5NDIzODI4MSwieSI6Mzg0Ljc5Njg3NX0seyJ4Ijo4MDguMDI1OTA5NDIzODI4MSwieSI6NDExLjc5Njg3NX1d" data-look="neo" marker-end="url(#my-svg_flowchart-v2-pointEnd-margin__8b949e)"/><path d="M556.827,280.826L518.228,289.155C479.629,297.483,402.431,314.14,363.832,326.968C325.233,339.797,325.233,348.797,325.233,357.797C325.233,366.797,325.233,375.797,325.233,393.844C325.233,411.891,325.233,438.984,325.233,466.078C325.233,493.172,325.233,520.266,331.9,538.313C338.566,556.359,351.9,565.359,358.566,574.359C365.233,583.359,365.233,592.359,364.761,600.698C364.288,609.036,363.344,616.713,362.872,620.551L362.4,624.389" id="my-svg-L_Post_at_aud_0" class="edge-thickness-normal edge-pattern-solid edge-thickness-normal edge-pattern-solid flowchart-link" style="stroke-dasharray: 0 0 525.6766967773438 4; stroke-dashoffset: 0;stroke:#8b949e;stroke-width:1.5px;;;stroke:#8b949e;stroke-width:1.5px" data-edge="true" data-et="edge" data-id="L_Post_at_aud_0" data-points="W3sieCI6NTU2LjgyNjY5MDY3MzgyODEsInkiOjI4MC44MjYwOTM3MzU5NTI1NX0seyJ4IjozMjUuMjMyOTQwNjczODI4MSwieSI6MzMwLjc5Njg3NX0seyJ4IjozMjUuMjMyOTQwNjczODI4MSwieSI6MzU3Ljc5Njg3NX0seyJ4IjozMjUuMjMyOTQwNjczODI4MSwieSI6Mzg0Ljc5Njg3NX0seyJ4IjozMjUuMjMyOTQwNjczODI4MSwieSI6NDY2LjA3ODEyNX0seyJ4IjozMjUuMjMyOTQwNjczODI4MSwieSI6NTQ3LjM1OTM3NX0seyJ4IjozNjUuMjMyOTQwNjczODI4MSwieSI6NTc0LjM1OTM3NX0seyJ4IjozNjUuMjMyOTQwNjczODI4MSwieSI6NjAxLjM1OTM3NX0seyJ4IjozNjEuOTExMTQxMzY1ODY5NjQsInkiOjYyOC4zNTkzNzV9XQ==" data-look="neo" marker-end="url(#my-svg_flowchart-v2-pointEnd-margin__8b949e)"/><path d="M1075.413,520.359L1071.383,524.859C1067.353,529.359,1059.293,538.359,1055.263,547.359C1051.233,556.359,1051.233,565.359,1051.233,574.359C1051.233,583.359,1051.233,592.359,955.228,608.071C859.224,623.783,667.215,646.206,571.21,657.418L475.206,668.63" id="my-svg-L_ss_aud_at_aud_0" class="edge-thickness-normal edge-pattern-solid edge-thickness-normal edge-pattern-solid flowchart-link" style="stroke-dasharray: 0 0 647.7799072265625 4; stroke-dashoffset: 0;stroke:#8b949e;stroke-width:1.5px;;;stroke:#8b949e;stroke-width:1.5px" data-edge="true" data-et="edge" data-id="L_ss_aud_at_aud_0" data-points="W3sieCI6MTA3NS40MTMzMDM5OTU2Mjc1LCJ5Ijo1MjAuMzU5Mzc1fSx7IngiOjEwNTEuMjMyOTQwNjczODI4MSwieSI6NTQ3LjM1OTM3NX0seyJ4IjoxMDUxLjIzMjk0MDY3MzgyODEsInkiOjU3NC4zNTkzNzV9LHsieCI6MTA1MS4yMzI5NDA2NzM4MjgxLCJ5Ijo2MDEuMzU5Mzc1fSx7IngiOjQ3MS4yMzI5NDA2NzM4MjgxLCJ5Ijo2NjkuMDkzNzV9XQ==" data-look="neo" marker-end="url(#my-svg_flowchart-v2-pointEnd-margin__8b949e)"/><path d="M470.057,520.359L464.92,524.859C459.782,529.359,449.508,538.359,428.704,547.359C407.9,556.359,376.566,565.359,360.9,574.359C345.233,583.359,345.233,592.359,345.705,600.698C346.177,609.036,347.122,616.713,347.594,620.551L348.066,624.389" id="my-svg-L_ag_aud_at_aud_0" class="edge-thickness-normal edge-pattern-solid edge-thickness-normal edge-pattern-solid flowchart-link" style="stroke-dasharray: 0 0 175.12847900390625 4; stroke-dashoffset: 0;stroke:#8b949e;stroke-width:1.5px;;;stroke:#8b949e;stroke-width:1.5px" data-edge="true" data-et="edge" data-id="L_ag_aud_at_aud_0" data-points="W3sieCI6NDcwLjA1NjkwMjYxMTU0NDQsInkiOjUyMC4zNTkzNzV9LHsieCI6NDM5LjIzMjk0MDY3MzgyODEsInkiOjU0Ny4zNTkzNzV9LHsieCI6MzQ1LjIzMjk0MDY3MzgyODEsInkiOjU3NC4zNTkzNzV9LHsieCI6MzQ1LjIzMjk0MDY3MzgyODEsInkiOjYwMS4zNTkzNzV9LHsieCI6MzQ4LjU1NDczOTk4MTc4NjYsInkiOjYyOC4zNTkzNzV9XQ==" data-look="neo" marker-end="url(#my-svg_flowchart-v2-pointEnd-margin__8b949e)"/><path d="M256.396,736.922L248.202,741.422C240.008,745.922,223.62,754.922,215.427,763.922C207.233,772.922,207.233,781.922,207.233,790.255C207.233,798.589,207.233,806.255,207.233,810.089L207.233,813.922" id="my-svg-L_at_aud_at_met_0" class="edge-thickness-normal edge-pattern-solid edge-thickness-normal edge-pattern-solid flowchart-link" style="stroke-dasharray: 0 0 97.30125427246094 4; stroke-dashoffset: 0;stroke:#8b949e;stroke-width:1.5px;;;stroke:#8b949e;stroke-width:1.5px" data-edge="true" data-et="edge" data-id="L_at_aud_at_met_0" data-points="W3sieCI6MjU2LjM5NTU3MDQzMTYxMzYsInkiOjczNi45MjE4NzV9LHsieCI6MjA3LjIzMjk0MDY3MzgyODEyLCJ5Ijo3NjMuOTIxODc1fSx7IngiOjIwNy4yMzI5NDA2NzM4MjgxMiwieSI6NzkwLjkyMTg3NX0seyJ4IjoyMDcuMjMyOTQwNjczODI4MTIsInkiOjgxNy45MjE4NzV9XQ==" data-look="neo" marker-end="url(#my-svg_flowchart-v2-pointEnd-margin__8b949e)"/><path d="M355.233,736.922L355.233,741.422C355.233,745.922,355.233,754.922,355.233,763.922C355.233,772.922,355.233,781.922,355.233,799.969C355.233,818.016,355.233,845.109,355.233,872.203C355.233,899.297,355.233,926.391,355.233,944.438C355.233,962.484,355.233,971.484,352.99,979.906C350.748,988.327,346.262,996.17,344.02,1000.091L341.777,1004.012" id="my-svg-L_at_aud_Report_0" class="edge-thickness-normal edge-pattern-solid edge-thickness-normal edge-pattern-solid flowchart-link" style="stroke-dasharray: 0 0 265.82037353515625 4; stroke-dashoffset: 0;stroke:#8b949e;stroke-width:1.5px;;;stroke:#8b949e;stroke-width:1.5px" data-edge="true" data-et="edge" data-id="L_at_aud_Report_0" data-points="W3sieCI6MzU1LjIzMjk0MDY3MzgyODEsInkiOjczNi45MjE4NzV9LHsieCI6MzU1LjIzMjk0MDY3MzgyODEsInkiOjc2My45MjE4NzV9LHsieCI6MzU1LjIzMjk0MDY3MzgyODEsInkiOjc5MC45MjE4NzV9LHsieCI6MzU1LjIzMjk0MDY3MzgyODEsInkiOjg3Mi4yMDMxMjV9LHsieCI6MzU1LjIzMjk0MDY3MzgyODEsInkiOjk1My40ODQzNzV9LHsieCI6MzU1LjIzMjk0MDY3MzgyODEsInkiOjk4MC40ODQzNzV9LHsieCI6MzM5Ljc5MTMyNzM0MjEwNDksInkiOjEwMDcuNDg0Mzc1fV0=" data-look="neo" marker-end="url(#my-svg_flowchart-v2-pointEnd-margin__8b949e)"/><path d="M207.233,926.484L207.233,930.984C207.233,935.484,207.233,944.484,207.233,953.484C207.233,962.484,207.233,971.484,209.476,979.906C211.718,988.327,216.203,996.17,218.446,1000.091L220.689,1004.012" id="my-svg-L_at_met_Report_0" class="edge-thickness-normal edge-pattern-solid edge-thickness-normal edge-pattern-solid flowchart-link" style="stroke-dasharray: 0 0 76.26566314697266 4; stroke-dashoffset: 0;stroke:#8b949e;stroke-width:1.5px;;;stroke:#8b949e;stroke-width:1.5px" data-edge="true" data-et="edge" data-id="L_at_met_Report_0" data-points="W3sieCI6MjA3LjIzMjk0MDY3MzgyODEyLCJ5Ijo5MjYuNDg0Mzc1fSx7IngiOjIwNy4yMzI5NDA2NzM4MjgxMiwieSI6OTUzLjQ4NDM3NX0seyJ4IjoyMDcuMjMyOTQwNjczODI4MTIsInkiOjk4MC40ODQzNzV9LHsieCI6MjIyLjY3NDU1NDAwNTU1MTM2LCJ5IjoxMDA3LjQ4NDM3NX1d" data-look="neo" marker-end="url(#my-svg_flowchart-v2-pointEnd-margin__8b949e)"/><path d="M1204.441,520.359L1211.107,524.859C1217.774,529.359,1231.107,538.359,1237.773,547.359C1244.44,556.359,1244.44,565.359,1244.44,574.359C1244.44,583.359,1244.44,592.359,1244.44,610.406C1244.44,628.453,1244.44,655.547,1244.44,682.641C1244.44,709.734,1244.44,736.828,1244.44,754.875C1244.44,772.922,1244.44,781.922,1209.642,795.696C1174.844,809.47,1105.247,828.019,1070.449,837.293L1035.651,846.568" id="my-svg-L_ss_aud_Query_0" class="edge-thickness-normal edge-pattern-solid edge-thickness-normal edge-pattern-solid flowchart-link" style="stroke-dasharray: 0 0 488.414794921875 4; stroke-dashoffset: 0;stroke:#8b949e;stroke-width:1.5px;;;stroke:#8b949e;stroke-width:1.5px" data-edge="true" data-et="edge" data-id="L_ss_aud_Query_0" data-points="W3sieCI6MTIwNC40NDA4MzY5NzU3MzExLCJ5Ijo1MjAuMzU5Mzc1fSx7IngiOjEyNDQuNDM5OTcxOTIzODI4MSwieSI6NTQ3LjM1OTM3NX0seyJ4IjoxMjQ0LjQzOTk3MTkyMzgyODEsInkiOjU3NC4zNTkzNzV9LHsieCI6MTI0NC40Mzk5NzE5MjM4MjgxLCJ5Ijo2MDEuMzU5Mzc1fSx7IngiOjEyNDQuNDM5OTcxOTIzODI4MSwieSI6NjgyLjY0MDYyNX0seyJ4IjoxMjQ0LjQzOTk3MTkyMzgyODEsInkiOjc2My45MjE4NzV9LHsieCI6MTI0NC40Mzk5NzE5MjM4MjgxLCJ5Ijo3OTAuOTIxODc1fSx7IngiOjEwMzEuNzg2MTU4Mzk2MzI5NywieSI6ODQ3LjU5NzY4MDU1NjE0OX1d" data-look="neo" marker-end="url(#my-svg_flowchart-v2-pointEnd-margin__8b949e)"/><path d="M648.026,512.477L662.56,518.291C677.095,524.105,706.164,535.732,720.698,546.046C735.233,556.359,735.233,565.359,735.233,574.359C735.233,583.359,735.233,592.359,735.233,610.406C735.233,628.453,735.233,655.547,735.233,682.641C735.233,709.734,735.233,736.828,735.233,754.875C735.233,772.922,735.233,781.922,754.381,794.221C773.529,806.52,811.825,822.119,830.973,829.918L850.121,837.717" id="my-svg-L_ag_aud_Query_0" class="edge-thickness-normal edge-pattern-solid edge-thickness-normal edge-pattern-solid flowchart-link" style="stroke-dasharray: 0 0 442.27960205078125 4; stroke-dashoffset: 0;stroke:#8b949e;stroke-width:1.5px;;;stroke:#8b949e;stroke-width:1.5px" data-edge="true" data-et="edge" data-id="L_ag_aud_Query_0" data-points="W3sieCI6NjQ4LjAyNTkwOTQyMzgyODEsInkiOjUxMi40NzcyMzMwNTI1MTcyfSx7IngiOjczNS4yMzI5NDA2NzM4MjgxLCJ5Ijo1NDcuMzU5Mzc1fSx7IngiOjczNS4yMzI5NDA2NzM4MjgxLCJ5Ijo1NzQuMzU5Mzc1fSx7IngiOjczNS4yMzI5NDA2NzM4MjgxLCJ5Ijo2MDEuMzU5Mzc1fSx7IngiOjczNS4yMzI5NDA2NzM4MjgxLCJ5Ijo2ODIuNjQwNjI1fSx7IngiOjczNS4yMzI5NDA2NzM4MjgxLCJ5Ijo3NjMuOTIxODc1fSx7IngiOjczNS4yMzI5NDA2NzM4MjgxLCJ5Ijo3OTAuOTIxODc1fSx7IngiOjg1My44MjU3NDI5MzM0NTIsInkiOjgzOS4yMjU5OTIwNjM1NjE1fV0=" data-look="neo" marker-end="url(#my-svg_flowchart-v2-pointEnd-margin__8b949e)"/><path d="M404.652,736.922L408.749,741.422C412.845,745.922,421.039,754.922,425.136,763.922C429.233,772.922,429.233,781.922,496.194,797.231C563.156,812.539,697.079,834.157,764.04,844.966L831.002,855.775" id="my-svg-L_at_aud_Query_0" class="edge-thickness-normal edge-pattern-solid edge-thickness-normal edge-pattern-solid flowchart-link" style="stroke-dasharray: 0 0 451.3226013183594 4; stroke-dashoffset: 0;stroke:#8b949e;stroke-width:1.5px;;;stroke:#8b949e;stroke-width:1.5px" data-edge="true" data-et="edge" data-id="L_at_aud_Query_0" data-points="W3sieCI6NDA0LjY1MTYyNTc5NDkzNTQsInkiOjczNi45MjE4NzV9LHsieCI6NDI5LjIzMjk0MDY3MzgyODEsInkiOjc2My45MjE4NzV9LHsieCI6NDI5LjIzMjk0MDY3MzgyODEsInkiOjc5MC45MjE4NzV9LHsieCI6ODM0Ljk1MDQyNDkxMTk5NzQsInkiOjg1Ni40MTIwODkyOTE5ODQ5fV0=" data-look="neo" marker-end="url(#my-svg_flowchart-v2-pointEnd-margin__8b949e)"/><path d="M1007.077,126.797Z" id="my-svg-L_TitleBlock_sources_0" class="edge-thickness-invisible edge-pattern-solid" style="stroke-dasharray: 0 0 0 0; stroke-dashoffset: 0;stroke:#8b949e;stroke-width:1.5px;;;stroke:#8b949e;stroke-width:1.5px" data-edge="true" data-et="edge" data-id="L_TitleBlock_sources_0" data-points="W3sieCI6MTAwNy4wNzY2OTA2NzM4MjgxLCJ5IjoxMjYuNzk2ODc1fSx7IngiOjEwMDcuMDc2NjkwNjczODI4MSwieSI6MTUzLjc5Njg3NX0seyJ4IjoxMDA3LjA3NjY5MDY3MzgyODEsInkiOjE4MC43OTY4NzV9LHsieCI6MTAwNy4wNzY2OTA2NzM4MjgxLCJ5IjoyMTkuNzk2ODc1fV0=" data-look="neo"/></g><g class="edgeLabels"><g class="edgeLabel"><g class="label" data-id="L_Post_ss_aud_0" transform="translate(0, 0)"><foreignObject width="0" height="0"><div xmlns="http://www.w3.org/1999/xhtml" class="labelBkg" style="display: table-cell; white-space: nowrap; line-height: 1.5; max-width: 200px; text-align: center;"><span class="edgeLabel"></span></div></foreignObject></g></g><g class="edgeLabel"><g class="label" data-id="L_ss_aud_ss_met_0" transform="translate(0, 0)"><foreignObject width="0" height="0"><div xmlns="http://www.w3.org/1999/xhtml" class="labelBkg" style="display: table-cell; white-space: nowrap; line-height: 1.5; max-width: 200px; text-align: center;"><span class="edgeLabel"></span></div></foreignObject></g></g><g class="edgeLabel"><g class="label" data-id="L_Pre_ag_aud_0" transform="translate(0, 0)"><foreignObject width="0" height="0"><div xmlns="http://www.w3.org/1999/xhtml" class="labelBkg" style="display: table-cell; white-space: nowrap; line-height: 1.5; max-width: 200px; text-align: center;"><span class="edgeLabel"></span></div></foreignObject></g></g><g class="edgeLabel"><g class="label" data-id="L_Start_ag_cfg_0" transform="translate(0, 0)"><foreignObject width="0" height="0"><div xmlns="http://www.w3.org/1999/xhtml" class="labelBkg" style="display: table-cell; white-space: nowrap; line-height: 1.5; max-width: 200px; text-align: center;"><span class="edgeLabel"></span></div></foreignObject></g></g><g class="edgeLabel"><g class="label" data-id="L_Post_at_aud_0" transform="translate(0, 0)"><foreignObject width="0" height="0"><div xmlns="http://www.w3.org/1999/xhtml" class="labelBkg" style="display: table-cell; white-space: nowrap; line-height: 1.5; max-width: 200px; text-align: center;"><span class="edgeLabel"></span></div></foreignObject></g></g><g class="edgeLabel"><g class="label" data-id="L_ss_aud_at_aud_0" transform="translate(0, 0)"><foreignObject width="0" height="0"><div xmlns="http://www.w3.org/1999/xhtml" class="labelBkg" style="display: table-cell; white-space: nowrap; line-height: 1.5; max-width: 200px; text-align: center;"><span class="edgeLabel"></span></div></foreignObject></g></g><g class="edgeLabel"><g class="label" data-id="L_ag_aud_at_aud_0" transform="translate(0, 0)"><foreignObject width="0" height="0"><div xmlns="http://www.w3.org/1999/xhtml" class="labelBkg" style="display: table-cell; white-space: nowrap; line-height: 1.5; max-width: 200px; text-align: center;"><span class="edgeLabel"></span></div></foreignObject></g></g><g class="edgeLabel"><g class="label" data-id="L_at_aud_at_met_0" transform="translate(0, 0)"><foreignObject width="0" height="0"><div xmlns="http://www.w3.org/1999/xhtml" class="labelBkg" style="display: table-cell; white-space: nowrap; line-height: 1.5; max-width: 200px; text-align: center;"><span class="edgeLabel"></span></div></foreignObject></g></g><g class="edgeLabel"><g class="label" data-id="L_at_aud_Report_0" transform="translate(0, 0)"><foreignObject width="0" height="0"><div xmlns="http://www.w3.org/1999/xhtml" class="labelBkg" style="display: table-cell; white-space: nowrap; line-height: 1.5; max-width: 200px; text-align: center;"><span class="edgeLabel"></span></div></foreignObject></g></g><g class="edgeLabel"><g class="label" data-id="L_at_met_Report_0" transform="translate(0, 0)"><foreignObject width="0" height="0"><div xmlns="http://www.w3.org/1999/xhtml" class="labelBkg" style="display: table-cell; white-space: nowrap; line-height: 1.5; max-width: 200px; text-align: center;"><span class="edgeLabel"></span></div></foreignObject></g></g><g class="edgeLabel"><g class="label" data-id="L_ss_aud_Query_0" transform="translate(0, 0)"><foreignObject width="0" height="0"><div xmlns="http://www.w3.org/1999/xhtml" class="labelBkg" style="display: table-cell; white-space: nowrap; line-height: 1.5; max-width: 200px; text-align: center;"><span class="edgeLabel"></span></div></foreignObject></g></g><g class="edgeLabel"><g class="label" data-id="L_ag_aud_Query_0" transform="translate(0, 0)"><foreignObject width="0" height="0"><div xmlns="http://www.w3.org/1999/xhtml" class="labelBkg" style="display: table-cell; white-space: nowrap; line-height: 1.5; max-width: 200px; text-align: center;"><span class="edgeLabel"></span></div></foreignObject></g></g><g class="edgeLabel"><g class="label" data-id="L_at_aud_Query_0" transform="translate(0, 0)"><foreignObject width="0" height="0"><div xmlns="http://www.w3.org/1999/xhtml" class="labelBkg" style="display: table-cell; white-space: nowrap; line-height: 1.5; max-width: 200px; text-align: center;"><span class="edgeLabel"></span></div></foreignObject></g></g><g class="edgeLabel"><g class="label" data-id="L_TitleBlock_sources_0" transform="translate(0, 0)"><foreignObject width="0" height="0"><div xmlns="http://www.w3.org/1999/xhtml" class="labelBkg" style="display: table-cell; white-space: nowrap; line-height: 1.5; max-width: 200px; text-align: center;"><span class="edgeLabel"></span></div></foreignObject></g></g></g><g class="nodes"><g class="node default titleBlock" id="my-svg-flowchart-TitleBlock-0" data-look="neo" transform="translate(1007.0766906738281, 75.3984375)"><rect class="basic label-container" style="fill:#06111f !important;stroke:#1e3a5f !important;stroke-width:1px !important;rx:4 !important;ry:4 !important" x="-496" y="-51.3984375" width="992" height="102.796875"/><g class="label" style="color:#e6edf3 !important" transform="translate(-480, -39.3984375)"><rect/><foreignObject width="960" height="78.796875"><div style="color: rgb(230, 237, 243) !important; display: table; white-space: break-spaces; line-height: 1.5; max-width: 200px; text-align: center; width: 200px;" xmlns="http://www.w3.org/1999/xhtml"><span style="color:#e6edf3 !important" class="nodeLabel"><p></p><div style="font-family:ui-monospace,SFMono-Regular,Consolas,monospace;text-align:center;min-width:940px;padding:6px 10px;line-height:1.8"><div style="color:&amp;58a6ff;font-size:15px;letter-spacing:6px;border-bottom:1px solid &amp;1e3a5f;padding-bottom:10px;margin-bottom:10px">HYDRA  ·  STATE FLOW  ·  SECURITY JOURNALS</div><div style="display:flex;gap:40px;justify-content:center;font-size:11px;color:&amp;8b949e;letter-spacing:2px"><span>DWG  <b style="color:#e6edf3">HYD-003</b></span><span>REV  <b style="color:#e6edf3">A.1</b></span><span>SCALE  <b style="color:#e6edf3">1:1</b></span><span>JOURNALS  <b style="color:#e6edf3">n = 3</b></span><span>SHEET  <b style="color:#e6edf3">01 / 01</b></span></div></div><p></p></span></div></foreignObject></g></g><g class="node default sourceNode" id="my-svg-flowchart-Start-1" data-look="neo" transform="translate(1007.0766906738281, 255.796875)"><rect class="basic label-container" style="fill:#0a1628 !important;stroke:#1e3a5f !important;stroke-width:1.5px !important;rx:8 !important;ry:8 !important" x="-62.0859375" y="-36" width="124.171875" height="72"/><g class="label" style="color:#e6edf3 !important" transform="translate(-46.0859375, -24)"><rect/><foreignObject width="92.171875" height="48"><div style="color: rgb(230, 237, 243) !important; display: table-cell; white-space: nowrap; line-height: 1.5; max-width: 200px; text-align: center;" xmlns="http://www.w3.org/1999/xhtml"><span style="color:#e6edf3 !important" class="nodeLabel"><p><b>SessionStart</b><br /><small style="color:#6e7681">config-shield</small></p></span></div></foreignObject></g></g><g class="node default sourceNode" id="my-svg-flowchart-Pre-2" data-look="neo" transform="translate(223.57278442382812, 255.796875)"><rect class="basic label-container" style="fill:#0a1628 !important;stroke:#1e3a5f !important;stroke-width:1.5px !important;rx:8 !important;ry:8 !important" x="-73.6796875" y="-36" width="147.359375" height="72"/><g class="label" style="color:#e6edf3 !important" transform="translate(-57.6796875, -24)"><rect/><foreignObject width="115.359375" height="48"><div style="color: rgb(230, 237, 243) !important; display: table-cell; white-space: nowrap; line-height: 1.5; max-width: 200px; text-align: center;" xmlns="http://www.w3.org/1999/xhtml"><span style="color:#e6edf3 !important" class="nodeLabel"><p><b>PreToolUse</b><br /><small style="color:#6e7681">Bash (action-guard)</small></p></span></div></foreignObject></g></g><g class="node default sourceNode" id="my-svg-flowchart-Post-3" data-look="neo" transform="translate(672.8266906738281, 255.796875)"><rect class="basic label-container" style="fill:#0a1628 !important;stroke:#1e3a5f !important;stroke-width:1.5px !important;rx:8 !important;ry:8 !important" x="-116" y="-48" width="232" height="96"/><g class="label" style="color:#e6edf3 !important" transform="translate(-100, -36)"><rect/><foreignObject width="200" height="72"><div style="color: rgb(230, 237, 243) !important; display: table; white-space: break-spaces; line-height: 1.5; max-width: 200px; text-align: center; width: 200px;" xmlns="http://www.w3.org/1999/xhtml"><span style="color:#e6edf3 !important" class="nodeLabel"><p><b>PostToolUse</b><br /><small style="color:#6e7681">Write · Edit (secret-scanner · vuln-detector)</small></p></span></div></foreignObject></g></g><g class="node default journalLine" id="my-svg-flowchart-ss_aud-4" data-look="neo" transform="translate(1124.0259094238281, 466.078125)"><rect class="basic label-container" style="fill:#0a1628 !important;stroke:#1e3a5f !important;stroke-width:1px !important;rx:6 !important;ry:6 !important" x="-116" y="-54.28125" width="232" height="108.5625"/><g class="label" style="color:#c9d1d9 !important" transform="translate(-100, -42.28125)"><rect/><foreignObject width="200" height="84.5625"><div style="color: rgb(201, 209, 217) !important; display: table; white-space: break-spaces; line-height: 1.5; max-width: 200px; text-align: center; width: 200px;" xmlns="http://www.w3.org/1999/xhtml"><span style="color:#c9d1d9 !important" class="nodeLabel"><p></p><div style="text-align:center;line-height:1.7"><code>audit.jsonl</code><br /><small style="color:#6e7681">R1 Aho-Corasick + R2 entropy findings · masked values</small></div><p></p></span></div></foreignObject></g></g><g class="node default journalLine" id="my-svg-flowchart-ss_met-5" data-look="neo" transform="translate(1125.2329406738281, 682.640625)"><rect class="basic label-container" style="fill:#0a1628 !important;stroke:#1e3a5f !important;stroke-width:1px !important;rx:6 !important;ry:6 !important" x="-78.4140625" y="-40.6875" width="156.828125" height="81.375"/><g class="label" style="color:#c9d1d9 !important" transform="translate(-62.4140625, -28.6875)"><rect/><foreignObject width="124.828125" height="57.375"><div style="color: rgb(201, 209, 217) !important; display: table-cell; white-space: nowrap; line-height: 1.5; max-width: 200px; text-align: center;" xmlns="http://www.w3.org/1999/xhtml"><span style="color:#c9d1d9 !important" class="nodeLabel"><p></p><div style="text-align:center;line-height:1.7"><code>metrics.jsonl</code><br /><small style="color:#6e7681">scan counts + timing</small></div><p></p></span></div></foreignObject></g></g><g class="node default journalLine" id="my-svg-flowchart-ag_aud-6" data-look="neo" transform="translate(532.0259094238281, 466.078125)"><rect class="basic label-container" style="fill:#0a1628 !important;stroke:#1e3a5f !important;stroke-width:1px !important;rx:6 !important;ry:6 !important" x="-116" y="-54.28125" width="232" height="108.5625"/><g class="label" style="color:#c9d1d9 !important" transform="translate(-100, -42.28125)"><rect/><foreignObject width="200" height="84.5625"><div style="color: rgb(201, 209, 217) !important; display: table; white-space: break-spaces; line-height: 1.5; max-width: 200px; text-align: center; width: 200px;" xmlns="http://www.w3.org/1999/xhtml"><span style="color:#c9d1d9 !important" class="nodeLabel"><p></p><div style="text-align:center;line-height:1.7"><code>audit.jsonl</code><br /><small style="color:#6e7681">R4 + R7 blocked/warned commands with reasons</small></div><p></p></span></div></foreignObject></g></g><g class="node default journalLine" id="my-svg-flowchart-ag_cfg-7" data-look="neo" transform="translate(808.0259094238281, 466.078125)"><rect class="basic label-container" style="fill:#0a1628 !important;stroke:#1e3a5f !important;stroke-width:1px !important;rx:6 !important;ry:6 !important" x="-116" y="-54.28125" width="232" height="108.5625"/><g class="label" style="color:#c9d1d9 !important" transform="translate(-100, -42.28125)"><rect/><foreignObject width="200" height="84.5625"><div style="color: rgb(201, 209, 217) !important; display: table; white-space: break-spaces; line-height: 1.5; max-width: 200px; text-align: center; width: 200px;" xmlns="http://www.w3.org/1999/xhtml"><span style="color:#c9d1d9 !important" class="nodeLabel"><p></p><div style="text-align:center;line-height:1.7"><code>config.json</code><br /><small style="color:#6e7681">strictness mode · strict · balanced · permissive</small></div><p></p></span></div></foreignObject></g></g><g class="node default journalLine" id="my-svg-flowchart-at_aud-8" data-look="neo" transform="translate(355.2329406738281, 682.640625)"><rect class="basic label-container" style="fill:#0a1628 !important;stroke:#1e3a5f !important;stroke-width:1px !important;rx:6 !important;ry:6 !important" x="-116" y="-54.28125" width="232" height="108.5625"/><g class="label" style="color:#c9d1d9 !important" transform="translate(-100, -42.28125)"><rect/><foreignObject width="200" height="84.5625"><div style="color: rgb(201, 209, 217) !important; display: table; white-space: break-spaces; line-height: 1.5; max-width: 200px; text-align: center; width: 200px;" xmlns="http://www.w3.org/1999/xhtml"><span style="color:#c9d1d9 !important" class="nodeLabel"><p></p><div style="text-align:center;line-height:1.7"><code>audit.jsonl</code><br /><small style="color:#6e7681">Every security event · JSONL · 10MB rotation</small></div><p></p></span></div></foreignObject></g></g><g class="node default journalLine" id="my-svg-flowchart-at_met-9" data-look="neo" transform="translate(207.23294067382812, 872.203125)"><rect class="basic label-container" style="fill:#0a1628 !important;stroke:#1e3a5f !important;stroke-width:1px !important;rx:6 !important;ry:6 !important" x="-116" y="-54.28125" width="232" height="108.5625"/><g class="label" style="color:#c9d1d9 !important" transform="translate(-100, -42.28125)"><rect/><foreignObject width="200" height="84.5625"><div style="color: rgb(201, 209, 217) !important; display: table; white-space: break-spaces; line-height: 1.5; max-width: 200px; text-align: center; width: 200px;" xmlns="http://www.w3.org/1999/xhtml"><span style="color:#c9d1d9 !important" class="nodeLabel"><p></p><div style="text-align:center;line-height:1.7"><code>metrics.jsonl</code><br /><small style="color:#6e7681">R8 EMA aggregate scan metrics · security posture</small></div><p></p></span></div></foreignObject></g></g><g class="node default reportNode" id="my-svg-flowchart-Report-10" data-look="neo" transform="translate(281.2329406738281, 1109.875)"><rect class="basic label-container" style="fill:#0f1d33 !important;stroke:#3fb950 !important;stroke-width:2px !important;rx:8 !important;ry:8 !important" x="-116" y="-102.390625" width="232" height="204.78125"/><g class="label" style="color:#3fb950 !important" transform="translate(-100, -90.390625)"><rect/><foreignObject width="200" height="180.78125"><div style="color: rgb(63, 185, 80) !important; display: table; white-space: break-spaces; line-height: 1.5; max-width: 200px; text-align: center; width: 200px;" xmlns="http://www.w3.org/1999/xhtml"><span style="color:#3fb950 !important" class="nodeLabel"><p></p><div style="text-align:center;line-height:1.8;padding:4px 12px"><b style="letter-spacing:1.5px;color:#3fb950">/tmp/hydra-report.html</b><br /><em style="color:#8b949efont-size:12px">severity bars · CWE pills · finding breakdown · CLEAN / CAUTION / WARNING / CRITICAL</em></div><p></p></span></div></foreignObject></g></g><g class="node default queryNode" id="my-svg-flowchart-Query-11" data-look="neo" transform="translate(936.0259094238281, 872.203125)"><g class="basic label-container outer-path"><path d="M-69.484375 -36 C-27.435203763871968 -36, 14.613967472256064 -36, 69.484375 -36 C69.484375 -36, 69.484375 -36, 69.484375 -36 C70.32180720707547 -35.973145179081996, 71.15923941415095 -35.94629035816399, 71.79090291930567 -35.92603413901211 C72.47683974270633 -35.859862638618374, 73.16277656610701 -35.79369113822464, 74.08795282064222 -35.70444049763686 C74.66765116155528 -35.61071936550581, 75.24734950246837 -35.516998233374764, 76.3660856332494 -35.336129651678355 C77.19216392359442 -35.14758267257173, 78.01824221393946 -34.959035693465104, 78.61594002074226 -34.82261506940506 C79.43016653305226 -34.58095691451363, 80.24439304536227 -34.339298759622196, 80.82827084885034 -34.16600689238407 C81.28443482365503 -33.99813433292238, 81.74059879845973 -33.8302617734607, 82.99398717565747 -33.36900326445678 C83.74697438452372 -33.03567816366362, 84.49996159339 -32.70235306287046, 85.10418960823209 -32.43487924448709 C85.73790285643054 -32.10427144881467, 86.37161610462898 -31.77366365314225, 87.15020687214175 -31.367473348442022 C87.59695223017435 -31.09665368703552, 88.04369758820697 -30.82583402562902, 89.12363144357975 -30.171171776106267 C89.70153678525563 -29.768050026872217, 90.27944212693149 -29.364928277638164, 91.01635409768377 -28.850890387246437 C91.53538129568055 -28.436980008737805, 92.05440849367733 -28.023069630229177, 92.82059723108037 -27.412054501288843 C93.16846925103538 -27.09612633695499, 93.51634127099037 -26.78019817262113, 94.52894682172551 -25.860576603518194 C95.0687628528242 -25.303172231688414, 95.60857888392287 -24.74576785985864, 96.13438289471135 -24.202832049407412 C96.71655995377097 -23.518973749022887, 97.29873701283059 -22.835115448638362, 97.63030836884907 -22.44563286691441 C98.00492605016348 -21.94367930232597, 98.37954373147787 -21.441725737737535, 99.0105761654904 -20.596199764398115 C99.49764397565205 -19.847932811969628, 99.9847117858137 -19.09966585954114, 100.26951446819245 -18.662132459178906 C100.54498428685716 -18.173007901795827, 100.82045410552186 -17.68388334441275, 101.40195002942801 -16.65137844867007 C101.74371154808352 -15.941703342656844, 102.08547306673903 -15.232028236643618, 102.40322942856925 -14.572200352406186 C102.72141280944285 -13.786281249991198, 103.03959619031646 -13.00036214757621, 103.26923819379137 -12.433141959167092 C103.4474067513749 -11.896526651030078, 103.62557530895843 -11.359911342893064, 103.99641770931979 -10.242993118717179 C104.14151808434633 -9.689662501840642, 104.28661845937286 -9.136331884964108, 104.58177983854566 -8.010753622427321 C104.74869216778933 -7.153694088694327, 104.915604497033 -6.296634554961333, 105.0229192029202 -5.745596221201666 C105.09016649367784 -5.2240395135650415, 105.15741378443546 -4.702482805928417, 105.31802306617114 -3.45682893267655 C105.37312085653213 -2.5986363736682385, 105.42821864689311 -1.740443814659927, 105.46587878322477 -1.153856792579586 C105.46587878322477 -0.611755592791806, 105.46587878322477 -0.0696543930040261, 105.46587878322477 1.1538567925795773 C105.42745360236965 1.7523600006457378, 105.38902842151454 2.3508632087118984, 105.31802306617114 3.4568289326765256 C105.24593931804314 4.015896248611184, 105.17385556991513 4.574963564545842, 105.0229192029202 5.745596221201641 C104.88155217880484 6.471486012102916, 104.74018515468948 7.19737580300419, 104.58177983854566 8.010753622427314 C104.39460764094873 8.724522332807947, 104.20743544335181 9.438291043188578, 103.99641770931979 10.242993118717154 C103.75958886873713 10.956283853000706, 103.52276002815447 11.669574587284258, 103.26923819379138 12.433141959167068 C103.0572500233833 12.956756838587461, 102.84526185297524 13.480371718007856, 102.40322942856925 14.572200352406176 C102.12419720436317 15.151616736303273, 101.8451649801571 15.731033120200372, 101.40195002942801 16.651378448670062 C101.17314498664382 17.057644971156325, 100.94433994385963 17.463911493642588, 100.26951446819245 18.6621324591789 C99.86752724295448 19.27969278582866, 99.46554001771649 19.89725311247842, 99.01057616549042 20.596199764398097 C98.61769970427089 21.122618430650345, 98.22482324305136 21.649037096902596, 97.63030836884909 22.4456328669144 C97.32718893103717 22.801694206552906, 97.02406949322524 23.15775554619141, 96.13438289471136 24.20283204940739 C95.71019439803642 24.640841498747534, 95.28600590136148 25.07885094808768, 94.52894682172553 25.860576603518187 C93.85105678316732 26.476218400549186, 93.17316674460912 27.091860197580182, 92.8205972310804 27.412054501288818 C92.16008244084823 27.938797469462223, 91.49956765061606 28.46554043763563, 91.01635409768379 28.850890387246434 C90.40602290300504 29.276631007842735, 89.7956917083263 29.70237162843904, 89.12363144357977 30.171171776106252 C88.65492578013796 30.4553039037049, 88.18622011669613 30.73943603130354, 87.15020687214177 31.36747334844202 C86.58291836268599 31.66342740045947, 86.0156298532302 31.95938145247692, 85.1041896082321 32.434879244487085 C84.5869290296524 32.66385515863443, 84.06966845107267 32.89283107278178, 82.99398717565748 33.36900326445678 C82.20244429722875 33.66029836066071, 81.41090141880001 33.95159345686464, 80.82827084885037 34.16600689238406 C79.96700749119472 34.42162533607264, 79.10574413353909 34.67724377976122, 78.6159400207423 34.82261506940505 C77.81273934436665 35.00594038241355, 77.00953866799098 35.189265695422044, 76.36608563324941 35.33612965167835 C75.67228352692038 35.44829819571394, 74.97848142059134 35.56046673974952, 74.08795282064224 35.70444049763686 C73.37677032458976 35.77304741770895, 72.66558782853727 35.84165433778105, 71.79090291930567 35.92603413901211 C71.12022945066187 35.9475413317648, 70.44955598201805 35.9690485245175, 69.484375 36 C69.484375 36, 69.484375 36, 69.484375 36 C28.63578712227475 36, -12.212800755450502 36, -69.484375 36 C-70.11983380537963 35.97962207295701, -70.75529261075926 35.95924414591401, -71.79090291930565 35.92603413901211 C-72.49985542875196 35.85764234306596, -73.20880793819826 35.78925054711981, -74.08795282064223 35.70444049763686 C-74.75415037135477 35.59673484407682, -75.42034792206731 35.48902919051678, -76.3660856332494 35.33612965167835 C-76.99929423311819 35.19160392083057, -77.632502832987 35.0470781899828, -78.61594002074226 34.82261506940506 C-79.22828277117182 34.640874955330254, -79.84062552160138 34.45913484125545, -80.82827084885032 34.166006892384075 C-81.5946434871785 33.8839746772083, -82.36101612550667 33.60194246203252, -82.99398717565747 33.36900326445678 C-83.61196312347496 33.095443643963144, -84.22993907129245 32.821884023469515, -85.10418960823209 32.43487924448709 C-85.65534042717631 32.14734421527284, -86.20649124612055 31.85980918605858, -87.15020687214175 31.367473348442026 C-87.58102986454153 31.10630591865235, -88.0118528569413 30.845138488862673, -89.12363144357973 30.171171776106277 C-89.81089209559597 29.69176849629387, -90.49815274761221 29.212365216481466, -91.01635409768377 28.85089038724644 C-91.60148570784361 28.38426349915006, -92.18661731800344 27.91763661105368, -92.82059723108037 27.412054501288846 C-93.48533030653986 26.808361510029933, -94.15006338199936 26.204668518771015, -94.5289468217255 25.86057660351821 C-94.86877284305247 25.509678336262883, -95.20859886437945 25.158780069007555, -96.13438289471136 24.202832049407405 C-96.50674528305409 23.765434000039914, -96.87910767139681 23.328035950672422, -97.63030836884907 22.445632866914412 C-98.06762450446323 21.859669085511, -98.50494064007736 21.273705304107587, -99.0105761654904 20.59619976439812 C-99.40546731913227 19.989540909282034, -99.80035847277412 19.382882054165954, -100.26951446819245 18.66213245917892 C-100.5502306817157 18.163692396469404, -100.83094689523895 17.665252333759884, -101.40195002942801 16.651378448670073 C-101.61203572023776 16.21513101658995, -101.8221214110475 15.778883584509826, -102.40322942856925 14.57220035240619 C-102.62652694346644 14.020651173446355, -102.84982445836364 13.46910199448652, -103.26923819379137 12.433141959167095 C-103.46255333848082 11.850907543947972, -103.65586848317027 11.268673128728851, -103.99641770931979 10.242993118717168 C-104.16869645981099 9.586019577011417, -104.34097521030219 8.929046035305666, -104.58177983854564 8.010753622427327 C-104.73928170271917 7.202014837927052, -104.89678356689271 6.393276053426778, -105.0229192029202 5.745596221201669 C-105.11955304375701 4.996123234181623, -105.21618688459381 4.246650247161577, -105.31802306617112 3.4568289326765704 C-105.3567962747882 2.8529049112951297, -105.39556948340525 2.248980889913689, -105.46587878322477 1.1538567925795904 C-105.46587878322477 0.46898508378173576, -105.46587878322477 -0.21588662501611888, -105.46587878322477 -1.1538567925795729 C-105.43186944027082 -1.6835797609349705, -105.39786009731685 -2.213302729290368, -105.31802306617114 -3.4568289326765207 C-105.21460803559441 -4.258895488221991, -105.11119300501768 -5.060962043767462, -105.0229192029202 -5.7455962212016525 C-104.85349392097426 -6.615559235948112, -104.6840686390283 -7.485522250694571, -104.58177983854566 -8.01075362242731 C-104.39360778064531 -8.72833523348712, -104.20543572274495 -9.44591684454693, -103.99641770931979 -10.24299311871715 C-103.7402700731715 -11.014468987212295, -103.48412243702322 -11.785944855707438, -103.26923819379138 -12.433141959167049 C-103.04519248590057 -12.986539189286438, -102.82114677800976 -13.539936419405825, -102.40322942856925 -14.572200352406172 C-102.06997894779722 -15.264202106147291, -101.73672846702522 -15.95620385988841, -101.40195002942801 -16.65137844867006 C-101.09947343293638 -17.18845627481764, -100.79699683644475 -17.72553410096522, -100.26951446819245 -18.66213245917891 C-99.99505887817708 -19.083769947087667, -99.72060328816168 -19.505407434996425, -99.01057616549042 -20.596199764398108 C-98.5285600179012 -21.242057489593243, -98.046543870312 -21.88791521478838, -97.63030836884909 -22.4456328669144 C-97.20943695762075 -22.940012374804923, -96.78856554639242 -23.434391882695444, -96.13438289471136 -24.20283204940739 C-95.61829557852998 -24.73573457492133, -95.1022082623486 -25.26863710043527, -94.52894682172553 -25.860576603518172 C-93.92666831090645 -26.4075500116279, -93.32438980008736 -26.954523419737633, -92.82059723108041 -27.412054501288814 C-92.39035807653632 -27.755158777892998, -91.9601189219922 -28.098263054497185, -91.01635409768379 -28.85089038724643 C-90.31938365441584 -29.33706679710593, -89.62241321114792 -29.82324320696543, -89.12363144357977 -30.17117177610625 C-88.62075600776248 -30.476017820522777, -88.11788057194518 -30.78086386493931, -87.15020687214177 -31.367473348442015 C-86.65718355087338 -31.624683299351226, -86.16416022960499 -31.881893250260433, -85.1041896082321 -32.434879244487085 C-84.4471820682823 -32.72571699298665, -83.7901745283325 -33.01655474148621, -82.99398717565748 -33.36900326445677 C-82.2115870362934 -33.65693374817036, -81.42918689692931 -33.944864231883955, -80.82827084885037 -34.16600689238406 C-80.10965490507837 -34.379288332403526, -79.39103896130636 -34.592569772423, -78.6159400207423 -34.822615069405046 C-77.85072766761797 -34.9972697955284, -77.08551531449365 -35.17192452165177, -76.36608563324941 -35.33612965167835 C-75.70700712939087 -35.442684352952064, -75.04792862553234 -35.54923905422578, -74.08795282064224 -35.70444049763686 C-73.40848102680395 -35.769988324404046, -72.72900923296565 -35.83553615117124, -71.79090291930567 -35.92603413901211 C-71.06610144779188 -35.949277111463076, -70.3412999762781 -35.97252008391404, -69.48437500000001 -36 C-69.48437500000001 -36, -69.48437500000001 -36, -69.484375 -36" stroke="none" stroke-width="0" fill="#0f1d33" style="fill:#0f1d33 !important;stroke:#3fb950 !important;stroke-width:1.5px !important;rx:14 !important;ry:14 !important"/><path d="M-69.484375 -36 C-39.62845710426112 -36, -9.772539208522247 -36, 69.484375 -36 M-69.484375 -36 C-34.582185703073606 -36, 0.320003593852789 -36, 69.484375 -36 M69.484375 -36 C69.484375 -36, 69.484375 -36, 69.484375 -36 M69.484375 -36 C69.484375 -36, 69.484375 -36, 69.484375 -36 M69.484375 -36 C70.36046615189744 -35.97190546196663, 71.23655730379488 -35.943810923933256, 71.79090291930567 -35.92603413901211 M69.484375 -36 C70.31123047391567 -35.97348435432807, 71.13808594783134 -35.946968708656144, 71.79090291930567 -35.92603413901211 M71.79090291930567 -35.92603413901211 C72.68760983626031 -35.83952990118134, 73.58431675321494 -35.75302566335058, 74.08795282064222 -35.70444049763686 M71.79090291930567 -35.92603413901211 C72.69307222497615 -35.83900295111141, 73.59524153064663 -35.75197176321071, 74.08795282064222 -35.70444049763686 M74.08795282064222 -35.70444049763686 C74.74244448779564 -35.59862736055018, 75.39693615494905 -35.4928142234635, 76.3660856332494 -35.336129651678355 M74.08795282064222 -35.70444049763686 C74.68061034301675 -35.608624225547075, 75.27326786539129 -35.51280795345729, 76.3660856332494 -35.336129651678355 M76.3660856332494 -35.336129651678355 C76.8730417311496 -35.22042023053034, 77.37999782904981 -35.104710809382325, 78.61594002074226 -34.82261506940506 M76.3660856332494 -35.336129651678355 C77.24775998665417 -35.13489323397656, 78.12943434005895 -34.93365681627476, 78.61594002074226 -34.82261506940506 M78.61594002074226 -34.82261506940506 C79.20666892113998 -34.64728983256629, 79.7973978215377 -34.47196459572752, 80.82827084885034 -34.16600689238407 M78.61594002074226 -34.82261506940506 C79.35768918706748 -34.60246781036056, 80.09943835339271 -34.382320551316056, 80.82827084885034 -34.16600689238407 M80.82827084885034 -34.16600689238407 C81.29630591003992 -33.993765663397625, 81.76434097122949 -33.82152443441118, 82.99398717565747 -33.36900326445678 M80.82827084885034 -34.16600689238407 C81.68417965720853 -33.85102453897396, 82.54008846556673 -33.53604218556385, 82.99398717565747 -33.36900326445678 M82.99398717565747 -33.36900326445678 C83.66363931260912 -33.07256812795314, 84.33329144956078 -32.7761329914495, 85.10418960823209 -32.43487924448709 M82.99398717565747 -33.36900326445678 C83.69617648955791 -33.05816488489897, 84.39836580345835 -32.74732650534117, 85.10418960823209 -32.43487924448709 M85.10418960823209 -32.43487924448709 C85.54693454638166 -32.20389949384613, 85.98967948453122 -31.972919743205168, 87.15020687214175 -31.367473348442022 M85.10418960823209 -32.43487924448709 C85.74816809325154 -32.098916081340356, 86.39214657827098 -31.762952918193616, 87.15020687214175 -31.367473348442022 M87.15020687214175 -31.367473348442022 C87.89429505841031 -30.916402717178475, 88.63838324467886 -30.465332085914927, 89.12363144357975 -30.171171776106267 M87.15020687214175 -31.367473348442022 C87.81316173329535 -30.965586215655506, 88.47611659444894 -30.563699082868993, 89.12363144357975 -30.171171776106267 M89.12363144357975 -30.171171776106267 C89.74165289434566 -29.740066765769377, 90.35967434511157 -29.308961755432488, 91.01635409768377 -28.850890387246437 M89.12363144357975 -30.171171776106267 C89.51338384893492 -29.899297370240195, 89.90313625429009 -29.627422964374126, 91.01635409768377 -28.850890387246437 M91.01635409768377 -28.850890387246437 C91.62514012606817 -28.36539973008647, 92.23392615445258 -27.8799090729265, 92.82059723108037 -27.412054501288843 M91.01635409768377 -28.850890387246437 C91.54044794168934 -28.432939493374917, 92.0645417856949 -28.014988599503397, 92.82059723108037 -27.412054501288843 M92.82059723108037 -27.412054501288843 C93.4785805670143 -26.814491444878723, 94.13656390294823 -26.2169283884686, 94.52894682172551 -25.860576603518194 M92.82059723108037 -27.412054501288843 C93.25613656299062 -27.016509203787198, 93.69167589490087 -26.620963906285557, 94.52894682172551 -25.860576603518194 M94.52894682172551 -25.860576603518194 C94.9479096783456 -25.427963056567716, 95.3668725349657 -24.995349509617242, 96.13438289471135 -24.202832049407412 M94.52894682172551 -25.860576603518194 C94.94324118667622 -25.43278365750665, 95.35753555162692 -25.004990711495108, 96.13438289471135 -24.202832049407412 M96.13438289471135 -24.202832049407412 C96.53127722938282 -23.736617379974877, 96.92817156405431 -23.270402710542342, 97.63030836884907 -22.44563286691441 M96.13438289471135 -24.202832049407412 C96.66705648672306 -23.577123338244437, 97.19973007873476 -22.95141462708146, 97.63030836884907 -22.44563286691441 M97.63030836884907 -22.44563286691441 C98.01235584828237 -21.933724049715178, 98.39440332771566 -21.421815232515947, 99.0105761654904 -20.596199764398115 M97.63030836884907 -22.44563286691441 C98.12453185723504 -21.783418417163247, 98.61875534562101 -21.121203967412086, 99.0105761654904 -20.596199764398115 M99.0105761654904 -20.596199764398115 C99.3191135248098 -20.122203526601915, 99.62765088412918 -19.648207288805715, 100.26951446819245 -18.662132459178906 M99.0105761654904 -20.596199764398115 C99.37423891926083 -20.03751611748407, 99.73790167303125 -19.478832470570023, 100.26951446819245 -18.662132459178906 M100.26951446819245 -18.662132459178906 C100.7098146508163 -17.88033489970214, 101.15011483344013 -17.098537340225374, 101.40195002942801 -16.65137844867007 M100.26951446819245 -18.662132459178906 C100.63340059586882 -18.016015792023484, 100.9972867235452 -17.36989912486806, 101.40195002942801 -16.65137844867007 M101.40195002942801 -16.65137844867007 C101.70868558437829 -16.014435505726333, 102.01542113932855 -15.377492562782598, 102.40322942856925 -14.572200352406186 M101.40195002942801 -16.65137844867007 C101.61858077138196 -16.201540077847348, 101.8352115133359 -15.751701707024624, 102.40322942856925 -14.572200352406186 M102.40322942856925 -14.572200352406186 C102.73784912367982 -13.745683236051354, 103.07246881879041 -12.91916611969652, 103.26923819379137 -12.433141959167092 M102.40322942856925 -14.572200352406186 C102.57679983170772 -14.143478100898701, 102.75037023484619 -13.714755849391214, 103.26923819379137 -12.433141959167092 M103.26923819379137 -12.433141959167092 C103.4990246503716 -11.741061763447377, 103.72881110695182 -11.048981567727663, 103.99641770931979 -10.242993118717179 M103.26923819379137 -12.433141959167092 C103.43464807120095 -11.934953762894366, 103.60005794861054 -11.436765566621641, 103.99641770931979 -10.242993118717179 M103.99641770931979 -10.242993118717179 C104.2151348895643 -9.408929717819323, 104.43385206980881 -8.574866316921467, 104.58177983854566 -8.010753622427321 M103.99641770931979 -10.242993118717179 C104.17605736931928 -9.557949238817976, 104.35569702931878 -8.872905358918771, 104.58177983854566 -8.010753622427321 M104.58177983854566 -8.010753622427321 C104.74387091786713 -7.178450188073315, 104.9059619971886 -6.346146753719308, 105.0229192029202 -5.745596221201666 M104.58177983854566 -8.010753622427321 C104.72198536656153 -7.290827868514646, 104.86219089457741 -6.570902114601971, 105.0229192029202 -5.745596221201666 M105.0229192029202 -5.745596221201666 C105.12026436114812 -4.990606396961692, 105.21760951937604 -4.235616572721717, 105.31802306617114 -3.45682893267655 M105.0229192029202 -5.745596221201666 C105.09617505839141 -5.1774382721718455, 105.16943091386263 -4.609280323142025, 105.31802306617114 -3.45682893267655 M105.31802306617114 -3.45682893267655 C105.36946386373563 -2.6555969883449912, 105.42090466130014 -1.8543650440134325, 105.46587878322477 -1.153856792579586 M105.31802306617114 -3.45682893267655 C105.35686467781532 -2.851839478933641, 105.39570628945953 -2.2468500251907324, 105.46587878322477 -1.153856792579586 M105.46587878322477 -1.153856792579586 C105.46587878322477 -0.35365290535210336, 105.46587878322477 0.4465509818753792, 105.46587878322477 1.1538567925795773 M105.46587878322477 -1.153856792579586 C105.46587878322477 -0.5682546357202745, 105.46587878322477 0.017347521139037037, 105.46587878322477 1.1538567925795773 M105.46587878322477 1.1538567925795773 C105.43378206898457 1.6537890248719462, 105.40168535474439 2.153721257164315, 105.31802306617114 3.4568289326765256 M105.46587878322477 1.1538567925795773 C105.41551117116173 1.9383730064661986, 105.36514355909867 2.72288922035282, 105.31802306617114 3.4568289326765256 M105.31802306617114 3.4568289326765256 C105.24975544699988 3.9862991060025665, 105.18148782782863 4.515769279328607, 105.0229192029202 5.745596221201641 M105.31802306617114 3.4568289326765256 C105.231263724051 4.129717257590358, 105.14450438193087 4.802605582504191, 105.0229192029202 5.745596221201641 M105.0229192029202 5.745596221201641 C104.88001032235151 6.479403119119315, 104.73710144178281 7.213210017036988, 104.58177983854566 8.010753622427314 M105.0229192029202 5.745596221201641 C104.8898542912687 6.428856419253042, 104.75678937961722 7.112116617304443, 104.58177983854566 8.010753622427314 M104.58177983854566 8.010753622427314 C104.3851746553324 8.76049439524484, 104.18856947211916 9.510235168062367, 103.99641770931979 10.242993118717154 M104.58177983854566 8.010753622427314 C104.37999370114942 8.78025161898432, 104.17820756375318 9.549749615541323, 103.99641770931979 10.242993118717154 M103.99641770931979 10.242993118717154 C103.76689065259221 10.934292043410473, 103.53736359586462 11.625590968103792, 103.26923819379138 12.433141959167068 M103.99641770931979 10.242993118717154 C103.82388594102453 10.762631315618318, 103.65135417272926 11.282269512519482, 103.26923819379138 12.433141959167068 M103.26923819379138 12.433141959167068 C103.06390100318629 12.940328789886145, 102.8585638125812 13.447515620605223, 102.40322942856925 14.572200352406176 M103.26923819379138 12.433141959167068 C102.93724635277967 13.2531682250916, 102.60525451176794 14.073194491016128, 102.40322942856925 14.572200352406176 M102.40322942856925 14.572200352406176 C102.03155615791692 15.343987851449748, 101.6598828872646 16.11577535049332, 101.40195002942801 16.651378448670062 M102.40322942856925 14.572200352406176 C102.01484086074827 15.378697523670533, 101.62645229292728 16.185194694934893, 101.40195002942801 16.651378448670062 M101.40195002942801 16.651378448670062 C101.01775750621606 17.333551177344432, 100.63356498300409 18.0157239060188, 100.26951446819245 18.6621324591789 M101.40195002942801 16.651378448670062 C101.06300170566932 17.25321551974315, 100.72405338191065 17.855052590816243, 100.26951446819245 18.6621324591789 M100.26951446819245 18.6621324591789 C99.84179733239792 19.319220837891926, 99.41408019660338 19.976309216604957, 99.01057616549042 20.596199764398097 M100.26951446819245 18.6621324591789 C99.76724575182718 19.43375208555103, 99.26497703546188 20.205371711923167, 99.01057616549042 20.596199764398097 M99.01057616549042 20.596199764398097 C98.68306337336885 21.035037068811825, 98.3555505812473 21.47387437322555, 97.63030836884909 22.4456328669144 M99.01057616549042 20.596199764398097 C98.5810245497307 21.171759796558895, 98.15147293397096 21.747319828719696, 97.63030836884909 22.4456328669144 M97.63030836884909 22.4456328669144 C97.25297969869416 22.888864593487945, 96.87565102853922 23.33209632006149, 96.13438289471136 24.20283204940739 M97.63030836884909 22.4456328669144 C97.06342072212033 23.111531353582883, 96.49653307539158 23.777429840251365, 96.13438289471136 24.20283204940739 M96.13438289471136 24.20283204940739 C95.7497359858757 24.60001156287875, 95.36508907704003 24.997191076350106, 94.52894682172553 25.860576603518187 M96.13438289471136 24.20283204940739 C95.60589616251694 24.74853798996578, 95.07740943032253 25.29424393052417, 94.52894682172553 25.860576603518187 M94.52894682172553 25.860576603518187 C94.14080244391528 26.21307905770798, 93.75265806610503 26.565581511897772, 92.8205972310804 27.412054501288818 M94.52894682172553 25.860576603518187 C94.17300634108044 26.18383233037101, 93.81706586043533 26.507088057223836, 92.8205972310804 27.412054501288818 M92.8205972310804 27.412054501288818 C92.15806693084483 27.940404785054966, 91.49553663060924 28.468755068821118, 91.01635409768379 28.850890387246434 M92.8205972310804 27.412054501288818 C92.13374061499388 27.95980437459563, 91.44688399890738 28.507554247902448, 91.01635409768379 28.850890387246434 M91.01635409768379 28.850890387246434 C90.60507120178315 29.137783531277112, 90.19378830588249 29.42467667530779, 89.12363144357977 30.171171776106252 M91.01635409768379 28.850890387246434 C90.45709774178854 29.241003411301502, 89.8978413858933 29.63111643535657, 89.12363144357977 30.171171776106252 M89.12363144357977 30.171171776106252 C88.56651077010206 30.508901602372926, 88.00939009662436 30.846631428639597, 87.15020687214177 31.36747334844202 M89.12363144357977 30.171171776106252 C88.33582545289325 30.648744397322314, 87.54801946220671 31.126317018538376, 87.15020687214177 31.36747334844202 M87.15020687214177 31.36747334844202 C86.69604430125013 31.60440967077118, 86.24188173035849 31.841345993100337, 85.1041896082321 32.434879244487085 M87.15020687214177 31.36747334844202 C86.4419769378912 31.73695645149762, 85.73374700364062 32.10643955455322, 85.1041896082321 32.434879244487085 M85.1041896082321 32.434879244487085 C84.67083649456579 32.62671181294378, 84.23748338089948 32.818544381400486, 82.99398717565748 33.36900326445678 M85.1041896082321 32.434879244487085 C84.48958025063106 32.70694857535825, 83.87497089303004 32.9790179062294, 82.99398717565748 33.36900326445678 M82.99398717565748 33.36900326445678 C82.38368545967238 33.59359993750651, 81.77338374368729 33.81819661055625, 80.82827084885037 34.16600689238406 M82.99398717565748 33.36900326445678 C82.42820392375573 33.57721673119967, 81.86242067185398 33.78543019794256, 80.82827084885037 34.16600689238406 M80.82827084885037 34.16600689238406 C80.09824740203264 34.3826740194283, 79.3682239552149 34.59934114647253, 78.6159400207423 34.82261506940505 M80.82827084885037 34.16600689238406 C80.15939546331565 34.36452559581222, 79.49052007778094 34.56304429924038, 78.6159400207423 34.82261506940505 M78.6159400207423 34.82261506940505 C77.7689360052935 35.01593820871349, 76.9219319898447 35.20926134802194, 76.36608563324941 35.33612965167835 M78.6159400207423 34.82261506940505 C78.165077920786 34.92552140156992, 77.71421582082971 35.02842773373478, 76.36608563324941 35.33612965167835 M76.36608563324941 35.33612965167835 C75.8586327910687 35.41817069184656, 75.35117994888799 35.500211732014776, 74.08795282064224 35.70444049763686 M76.36608563324941 35.33612965167835 C75.56846106719352 35.46508340584737, 74.77083650113764 35.5940371600164, 74.08795282064224 35.70444049763686 M74.08795282064224 35.70444049763686 C73.51162480356363 35.76003816830858, 72.93529678648501 35.815635838980306, 71.79090291930567 35.92603413901211 M74.08795282064224 35.70444049763686 C73.45617656626523 35.7653871930745, 72.8244003118882 35.82633388851214, 71.79090291930567 35.92603413901211 M71.79090291930567 35.92603413901211 C71.06245789947866 35.94939395296574, 70.33401287965165 35.97275376691938, 69.484375 36 M71.79090291930567 35.92603413901211 C71.0709183186923 35.94912264378877, 70.35093371807896 35.97221114856543, 69.484375 36 M69.484375 36 C69.484375 36, 69.484375 36, 69.484375 36 M69.484375 36 C69.484375 36, 69.484375 36, 69.484375 36 M69.484375 36 C31.80250769169175 36, -5.879359616616497 36, -69.484375 36 M69.484375 36 C35.60431359731134 36, 1.7242521946226788 36, -69.484375 36 M-69.484375 36 C-70.13835259395142 35.979028211452146, -70.79233018790285 35.958056422904285, -71.79090291930565 35.92603413901211 M-69.484375 36 C-70.04305939354313 35.98208407891227, -70.60174378708626 35.96416815782455, -71.79090291930565 35.92603413901211 M-71.79090291930565 35.92603413901211 C-72.40226494538332 35.86705677962681, -73.013626971461 35.808079420241505, -74.08795282064223 35.70444049763686 M-71.79090291930565 35.92603413901211 C-72.63015096495619 35.84507288939165, -73.46939901060672 35.76411163977119, -74.08795282064223 35.70444049763686 M-74.08795282064223 35.70444049763686 C-74.89287420066594 35.57430705117316, -75.69779558068964 35.44417360470945, -76.3660856332494 35.33612965167835 M-74.08795282064223 35.70444049763686 C-74.87455017230867 35.577269537972995, -75.66114752397512 35.45009857830913, -76.3660856332494 35.33612965167835 M-76.3660856332494 35.33612965167835 C-77.20371128586112 35.14494706248793, -78.04133693847285 34.95376447329752, -78.61594002074226 34.82261506940506 M-76.3660856332494 35.33612965167835 C-77.18719064410013 35.14871779116262, -78.00829565495086 34.96130593064689, -78.61594002074226 34.82261506940506 M-78.61594002074226 34.82261506940506 C-79.41762441006277 34.58467935078196, -80.21930879938328 34.34674363215887, -80.82827084885032 34.166006892384075 M-78.61594002074226 34.82261506940506 C-79.41977603234704 34.584040760582084, -80.22361204395183 34.345466451759116, -80.82827084885032 34.166006892384075 M-80.82827084885032 34.166006892384075 C-81.48964129774804 33.9226164535483, -82.15101174664576 33.67922601471253, -82.99398717565747 33.36900326445678 M-80.82827084885032 34.166006892384075 C-81.5825102126831 33.888439834381366, -82.33674957651587 33.61087277637865, -82.99398717565747 33.36900326445678 M-82.99398717565747 33.36900326445678 C-83.46247939189156 33.16161565765777, -83.93097160812565 32.95422805085876, -85.10418960823209 32.43487924448709 M-82.99398717565747 33.36900326445678 C-83.63935760366792 33.08331692021011, -84.28472803167836 32.79763057596344, -85.10418960823209 32.43487924448709 M-85.10418960823209 32.43487924448709 C-85.57840049531146 32.187483728444356, -86.05261138239082 31.940088212401623, -87.15020687214175 31.367473348442026 M-85.10418960823209 32.43487924448709 C-85.77578966937573 32.08450592276883, -86.44738973051938 31.734132601050558, -87.15020687214175 31.367473348442026 M-87.15020687214175 31.367473348442026 C-87.6559635114661 31.060880701527687, -88.16172015079046 30.754288054613347, -89.12363144357973 30.171171776106277 M-87.15020687214175 31.367473348442026 C-87.83971685521858 30.94948834469042, -88.52922683829543 30.531503340938812, -89.12363144357973 30.171171776106277 M-89.12363144357973 30.171171776106277 C-89.8193716534084 29.68585352383806, -90.51511186323708 29.200535271569844, -91.01635409768377 28.85089038724644 M-89.12363144357973 30.171171776106277 C-89.65464712658867 29.800758222937663, -90.18566280959763 29.43034466976905, -91.01635409768377 28.85089038724644 M-91.01635409768377 28.85089038724644 C-91.55736661878906 28.41944729861279, -92.09837913989435 27.98800420997914, -92.82059723108037 27.412054501288846 M-91.01635409768377 28.85089038724644 C-91.49300863633195 28.470771076984505, -91.96966317498011 28.090651766722566, -92.82059723108037 27.412054501288846 M-92.82059723108037 27.412054501288846 C-93.43872903606336 26.85068355087463, -94.05686084104637 26.289312600460416, -94.5289468217255 25.86057660351821 M-92.82059723108037 27.412054501288846 C-93.42155692121703 26.86627881122881, -94.02251661135371 26.32050312116877, -94.5289468217255 25.86057660351821 M-94.5289468217255 25.86057660351821 C-95.12511894955871 25.244979934888438, -95.72129107739192 24.629383266258664, -96.13438289471136 24.202832049407405 M-94.5289468217255 25.86057660351821 C-95.05911478268115 25.313134656232403, -95.5892827436368 24.765692708946595, -96.13438289471136 24.202832049407405 M-96.13438289471136 24.202832049407405 C-96.72941295630771 23.503875880886667, -97.32444301790406 22.804919712365926, -97.63030836884907 22.445632866914412 M-96.13438289471136 24.202832049407405 C-96.57724336855718 23.682622937353283, -97.02010384240299 23.162413825299158, -97.63030836884907 22.445632866914412 M-97.63030836884907 22.445632866914412 C-97.9114300640917 22.068955406002576, -98.19255175933435 21.69227794509074, -99.0105761654904 20.59619976439812 M-97.63030836884907 22.445632866914412 C-98.17415887123597 21.71692273951599, -98.71800937362286 20.98821261211757, -99.0105761654904 20.59619976439812 M-99.0105761654904 20.59619976439812 C-99.3872596918843 20.017512714167417, -99.76394321827819 19.43882566393671, -100.26951446819245 18.66213245917892 M-99.0105761654904 20.59619976439812 C-99.4888409747693 19.86145658526226, -99.9671057840482 19.126713406126402, -100.26951446819245 18.66213245917892 M-100.26951446819245 18.66213245917892 C-100.7176123359624 17.866489320123986, -101.16571020373236 17.07084618106905, -101.40195002942801 16.651378448670073 M-100.26951446819245 18.66213245917892 C-100.60091373026414 18.073699511556487, -100.93231299233581 17.485266563934058, -101.40195002942801 16.651378448670073 M-101.40195002942801 16.651378448670073 C-101.78964677775156 15.846317855394695, -102.1773435260751 15.041257262119318, -102.40322942856925 14.57220035240619 M-101.40195002942801 16.651378448670073 C-101.71637269274102 15.998473060733351, -102.03079535605403 15.345567672796632, -102.40322942856925 14.57220035240619 M-102.40322942856925 14.57220035240619 C-102.62233683330565 14.031000826553763, -102.84144423804207 13.489801300701336, -103.26923819379137 12.433141959167095 M-102.40322942856925 14.57220035240619 C-102.64264869095972 13.980830145445182, -102.88206795335019 13.389459938484174, -103.26923819379137 12.433141959167095 M-103.26923819379137 12.433141959167095 C-103.5279362262148 11.653984703441685, -103.78663425863823 10.874827447716275, -103.99641770931979 10.242993118717168 M-103.26923819379137 12.433141959167095 C-103.47692027961547 11.807636606311622, -103.68460236543957 11.182131253456149, -103.99641770931979 10.242993118717168 M-103.99641770931979 10.242993118717168 C-104.20619578467006 9.443018399013612, -104.41597386002032 8.643043679310056, -104.58177983854564 8.010753622427327 M-103.99641770931979 10.242993118717168 C-104.13521443630691 9.713701043833247, -104.27401116329403 9.184408968949327, -104.58177983854564 8.010753622427327 M-104.58177983854564 8.010753622427327 C-104.701521555108 7.395905215300418, -104.82126327167035 6.78105680817351, -105.0229192029202 5.745596221201669 M-104.58177983854564 8.010753622427327 C-104.67665939783934 7.523567138256157, -104.77153895713303 7.0363806540849865, -105.0229192029202 5.745596221201669 M-105.0229192029202 5.745596221201669 C-105.11994290006527 4.993099585640607, -105.21696659721033 4.240602950079545, -105.31802306617112 3.4568289326765704 M-105.0229192029202 5.745596221201669 C-105.0996279168992 5.150658583429571, -105.17633663087817 4.555720945657473, -105.31802306617112 3.4568289326765704 M-105.31802306617112 3.4568289326765704 C-105.35310302563697 2.9104302479623483, -105.38818298510283 2.364031563248126, -105.46587878322477 1.1538567925795904 M-105.31802306617112 3.4568289326765704 C-105.37638249631921 2.547833701236129, -105.43474192646728 1.6388384697956873, -105.46587878322477 1.1538567925795904 M-105.46587878322477 1.1538567925795904 C-105.46587878322477 0.2549179319765452, -105.46587878322477 -0.6440209286265, -105.46587878322477 -1.1538567925795729 M-105.46587878322477 1.1538567925795904 C-105.46587878322477 0.5271924074151577, -105.46587878322477 -0.09947197774927496, -105.46587878322477 -1.1538567925795729 M-105.46587878322477 -1.1538567925795729 C-105.42982311467073 -1.7154529339206952, -105.39376744611667 -2.2770490752618175, -105.31802306617114 -3.4568289326765207 M-105.46587878322477 -1.1538567925795729 C-105.42661260490136 -1.765459215055131, -105.38734642657798 -2.377061637530689, -105.31802306617114 -3.4568289326765207 M-105.31802306617114 -3.4568289326765207 C-105.21725572469289 -4.2383605344195905, -105.11648838321463 -5.019892136162661, -105.0229192029202 -5.7455962212016525 M-105.31802306617114 -3.4568289326765207 C-105.2323585071279 -4.121226336235306, -105.14669394808466 -4.785623739794093, -105.0229192029202 -5.7455962212016525 M-105.0229192029202 -5.7455962212016525 C-104.90456191510137 -6.353335879329776, -104.78620462728252 -6.9610755374579, -104.58177983854566 -8.01075362242731 M-105.0229192029202 -5.7455962212016525 C-104.90975801552872 -6.326655001831481, -104.79659682813725 -6.90771378246131, -104.58177983854566 -8.01075362242731 M-104.58177983854566 -8.01075362242731 C-104.37021086998148 -8.81755779413351, -104.15864190141731 -9.624361965839709, -103.99641770931979 -10.24299311871715 M-104.58177983854566 -8.01075362242731 C-104.38061760308793 -8.777872410491973, -104.1794553676302 -9.544991198556637, -103.99641770931979 -10.24299311871715 M-103.99641770931979 -10.24299311871715 C-103.77512981901793 -10.909476986869072, -103.55384192871608 -11.575960855020993, -103.26923819379138 -12.433141959167049 M-103.99641770931979 -10.24299311871715 C-103.74510952152387 -10.999893339836326, -103.49380133372796 -11.7567935609555, -103.26923819379138 -12.433141959167049 M-103.26923819379138 -12.433141959167049 C-102.99486116285631 -13.110858530295705, -102.72048413192122 -13.78857510142436, -102.40322942856925 -14.572200352406172 M-103.26923819379138 -12.433141959167049 C-102.95610947919295 -13.206575938157048, -102.6429807645945 -13.980009917147049, -102.40322942856925 -14.572200352406172 M-102.40322942856925 -14.572200352406172 C-102.15239894527328 -15.093055217882837, -101.9015684619773 -15.6139100833595, -101.40195002942801 -16.65137844867006 M-102.40322942856925 -14.572200352406172 C-102.16431936688765 -15.068302207344422, -101.92540930520606 -15.564404062282673, -101.40195002942801 -16.65137844867006 M-101.40195002942801 -16.65137844867006 C-100.9526253683926 -17.44919988339409, -100.50330070735721 -18.247021318118122, -100.26951446819245 -18.66213245917891 M-101.40195002942801 -16.65137844867006 C-101.06989220201062 -17.24098074575077, -100.73783437459323 -17.83058304283148, -100.26951446819245 -18.66213245917891 M-100.26951446819245 -18.66213245917891 C-99.91392661354698 -19.20841089262303, -99.55833875890148 -19.75468932606715, -99.01057616549042 -20.596199764398108 M-100.26951446819245 -18.66213245917891 C-99.7784196369084 -19.416585997458014, -99.28732480562434 -20.171039535737123, -99.01057616549042 -20.596199764398108 M-99.01057616549042 -20.596199764398108 C-98.58025323876366 -21.172793282986863, -98.14993031203689 -21.749386801575618, -97.63030836884909 -22.4456328669144 M-99.01057616549042 -20.596199764398108 C-98.56093808345811 -21.198673831449437, -98.11130000142582 -21.801147898500766, -97.63030836884909 -22.4456328669144 M-97.63030836884909 -22.4456328669144 C-97.059305948983 -23.116364800247215, -96.48830352911692 -23.78709673358003, -96.13438289471136 -24.20283204940739 M-97.63030836884909 -22.4456328669144 C-97.19043798592762 -22.962329648027797, -96.75056760300613 -23.479026429141193, -96.13438289471136 -24.20283204940739 M-96.13438289471136 -24.20283204940739 C-95.70804148433804 -24.643064558898608, -95.28170007396473 -25.083297068389825, -94.52894682172553 -25.860576603518172 M-96.13438289471136 -24.20283204940739 C-95.71146065660358 -24.639533982815177, -95.2885384184958 -25.076235916222963, -94.52894682172553 -25.860576603518172 M-94.52894682172553 -25.860576603518172 C-93.95388292265443 -26.38283442129755, -93.37881902358335 -26.905092239076925, -92.82059723108041 -27.412054501288814 M-94.52894682172553 -25.860576603518172 C-93.90628099092248 -26.42606523621841, -93.28361516011944 -26.991553868918643, -92.82059723108041 -27.412054501288814 M-92.82059723108041 -27.412054501288814 C-92.45394194813862 -27.70445233232804, -92.08728666519684 -27.996850163367263, -91.01635409768379 -28.85089038724643 M-92.82059723108041 -27.412054501288814 C-92.16478157204241 -27.93505003738399, -91.50896591300443 -28.45804557347917, -91.01635409768379 -28.85089038724643 M-91.01635409768379 -28.85089038724643 C-90.4132105795625 -29.271617195825748, -89.81006706144123 -29.692344004405065, -89.12363144357977 -30.17117177610625 M-91.01635409768379 -28.85089038724643 C-90.62877764004128 -29.12124694618341, -90.24120118239877 -29.391603505120383, -89.12363144357977 -30.17117177610625 M-89.12363144357977 -30.17117177610625 C-88.68868024011984 -30.434841751700645, -88.25372903665992 -30.698511727295045, -87.15020687214177 -31.367473348442015 M-89.12363144357977 -30.17117177610625 C-88.58690143938877 -30.49654065882245, -88.05017143519777 -30.82190954153865, -87.15020687214177 -31.367473348442015 M-87.15020687214177 -31.367473348442015 C-86.37810269222082 -31.770279604550442, -85.60599851229988 -32.173085860658865, -85.1041896082321 -32.434879244487085 M-87.15020687214177 -31.367473348442015 C-86.65388013652512 -31.626406688500776, -86.15755340090847 -31.885340028559536, -85.1041896082321 -32.434879244487085 M-85.1041896082321 -32.434879244487085 C-84.56525914269672 -32.67344777477535, -84.02632867716133 -32.91201630506362, -82.99398717565748 -33.36900326445677 M-85.1041896082321 -32.434879244487085 C-84.34177765085774 -32.77237640186955, -83.57936569348337 -33.109873559252016, -82.99398717565748 -33.36900326445677 M-82.99398717565748 -33.36900326445677 C-82.483812503781 -33.55675225971029, -81.97363783190451 -33.7445012549638, -80.82827084885037 -34.16600689238406 M-82.99398717565748 -33.36900326445677 C-82.13130121660768 -33.68647967196869, -81.26861525755788 -34.0039560794806, -80.82827084885037 -34.16600689238406 M-80.82827084885037 -34.16600689238406 C-80.04651873744167 -34.39802681554959, -79.26476662603298 -34.63004673871512, -78.6159400207423 -34.822615069405046 M-80.82827084885037 -34.16600689238406 C-80.09947598583123 -34.38230938220584, -79.3706811228121 -34.59861187202762, -78.6159400207423 -34.822615069405046 M-78.6159400207423 -34.822615069405046 C-77.84498942487367 -34.99857951198926, -77.07403882900503 -35.17454395457347, -76.36608563324941 -35.33612965167835 M-78.6159400207423 -34.822615069405046 C-77.95346933513727 -34.97381968036916, -77.29099864953224 -35.12502429133328, -76.36608563324941 -35.33612965167835 M-76.36608563324941 -35.33612965167835 C-75.82949710368662 -35.422881123831864, -75.29290857412383 -35.50963259598539, -74.08795282064224 -35.70444049763686 M-76.36608563324941 -35.33612965167835 C-75.84264649645992 -35.42075523198334, -75.31920735967044 -35.50538081228834, -74.08795282064224 -35.70444049763686 M-74.08795282064224 -35.70444049763686 C-73.50605782542766 -35.76057520799409, -72.92416283021308 -35.81670991835132, -71.79090291930567 -35.92603413901211 M-74.08795282064224 -35.70444049763686 C-73.23877646584283 -35.786359519300376, -72.38960011104344 -35.868278540963885, -71.79090291930567 -35.92603413901211 M-71.79090291930567 -35.92603413901211 C-70.99892312843235 -35.95143138941027, -70.20694333755904 -35.97682863980843, -69.48437500000001 -36 M-71.79090291930567 -35.92603413901211 C-71.16342207317825 -35.94615622843004, -70.53594122705084 -35.96627831784797, -69.48437500000001 -36 M-69.48437500000001 -36 C-69.48437500000001 -36, -69.484375 -36, -69.484375 -36 M-69.48437500000001 -36 C-69.48437500000001 -36, -69.48437500000001 -36, -69.484375 -36" stroke="#3fb950" stroke-width="1.5" fill="none" stroke-dasharray="0 0" style="fill:#0f1d33 !important;stroke:#3fb950 !important;stroke-width:1.5px !important;rx:14 !important;ry:14 !important"/></g><g class="label" style="color:#3fb950 !important" transform="translate(-76.484375, -24)"><rect/><foreignObject width="152.96875" height="48"><div style="color: rgb(63, 185, 80) !important; display: table-cell; white-space: nowrap; line-height: 1.5; max-width: 200px; text-align: center;" xmlns="http://www.w3.org/1999/xhtml"><span style="color:#3fb950 !important" class="nodeLabel"><p><b>/hydra:*</b><br /><small style="color:#8b949e">8 skill-invoked commands</small></p></span></div></foreignObject></g></g></g></g><marker id="my-svg_flowchart-v2-pointEnd-margin__8b949e" class="marker flowchart-v2" viewBox="0 0 11.5 14" refX="11.5" refY="7" markerUnits="userSpaceOnUse" markerWidth="10.5" markerHeight="14" orient="auto"><path d="M 0 0 L 11.5 7 L 0 14 z" class="arrowMarkerPath" style="stroke-width: 0; stroke-dasharray: 1, 0;" stroke="#8b949e" fill="#8b949e"/></marker></g><defs><filter id="my-svg-drop-shadow" height="130%" width="130%"><feDropShadow dx="4" dy="4" stdDeviation="0" flood-opacity="0.06" flood-color="#FFFFFF"/></filter></defs><defs><filter id="my-svg-drop-shadow-small" height="150%" width="150%"><feDropShadow dx="2" dy="2" stdDeviation="0" flood-opacity="0.06" flood-color="#FFFFFF"/></filter></defs><linearGradient id="my-svg-gradient" gradientUnits="objectBoundingBox" x1="0%" y1="0%" x2="100%" y2="0%"><stop offset="0%" stop-color="#cccccc" stop-opacity="1"/><stop offset="100%" stop-color="hsl(180, 0%, 18.3529411765%)" stop-opacity="1"/></linearGradient><text text-anchor="middle" x="702.9311828613281" y="-25" class="flowchartTitleText">Hydra per-session state flow</text></svg>